<svg xmlns="http://www.w3.org/2000/svg" data-name="Layer 1" fill="#0aa8a7" viewBox="0 0 500 500" width="60px" height="60px" x="0px" y="0px">
  <title>Baby Education</title>
  <path d="M437.607,132.541v77.22a23.1,23.1,0,1,0,14-.871V132.541a7,7,0,0,0-14,0Z"/>
  <path d="M324.461,322.627a9.364,9.364,0,1,0-9.364-9.364A9.374,9.374,0,0,0,324.461,322.627Z"/>
  <path d="M380.505,234.073V160.787L260.882,206.813a45.868,45.868,0,0,1-29.38,0L109.493,159.869v74.188C195.772,261.8,294.166,261.777,380.505,234.073Z"/>
  <path d="M255.854,193.746l193.6-74.488-193.6-74.487c-5.056-1.947-14.268-1.947-19.324,0l-193.6,74.487,193.6,74.488C241.586,195.693,250.8,195.693,255.854,193.746Z"/>
  <path d="M94.025,285.492a32.569,32.569,0,0,0,0,63.833,7,7,0,0,1,5.408,5.154,151.321,151.321,0,0,0,293.392.03,7,7,0,0,1,5.429-5.156,32.576,32.576,0,0,0,0-63.888,7,7,0,0,1-5.429-5.157,150.226,150.226,0,0,0-11.929-31.68,460.7,460.7,0,0,1-135.939,20.216,459.863,459.863,0,0,1-133.886-19.633,150.286,150.286,0,0,0-11.638,31.127A7,7,0,0,1,94.025,285.492ZM324.461,289.9A23.364,23.364,0,1,1,301.1,313.263,23.39,23.39,0,0,1,324.461,289.9ZM246.192,426.317a61.251,61.251,0,0,0,61.181-61.181,7,7,0,0,1,14,0,75.182,75.182,0,0,1-150.363,0,7,7,0,1,1,14,0A61.251,61.251,0,0,0,246.192,426.317ZM167.924,284.506a23.364,23.364,0,1,1-23.364,23.363A23.39,23.39,0,0,1,167.924,284.506Z"/>
  <path d="M167.924,317.233a9.364,9.364,0,1,0-9.364-9.364A9.374,9.374,0,0,0,167.924,317.233Z"/>
</svg>
