<svg xmlns="http://www.w3.org/2000/svg" version="1.0" width="500" height="500" viewBox="0 0 100.000000 100.000000" preserveAspectRatio="xMidYMid meet">

<g transform="translate(0.000000,100.000000) scale(0.100000,-0.100000)" fill="#0aa8a7" stroke="none">
<path d="M663 881 c-76 -35 -103 -118 -65 -205 12 -25 25 -46 29 -45 4 0 20 26 35 57 15 31 52 90 83 129 30 40 55 75 55 78 0 13 -99 3 -137 -14z"/>
<path d="M818 846 c-16 -19 -28 -37 -28 -41 0 -3 18 -32 40 -64 22 -32 40 -63 40 -68 0 -5 6 -18 14 -29 14 -18 16 -17 35 26 34 75 21 158 -30 194 -33 23 -40 21 -71 -18z"/>
<path d="M173 849 c-43 -13 -90 -72 -103 -131 -15 -71 -12 -164 5 -198 29 -55 161 -97 225 -72 l25 10 -30 7 c-77 17 -133 54 -149 98 -5 15 -1 14 24 -6 64 -54 154 -47 213 17 36 39 38 43 32 90 -19 151 -112 222 -242 185z m122 -61 c35 -31 43 -85 20 -144 -34 -89 -98 -94 -135 -11 -34 75 -20 145 34 167 35 14 53 11 81 -12z"/>
<path d="M712 697 c-44 -77 -49 -96 -30 -115 8 -8 11 -44 9 -107 l-2 -95 151 0 c125 0 152 3 156 15 11 29 -27 67 -102 101 -77 35 -92 57 -58 85 21 18 12 60 -27 120 -49 78 -51 77 -97 -4z"/>
<path d="M453 585 c-45 -19 -63 -60 -62 -142 0 -61 4 -74 35 -119 19 -28 32 -58 29 -66 -3 -8 -37 -28 -74 -45 -70 -31 -108 -70 -97 -98 8 -23 464 -23 472 0 11 29 -27 67 -102 101 -45 20 -74 40 -74 49 0 8 15 35 34 59 31 41 34 50 34 119 1 85 -13 113 -72 141 -41 19 -80 20 -123 1z"/>
<path d="M25 429 c-50 -60 -41 -64 156 -67 l175 -2 -4 33 -4 34 -41 -14 c-56 -20 -136 -11 -194 21 -25 14 -49 26 -53 26 -5 0 -20 -14 -35 -31z"/>
</g>
</svg>
