<svg xmlns="http://www.w3.org/2000/svg" xmlns:xlink="http://www.w3.org/1999/xlink" width="800" zoomAndPan="magnify" viewBox="0 0 600 149.999998" height="200" preserveAspectRatio="xMidYMid meet" version="1.0"><defs><g/></defs><g fill="#0aa8a7" fill-opacity="1"><g transform="translate(132.233664, 114.168883)"><g><path d="M 24.03125 34.4375 C 19.21875 34.4375 15.476562 33.15625 12.8125 30.59375 C 10.144531 28.03125 8.8125 24.503906 8.8125 20.015625 C 8.8125 15.960938 9.90625 12.8125 12.09375 10.5625 C 14.28125 8.320312 17.191406 7.203125 20.828125 7.203125 C 21.679688 7.203125 22.535156 7.28125 23.390625 7.4375 C 24.242188 7.601562 24.828125 7.6875 25.140625 7.6875 L 27.234375 8.015625 L 27.234375 29.625 C 30.328125 29.09375 33.046875 27.382812 35.390625 24.5 C 37.742188 21.625 40.363281 16.660156 43.25 9.609375 L 46.453125 1.609375 L 4.8125 -75.28125 L -3.203125 -77.671875 L -3.203125 -80.078125 L 16.8125 -80.078125 C 22.363281 -80.078125 26.769531 -78.925781 30.03125 -76.625 C 33.289062 -74.332031 36.09375 -70.945312 38.4375 -66.46875 L 58.453125 -29.46875 L 75.28125 -72.875 L 63.265625 -77.671875 L 63.265625 -80.078125 L 92.890625 -80.078125 L 92.890625 -77.671875 L 80.078125 -72.875 L 48.046875 9.609375 C 44.628906 18.367188 41 24.695312 37.15625 28.59375 C 33.3125 32.488281 28.9375 34.4375 24.03125 34.4375 Z M 24.03125 34.4375 "/></g></g></g><g fill="#0aa8a7" fill-opacity="1"><g transform="translate(221.916712, 114.168883)"><g><path d="M 44.84375 2.40625 C 38.863281 2.40625 33.5 1.148438 28.75 -1.359375 C 24 -3.867188 20.285156 -7.148438 17.609375 -11.203125 C 14.941406 -15.265625 13.609375 -19.539062 13.609375 -24.03125 L 13.609375 -75.28125 L 4 -77.671875 L 4 -80.078125 L 24.828125 -80.078125 C 34.429688 -80.078125 39.234375 -75.273438 39.234375 -65.671875 L 39.234375 -24.03125 C 39.234375 -17.300781 40.4375 -12.144531 42.84375 -8.5625 C 45.25 -4.988281 48.050781 -3.203125 51.25 -3.203125 C 55.195312 -3.203125 58.773438 -5.335938 61.984375 -9.609375 C 63.160156 -11.210938 64.390625 -13.347656 65.671875 -16.015625 L 65.671875 -75.28125 L 56.0625 -77.671875 L 56.0625 -80.078125 L 100.90625 -80.078125 L 100.90625 -77.671875 L 91.296875 -75.28125 L 91.296875 0.796875 L 89.6875 0.796875 C 81.894531 0.796875 75.96875 -1.335938 71.90625 -5.609375 C 70.09375 -7.523438 68.8125 -9.660156 68.0625 -12.015625 C 66.570312 -9.347656 64.8125 -6.945312 62.78125 -4.8125 C 57.976562 0 52 2.40625 44.84375 2.40625 Z M 44.84375 2.40625 "/></g></g></g><g fill="#0aa8a7" fill-opacity="1"><g transform="translate(326.013102, 114.168883)"><g><path d="M 6.40625 -4 L 52.046875 -76.078125 L 23.21875 -76.078125 C 23.21875 -70.203125 21.457031 -64.273438 17.9375 -58.296875 C 16.550781 -56.054688 14.84375 -53.972656 12.8125 -52.046875 L 8.015625 -52.046875 L 8.015625 -80.078125 L 80.875 -80.078125 L 80.875 -76.078125 L 35.234375 -4 L 65.671875 -4 C 65.671875 -10.09375 67.378906 -16.019531 70.796875 -21.78125 C 72.285156 -24.238281 74.046875 -26.320312 76.078125 -28.03125 L 80.875 -28.03125 L 80.875 0 L 6.40625 0 Z M 6.40625 -4 "/></g></g></g><g fill="#0aa8a7" fill-opacity="1"><g transform="translate(413.2939, 114.168883)"><g><path d="M 6.40625 -2.40625 L 16.015625 -4.8125 L 16.015625 -75.28125 L 6.40625 -77.671875 L 6.40625 -80.078125 L 27.234375 -80.078125 C 36.835938 -80.078125 41.640625 -75.273438 41.640625 -65.671875 L 41.640625 -4.8125 L 51.25 -2.40625 L 51.25 0 L 6.40625 0 Z M 27.21875 -89.6875 C 24.019531 -89.6875 21.351562 -90.753906 19.21875 -92.890625 C 17.082031 -95.023438 16.015625 -97.695312 16.015625 -100.90625 C 16.015625 -104.101562 17.082031 -106.769531 19.21875 -108.90625 C 21.351562 -111.039062 24.019531 -112.109375 27.21875 -112.109375 C 30.425781 -112.109375 33.097656 -111.039062 35.234375 -108.90625 C 37.367188 -106.769531 38.4375 -104.101562 38.4375 -100.90625 C 38.4375 -97.695312 37.367188 -95.023438 35.234375 -92.890625 C 33.097656 -90.753906 30.425781 -89.6875 27.21875 -89.6875 Z M 27.21875 -89.6875 "/></g></g></g></svg>