<?xml version="1.0" encoding="utf-8"?>
<!-- Generator: Adobe Illustrator 22.0.0, SVG Export Plug-In . SVG Version: 6.00 Build 0)  -->
<svg version="1.1" id="圖層_1" xmlns="http://www.w3.org/2000/svg" xmlns:xlink="http://www.w3.org/1999/xlink" x="0px" y="0px"
	 viewBox="0 430 1080 110" style="enable-background:new 0 0 1080 1080;" xml:space="preserve">
<style type="text/css">
	.st0{fill:#22A5DF;}
	.st1{fill:#2FAF5A;}
</style>
<g>
	<path class="st0" d="M233.1,432.6c-8.7-2.8-20-3-29-1.6c-35.5,6.5-52.7,48.6-37.2,79.5c10.8,21.6,35.7,32.7,59.2,28.5
		C280.6,529.6,285.8,449.4,233.1,432.6z M221.1,500.8c-20.3,6.4-30.2-26.1-10-31.6C231.3,463.6,240.9,494.6,221.1,500.8z"/>
	<path class="st0" d="M129.1,470.6c3.9,2,9,7.8,13.6,4.4c3.1-2.3,4.9-7.1,6.8-10.4c2.5-4.4,8-11.6,7-17c-0.8-4.4-5.9-7.4-9.5-9.6
		c-10.8-6.5-24.5-8.8-37-7c-60.6,8.7-62,98.4-1,108c8.4,1.3,16.9,0.6,25-1.8c7.3-2.2,21.9-8.1,21.7-17.6c-0.1-5.4-5.2-10.8-8-15
		c-2-3-4.1-7.3-7.1-9.3c-4-2.7-9.7,3.9-13.5,5.1c-11.8,3.8-26.6-5.1-23.6-18.8C106.1,469.8,119,465.6,129.1,470.6z"/>
</g>
<g>
	<path class="st1" d="M447.1,432.6c-8.7-2.8-20-3-29-1.6c-35.5,6.5-52.7,48.6-37.2,79.5c10.8,21.6,35.7,32.7,59.2,28.5
		C494.6,529.6,499.8,449.4,447.1,432.6z M435.1,500.8c-20.3,6.4-30.2-26.1-10-31.6C445.3,463.6,454.9,494.6,435.1,500.8z"/>
	<path class="st1" d="M563.1,432.6c-8.7-2.8-20-3-29-1.6c-35.5,6.5-52.7,48.6-37.2,79.5c10.8,21.6,35.7,32.7,59.2,28.5
		C610.6,529.6,615.8,449.4,563.1,432.6z M551.1,500.8c-20.3,6.4-30.2-26.1-10-31.6C561.3,463.6,570.9,494.6,551.1,500.8z"/>
	<path class="st1" d="M343.1,470.6c3.9,2,9,7.8,13.6,4.4c3.1-2.3,4.9-7.1,6.8-10.4c2.5-4.4,8-11.6,7-17c-0.8-4.4-5.9-7.4-9.5-9.6
		c-10.8-6.5-24.5-8.8-37-7c-60.6,8.7-62,98.4-1,108c8.4,1.3,16.9,0.6,25-1.8c7.3-2.2,21.9-8.1,21.7-17.6c-0.1-5.4-5.2-10.8-8-15
		c-2-3-4.1-7.3-7.1-9.3c-4-2.7-9.7,3.9-13.5,5.1c-11.8,3.8-26.6-5.1-23.6-18.8C320.1,469.8,333,465.6,343.1,470.6z"/>
</g>
<g>
	<path class="st0" d="M789.1,470.6c3.9,2,9,7.8,13.6,4.4c3.1-2.3,4.9-7.1,6.8-10.4c2.5-4.4,8-11.6,7-17c-0.8-4.4-5.9-7.4-9.5-9.6
		c-10.8-6.5-24.5-8.8-37-7c-60.6,8.7-62,98.4-1,108c8.4,1.3,16.9,0.6,25-1.8c7.3-2.2,21.9-8.1,21.7-17.6c-0.1-5.4-5.2-10.8-8-15
		c-2-3-4.1-7.3-7.1-9.3c-4-2.7-9.7,3.9-13.5,5.1c-11.8,3.8-26.6-5.1-23.6-18.8C766.1,469.8,779,465.6,789.1,470.6z"/>
	<path class="st0" d="M675.1,473.6c-7.4-9.9-14.7-19.9-22-30c-2.4-3.6-5.1-9.9-9.2-11.9c-5.8-2.9-19.4,1.4-25.8,2.2
		c-2.4,0.3-6.4,0.3-8,2.3c-3.2,4.1,0,17.2,0,22.4v55c0,6-3,15.3-0.3,20.7c1.5,2.9,5.5,2.3,8.3,2.3c5.7,0,25.3,3,29-1.6
		c1.9-2.4,1-7.4,1-10.4c0-9-1-17.9-1-27c7.8,8,14.2,17.1,20.9,26c2.9,4,5.8,9.7,10.1,12c8,4.2,24.9,1,34,1l2-103h-40L675.1,473.6z"
		/>
	<path class="st0" d="M1015.9,512.6c0.2-2.2,0.5-5.4-1.4-7c-4.1-3.3-16.4,0-21.4,0c11.6-11.6,25-30.3,13.4-47
		c-10.8-15.3-33.9-14.5-50.4-12c-5.6,0.7-15.7,2.2-19,7.4c-2.1,3.3-0.1,8.1,0.6,11.6c0.7,3.6-0.2,16,3.7,17
		c6,1.7,28.7-16.4,29.7,0.5c0.5,8.5-13.6,23-21,25.7c-3.7,1.4-12.4,0-13.6,5c-0.8,3.1,0.6,6.8,1.5,9.8c0.8,3.5,0.6,10.6,3.7,13
		c3.4,2.6,11.4,1,15.4,0.4c10.4-1.4,21.5-0.4,32-0.4c5.5,0,20,5.3,24.4,2C1017.5,535.6,1015.5,517.7,1015.9,512.6z"/>
	<path class="st0" d="M893.1,432.6c-8.7-2.8-20-3-29-1.6c-35.5,6.5-52.7,48.6-37.2,79.5c10.8,21.6,35.7,32.7,59.2,28.5
		C940.6,529.6,945.8,449.4,893.1,432.6z M881.1,500.8c-20.3,6.4-30.2-26.1-10-31.6C891.3,463.6,900.9,494.6,881.1,500.8z"/>
</g>
</svg>
