<svg xmlns="http://www.w3.org/2000/svg" xmlns:xlink="http://www.w3.org/1999/xlink" fill="#0aa8a7" height="800px" width="800px" version="1.1" id="Layer_1" viewBox="0 0 512 512" xml:space="preserve">
<g>
	<g>
		<g>
			<path d="M422.7,305.365l-82.411,51.627c-5.867,3.136-17.899,4.693-31.211,5.44c-0.939-6.059-3.499-12.949-8.619-20.629     c-15.808-23.573-33.899-33.643-60.523-33.643h-31.552c-14.101,0-27.712-4.437-38.4-12.48     c-18.283-13.76-39.509-17.771-63.317-12.437v-5.909c0-11.776-9.536-21.333-21.333-21.333h-64     c-11.797,0-21.333,9.557-21.333,21.333v213.333C0.001,502.443,9.537,512,21.334,512h64c11.797,0,21.333-9.557,21.333-21.333     v-0.021l63.552-0.043l4.864,0.085c17.131,0,34.432-1.323,51.051-3.84l104.213-13.653c4.224-0.107,8.491-0.597,12.736-1.493     c11.968-1.813,23.275-7.424,32.853-16.299l122.667-95.531c14.891-12.331,17.749-34.24,6.528-49.899     C482.028,277.781,453.59,289.045,422.7,305.365z M64.001,313.643v155.691H42.668V298.667h21.333V313.643z"/>
			<path d="M150.429,262.741c2.901,8.725,11.051,14.592,20.245,14.592h298.667c9.173,0,17.323-5.867,20.224-14.592l21.333-64     c2.176-6.507,1.088-13.653-2.923-19.2c-4.011-5.589-10.453-8.875-17.301-8.875h-1.493     c-9.664-77.056-70.805-138.176-147.84-147.861v-1.472C341.341,9.557,331.783,0,320.007,0c-11.797,0-21.333,9.557-21.333,21.333     v1.472c-77.056,9.685-138.176,70.805-147.861,147.861h-1.472c-6.869,0-13.291,3.285-17.323,8.875     c-3.989,5.547-5.099,12.693-2.923,19.2L150.429,262.741z M461.063,213.333l-7.104,21.333H186.034l-7.104-21.333H461.063z"/>
		</g>
	</g>
</g>
</svg>
