<svg xmlns="http://www.w3.org/2000/svg" xmlns:xlink="http://www.w3.org/1999/xlink" width="800px" height="800px" viewBox="0 0 64 64" aria-hidden="true" role="img" class="iconify iconify--medical-icon" preserveAspectRatio="xMidYMid meet"><path d="M30.827 19.223a5.887 5.887 0 0 0 5.892-5.881a5.884 5.884 0 0 0-5.892-5.879c-3.255 0-5.893 2.632-5.893 5.879a5.889 5.889 0 0 0 5.893 5.881z" fill="#0aa8a7"/><path d="M48.78 58.98H1.806c-1.323 0-1.187 1.04-1.187 1.04v1.731S.499 64 2.809 64h58.817c2.325 0 2.199-2.197 2.199-2.197v-4.794s-.197-1.516-1.98-1.516h-5.732c-1.965 0-3.589 3.486-7.332 3.486z" fill="#0aa8a7"/><path d="M53.348 48.358c0 2.922 2.378 5.295 5.308 5.295c2.929 0 5.313-2.374 5.313-5.295c0-2.933-2.384-5.297-5.313-5.297a5.298 5.298 0 0 0-5.308 5.297z" fill="#0aa8a7"/><path d="M35.997 38.255a3.77 3.77 0 0 1-2.269 2.36l-4.727 1.753l1.744 1.731h7.98l-.005-12.215l-2.671 6.297c-.013.03-.037.047-.053.074z" fill="#0aa8a7"/><path d="M47.458 47.001h-16.5l-3.978-3.884l-2.769 1.02c-2.054.735-4.555-.387-5.326-2.428c-.454-1.267-.391-2.682.367-3.713c-.339-.015-10.007 0-10.007 0a2.906 2.906 0 0 0-2.915 2.898c0 1.607 1.307 2.863 2.915 2.863h9.843l3.903 5.909L2.84 51.285a2.909 2.909 0 0 0 .651 5.745l22.609.003a4.133 4.133 0 0 1-.629-2.177a4.176 4.176 0 0 1 4.173-4.173h9.046l7.331-1.531l.407 1.947l-7.533 1.573h-9.252a2.18 2.18 0 0 0-.044 4.361l17.898.002a5.014 5.014 0 0 0 4.992-5.013A5.023 5.023 0 0 0 47.458 47z" fill="#0aa8a7"/><path d="M23.862 42.315a2.309 2.309 0 0 1-3.038-1.185a2.303 2.303 0 0 1 1.187-3.04l8.401-3.154l2.596-6.192l-1.692-.625l-2.207 5.302l-6.395 2.355v-6.482l-6.251 6.827l-7.074-.007s12.379-13.57 12.766-13.976c.513-.509 1.686-1.353 3.898-1.353h7.949c4.516 0 5.385 4.502 4.461 6.832l-4.157 10.082a2.344 2.344 0 0 1-1.338 1.261l-9.106 3.353z" fill="#0aa8a7"/></svg>
