<svg xmlns="http://www.w3.org/2000/svg" xmlns:xlink="http://www.w3.org/1999/xlink" xmlns:xodm="http://www.corel.com/coreldraw/odm/2003" xml:space="preserve" version="1.1" style="shape-rendering:geometricPrecision;text-rendering:geometricPrecision;image-rendering:optimizeQuality;" viewBox="0 0 846.66 1058.325" x="0px" y="0px" fill-rule="evenodd" clip-rule="evenodd"><defs><style type="text/css">

    .fil0 {fill:#0aa8a7;fill-rule:nonzero}

  </style></defs><g><path class="fil0" d="M237.46 95.18l-53.21 210.77c-1.86,7.38 -2.3,14.55 -1.36,21.41 0.96,6.89 3.34,13.63 7.12,20.17l222.95 386.13c7.67,13.29 20.09,22.26 33.9,25.96 14.34,3.85 29.63,1.88 42.34,-5.5l262.32 -151.46c13.3,-7.68 22.26,-20.1 25.95,-33.9 3.7,-13.82 2.16,-29.06 -5.51,-42.34l-223.23 -386.67c-3.7,-6.29 -8.27,-11.55 -13.93,-15.97 -5.6,-4.26 -11.81,-7.28 -18.87,-9.28l-209.11 -59.32c-7.56,-2.14 -15,-2.75 -22.18,-1.88 -7.16,0.89 -14.19,3.31 -20.98,7.23 -6.25,3.35 -12.51,8.9 -16.77,14.56 -4.01,5.31 -7.81,13.55 -9.43,20.09zm272.16 260.74c2.91,5.04 1.19,11.51 -3.85,14.43 -5.04,2.92 -11.51,1.19 -14.43,-3.85 -4.08,-7.07 -11.83,-11.38 -21,-12.59 -10.19,-1.34 -22.02,1.01 -33.04,7.37 -11.07,6.4 -19.01,15.46 -22.91,24.91 -3.54,8.59 -3.84,16.77 0.67,25.02 4.27,6.98 12.42,11.37 22.82,13.92 12.19,3 27.26,3.46 43.19,2.53 17.82,-1.05 34.99,-0.46 49.46,3.09 16,3.95 28.9,11.53 36.32,24.38 7.56,13.05 7.63,28.57 1.64,43.07 -4.46,10.82 -12.38,21.13 -23.04,29.31l12.02 20.81c2.92,5.04 1.19,11.51 -3.85,14.43 -5.04,2.92 -11.51,1.19 -14.43,-3.85l-12.04 -20.85c-12.4,5.16 -25.26,6.86 -36.84,5.33 -15.56,-2.06 -29,-9.9 -36.54,-22.97 -2.89,-5.04 -1.15,-11.5 3.89,-14.39 5.04,-2.89 11.5,-1.15 14.39,3.89 4.06,7.04 11.81,11.34 20.98,12.55 9.96,1.32 21.49,-0.89 32.28,-6.91l1.43 -0.84c10.68,-6.35 18.4,-15.24 22.23,-24.52 3.54,-8.57 3.69,-17.44 -0.38,-24.49 -4.18,-7.29 -12.46,-11.83 -23.1,-14.45 -12.18,-2.99 -27.24,-3.45 -43.18,-2.51 -17.83,1.04 -35,0.46 -49.47,-3.11 -15.91,-3.91 -28.36,-10.88 -36.83,-25.23 -7.07,-12.87 -7,-28.04 -1.14,-42.23 4.47,-10.83 12.39,-21.15 23.07,-29.31l-12.03 -20.84c-2.89,-5.04 -1.15,-11.5 3.89,-14.39 5.04,-2.89 11.5,-1.15 14.39,3.89l12.01 20.8c12.4,-5.15 25.27,-6.85 36.86,-5.32 15.59,2.06 29.02,9.88 36.56,22.92zm-218.56 -249.43c12.42,-6.95 26.5,-8.32 39.26,-4.91 12.96,3.48 24.65,11.93 31.92,24.53 7.29,12.58 8.77,26.93 5.3,39.93 -3.48,12.98 -11.94,24.69 -24.52,31.95 -12.58,7.26 -26.94,8.74 -39.93,5.26 -12.97,-3.47 -24.66,-11.93 -31.93,-24.51 -7.29,-12.58 -8.77,-26.93 -5.29,-39.93 3.62,-13.48 12.84,-25.68 25.19,-32.32zm33.8 15.51c-7.64,-2.04 -16.06,-1.24 -23.45,2.86 -7.63,4.68 -12.77,10.62 -15.12,19.41 -2.08,7.78 -1.21,16.39 3.13,23.9 4.32,7.53 11.33,12.58 19.13,14.67 7.78,2.08 16.39,1.21 23.9,-3.13 7.52,-4.35 12.59,-11.36 14.67,-19.13 2.08,-7.79 1.2,-16.39 -3.14,-23.9 -2.52,-6.56 -12.5,-12.91 -19.12,-14.68zm-116.34 1.5c-42.1,42.85 -83.71,86.65 -125.48,129.65 -5.27,5.43 -9.24,11.4 -11.85,17.84 -2.6,6.41 -3.91,13.43 -3.91,21.04l-0.03 445.89c0.05,15.41 6.3,29.35 16.37,39.41 10.15,10.11 24.12,16.42 39.42,16.42l302.94 -0.05c10.74,0 20.75,-3.02 29.2,-8.24 1.42,-0.88 2.8,-1.81 4.13,-2.81 -6.07,-0.16 -12.08,-1.05 -17.91,-2.61 -19.01,-5.09 -36.13,-17.45 -46.72,-35.8l-222.94 -386.14c-5.17,-9 -8.44,-18.28 -9.77,-27.84 -1.32,-9.59 -0.73,-19.44 1.78,-29.43l44.77 -177.33z"/></g></svg>
