<?xml version="1.0" encoding="utf-8"?><svg version="1.1" id="Layer_1" xmlns="http://www.w3.org/2000/svg" xmlns:xlink="http://www.w3.org/1999/xlink" x="0px" y="0px" viewBox="0 0 122.88 106.3" style="enable-background:new 0 0 122.88 106.3" xml:space="preserve"><g><path fill="#0aa8a7" d="M58.15,52.98l28.6-18.22c0.2-0.15,0.48-0.12,0.65,0.06l2.76,2.94c0.17,0.18,0.18,0.47,0.02,0.66L68.51,63.6 c-3.08,3.31-6.37,3.96-9.02,3.1c-1.32-0.43-2.47-1.22-3.35-2.25c-0.88-1.02-1.49-2.27-1.74-3.61c-0.49-2.67,0.49-5.66,3.73-7.85 L58.15,52.98L58.15,52.98z M19.33,106.17c-3.05-2.87-5.8-6.05-8.21-9.48c-2.39-3.4-4.44-7.06-6.11-10.91 C3.38,82,2.12,78.02,1.26,73.88C0.44,69.86,0,65.7,0,61.44c0-8.32,1.66-16.25,4.65-23.49C7.77,30.43,12.33,23.66,18,18 c5.66-5.66,12.43-10.23,19.95-13.34C45.19,1.66,53.12,0,61.44,0c8.3,0,16.21,1.66,23.43,4.66c7.52,3.12,14.28,7.7,19.95,13.37 c5.68,5.68,10.26,12.46,13.38,19.97c3.01,7.24,4.68,15.16,4.68,23.44c0,4.05-0.4,8.01-1.16,11.85c-0.78,3.94-1.95,7.75-3.46,11.4 c-1.54,3.71-3.43,7.25-5.64,10.55c-2.23,3.34-4.78,6.45-7.6,9.3c-0.19,0.19-0.51,0.19-0.7,0l-3.07-3.06 c-0.06-0.02-0.12-0.06-0.17-0.11l-8.56-8.56c-0.19-0.19-0.19-0.51,0-0.7l4.49-4.49c0.19-0.19,0.51-0.19,0.7,0l6.61,6.61 c1.4-1.82,2.69-3.72,3.85-5.7c1.25-2.12,2.35-4.34,3.3-6.63c1.28-3.1,2.29-6.35,2.97-9.71c0.64-3.12,1-6.35,1.07-9.64h-9.11 c-0.27,0-0.5-0.22-0.5-0.5V55.7c0-0.27,0.22-0.5,0.5-0.5h8.76c-0.68-5.85-2.31-11.43-4.72-16.58c-2.49-5.31-5.82-10.15-9.82-14.37 l-5.86,5.86c-0.19,0.19-0.51,0.19-0.7,0l-4.49-4.49c-0.19-0.19-0.19-0.51,0-0.7l5.65-5.65c-4.44-3.57-9.45-6.46-14.87-8.5 C75.1,8.8,69.47,7.62,63.6,7.39v8.03c0,0.27-0.22,0.5-0.5,0.5h-6.36c-0.27,0-0.5-0.22-0.5-0.5V7.59 c-5.83,0.55-11.4,2.04-16.54,4.29c-5.31,2.33-10.17,5.49-14.42,9.3l5.87,5.87c0.19,0.19,0.19,0.51,0,0.7l-4.49,4.49 c-0.19,0.19-0.51,0.19-0.7,0l-5.8-5.8c-3.73,4.4-6.78,9.41-8.96,14.86C9.1,46.6,7.79,52.29,7.44,58.23h9.03 c0.27,0,0.5,0.22,0.5,0.5v6.36c0,0.27-0.22,0.5-0.5,0.5H7.5c0.22,2.94,0.68,5.8,1.35,8.58c0.72,3.01,1.7,5.92,2.91,8.72 c1.05,2.43,2.27,4.76,3.64,6.98c1.29,2.09,2.72,4.09,4.28,5.97l7.24-7.24c0.19-0.19,0.51-0.19,0.7,0l4.49,4.49 c0.19,0.19,0.19,0.51,0,0.7c-4.14,4.14-8.09,8.11-12.09,12.36C19.84,106.35,19.53,106.36,19.33,106.17L19.33,106.17z"/></g></svg>