<svg version="1.0" xmlns="http://www.w3.org/2000/svg"
 width="754.000000pt" height="463.000000pt" viewBox="0 0 754.000000 463.000000"
 preserveAspectRatio="xMidYMid meet">

<g transform="translate(0.000000,463.000000) scale(0.100000,-0.100000)"
fill="blue" stroke="none">
<path d="M5105 4595 c-33 -16 -20 -20 18 -6 19 8 36 2 93 -31 38 -22 83 -47
99 -55 17 -7 44 -22 60 -32 61 -37 122 -71 185 -103 36 -18 69 -39 73 -45 4
-7 13 -13 18 -13 6 0 108 -56 227 -124 120 -68 246 -139 282 -158 36 -19 99
-54 140 -77 41 -23 89 -49 105 -57 17 -8 48 -25 70 -37 91 -52 234 -127 242
-127 8 0 -37 27 -146 87 -155 84 -196 107 -201 112 -3 4 -30 19 -60 36 -30 16
-77 42 -105 57 -27 15 -59 32 -71 37 -11 5 -38 21 -60 36 -21 15 -61 38 -89
51 -27 13 -63 33 -80 44 -16 10 -43 26 -60 35 -44 22 -146 79 -261 146 -56 32
-113 63 -125 69 -13 6 -42 21 -64 34 -22 13 -71 41 -110 61 -38 21 -77 43 -85
50 -24 21 -63 25 -95 10z"/>
<path d="M5030 4554 l-25 -15 25 7 c28 7 35 12 29 18 -2 2 -15 -2 -29 -10z"/>
<path d="M4970 4520 c-9 -6 -10 -10 -3 -10 6 0 15 5 18 10 8 12 4 12 -15 0z"/>
<path d="M4875 4470 c-3 -6 1 -7 9 -4 18 7 21 14 7 14 -6 0 -13 -4 -16 -10z"/>
<path d="M5095 4462 c-30 -18 -117 -66 -290 -158 -49 -26 -112 -60 -140 -75
-27 -15 -79 -43 -115 -62 -314 -166 -361 -191 -455 -244 -44 -24 -98 -53 -120
-64 -22 -11 -53 -29 -70 -39 -16 -11 -41 -24 -55 -30 -76 -31 -159 -77 -160
-87 0 -10 60 -13 268 -13 147 0 555 -4 907 -10 1618 -23 1705 -24 1705 -7 0 8
-19 25 -42 37 -77 40 -212 112 -278 150 -36 20 -92 52 -125 70 -33 18 -78 44
-100 56 -22 13 -53 30 -70 38 -16 9 -37 20 -45 25 -13 9 -125 72 -310 174 -25
14 -78 42 -118 63 -40 21 -78 44 -84 51 -6 7 -14 13 -18 13 -5 0 -60 29 -123
65 -63 36 -119 65 -123 65 -5 0 -22 -8 -39 -18z m92 -71 c10 -5 59 -28 108
-52 50 -24 101 -51 115 -60 22 -15 70 -41 210 -116 24 -13 51 -30 60 -37 8 -8
26 -17 40 -21 14 -4 32 -13 40 -20 8 -7 26 -16 40 -20 14 -4 32 -13 40 -20 25
-20 209 -126 300 -172 30 -16 59 -32 65 -36 5 -4 36 -21 69 -36 l59 -28 -64
-7 c-49 -5 -73 -3 -104 10 -22 9 -42 19 -45 23 -5 6 -32 21 -110 63 -19 10
-42 23 -50 28 -8 5 -116 66 -240 135 -124 69 -232 130 -240 135 -8 5 -28 17
-45 25 -16 8 -48 25 -70 38 -22 13 -91 52 -152 86 l-113 63 -72 -38 c-40 -21
-95 -51 -123 -66 -27 -15 -63 -34 -80 -42 -16 -8 -64 -34 -105 -56 -41 -23
-120 -65 -175 -95 -55 -29 -152 -81 -215 -115 -63 -35 -149 -81 -190 -103 -41
-22 -88 -49 -105 -59 -21 -12 -50 -18 -92 -18 -60 0 -84 14 -45 26 19 6 45 20
202 101 58 30 110 59 115 63 9 7 43 25 265 143 52 28 97 53 100 57 3 3 21 12
40 20 19 8 55 26 80 40 25 14 60 32 78 39 17 7 32 17 32 22 0 5 4 9 10 9 5 0
61 25 122 55 107 53 116 55 170 51 32 -3 66 -10 75 -15z m-824 -588 c-7 -2
-19 -2 -25 0 -7 3 -2 5 12 5 14 0 19 -2 13 -5z m235 0 c-38 -2 -98 -2 -135 0
-38 2 -7 3 67 3 74 0 105 -1 68 -3z m170 0 c-15 -2 -42 -2 -60 0 -18 2 -6 4
27 4 33 0 48 -2 33 -4z m127 -3 c-3 -5 -12 -7 -20 -3 -21 7 -19 13 6 13 11 0
18 -4 14 -10z m83 3 c-10 -2 -26 -2 -35 0 -10 3 -2 5 17 5 19 0 27 -2 18 -5z
m82 -4 c-28 -5 -48 -5 -54 1 -7 7 9 10 45 9 l54 -1 -45 -9z m107 5 c-3 -3 -12
-4 -19 -1 -8 3 -5 6 6 6 11 1 17 -2 13 -5z"/>
<path d="M4815 4440 c-3 -5 -1 -10 4 -10 6 0 11 5 11 10 0 6 -2 10 -4 10 -3 0
-8 -4 -11 -10z"/>
<path d="M4775 4420 c-3 -6 1 -7 9 -4 18 7 21 14 7 14 -6 0 -13 -4 -16 -10z"/>
<path d="M4720 4390 c-8 -5 -10 -10 -5 -10 6 0 17 5 25 10 8 5 11 10 5 10 -5
0 -17 -5 -25 -10z"/>
<path d="M4634 4345 c-18 -13 -18 -14 4 -8 12 3 25 9 28 14 8 14 -10 11 -32
-6z"/>
<path d="M4570 4310 c-8 -5 -10 -10 -5 -10 6 0 17 5 25 10 8 5 11 10 5 10 -5
0 -17 -5 -25 -10z"/>
<path d="M4420 4230 c-8 -5 -10 -10 -5 -10 6 0 17 5 25 10 8 5 11 10 5 10 -5
0 -17 -5 -25 -10z"/>
<path d="M4255 4140 c-3 -6 1 -7 9 -4 18 7 21 14 7 14 -6 0 -13 -4 -16 -10z"/>
<path d="M7340 3996 c-107 -51 -229 -109 -270 -128 -41 -19 -132 -61 -202 -94
l-127 -59 32 -17 c18 -9 44 -17 60 -18 15 0 27 -4 27 -8 0 -15 -24 -32 -47
-32 -13 0 -23 -6 -23 -14 0 -12 -22 -15 -107 -18 -142 -4 -2205 8 -2766 17
-311 4 -437 3 -432 -4 3 -6 17 -8 31 -5 43 11 26 -12 -56 -76 -25 -19 -54 -43
-65 -53 -10 -9 -26 -15 -33 -12 -10 4 -12 0 -8 -11 6 -15 -4 -15 -50 3 -6 2
-17 -3 -24 -12 -7 -8 -19 -15 -26 -15 -8 0 -14 -5 -14 -12 0 -6 -3 -8 -7 -4
-6 6 76 90 192 194 26 23 41 42 33 42 -9 0 -42 -26 -75 -57 -33 -32 -84 -78
-113 -103 -132 -112 -266 -235 -274 -251 -10 -21 -15 -23 -35 -10 -12 8 -8 17
20 48 79 88 438 423 454 423 9 0 47 15 83 34 133 67 247 128 257 137 5 5 -82
9 -226 9 -130 0 -520 3 -867 7 l-632 6 0 -29 c0 -16 -4 -44 -10 -63 -5 -19
-14 -68 -20 -110 -6 -42 -12 -85 -14 -96 -3 -22 102 -21 -1012 -16 l-392 1
-11 44 c-6 25 -11 56 -11 71 l0 25 -202 -2 -202 -3 -22 -180 c-12 -99 -31
-263 -43 -365 -36 -308 -71 -590 -82 -678 -6 -46 -9 -86 -5 -89 3 -3 13 0 22
8 13 11 18 11 21 2 6 -17 174 -18 190 -2 8 8 13 8 17 0 9 -14 169 -14 183 0 8
8 13 8 17 0 9 -14 183 -15 191 0 5 7 12 6 23 -3 10 -8 48 -15 95 -17 62 -2 78
0 83 13 5 14 8 14 27 1 30 -21 160 -21 177 0 12 14 15 14 30 0 21 -19 150 -21
168 -3 10 10 17 10 32 0 26 -16 162 -16 178 0 9 9 15 9 24 0 16 -16 160 -16
176 0 9 9 15 9 24 0 16 -16 152 -16 179 1 17 10 23 10 26 0 3 -9 29 -13 79
-13 41 0 84 6 95 13 17 10 23 10 26 0 6 -18 170 -18 176 0 3 10 9 10 26 0 11
-7 50 -13 86 -13 36 0 75 6 86 13 17 10 23 10 26 0 3 -7 14 -13 26 -13 20 1
20 2 5 13 -9 7 -40 71 -68 143 -28 71 -60 148 -71 171 -10 24 -19 47 -19 53 0
6 -4 18 -10 28 -10 17 -21 44 -92 237 -54 144 -72 194 -87 230 -6 17 -21 55
-33 85 -38 101 -60 155 -79 195 -18 38 -18 44 -4 98 17 65 20 123 6 131 -10 7
-14 -8 -32 -114 -6 -41 -16 -79 -21 -84 -13 -16 -10 45 8 131 9 43 19 94 23
113 l6 35 18 -25 c9 -13 17 -30 17 -36 0 -7 9 -29 19 -51 10 -21 31 -67 46
-103 24 -58 50 -119 76 -175 5 -11 15 -38 23 -60 8 -22 42 -107 76 -190 34
-82 88 -214 120 -293 31 -79 62 -148 69 -155 9 -9 126 -13 442 -15 l430 -4 -3
29 c-3 24 -7 28 -35 28 -18 1 -34 3 -36 5 -11 11 -110 201 -144 275 l-23 50
25 -30 c14 -16 25 -34 25 -39 0 -4 14 -28 30 -53 17 -24 30 -47 30 -51 0 -4
11 -24 24 -46 l23 -39 -5 79 c-2 44 -6 80 -7 82 -1 1 -13 -2 -27 -7 -19 -7
-25 -6 -25 5 0 8 6 13 14 10 8 -4 13 2 13 17 0 18 2 19 10 7 12 -18 11 -18 15
45 2 28 6 78 10 113 3 34 4 62 3 62 -2 0 -39 -27 -83 -59 -44 -33 -82 -58 -84
-56 -2 3 27 33 65 69 38 35 122 116 187 180 65 63 122 115 126 113 5 -1 17 9
27 21 l20 24 424 -1 c234 -1 558 -3 720 -6 162 -3 635 -8 1050 -11 415 -4 771
-7 790 -8 31 -1 35 -4 38 -31 2 -16 -2 -34 -10 -40 -23 -18 -37 -59 -34 -100
4 -50 5 -52 14 -40 10 14 7 12 607 415 378 253 368 245 363 287 l-3 31 -195
-92z m-4053 -856 c-1 -11 -7 -22 -15 -25 -7 -2 -11 -1 -9 3 2 4 7 15 10 25 8
23 16 22 14 -3z m-2361 -150 c3 -25 14 -78 23 -117 l18 -73 -119 0 c-86 0
-120 3 -122 13 -6 21 -24 212 -20 218 2 3 50 5 108 5 l105 -1 7 -45z m705 18
c7 -12 69 -197 69 -204 0 -2 -52 -4 -115 -4 l-114 0 -11 43 c-7 23 -20 72 -30
109 -10 36 -16 68 -14 71 11 11 208 -3 215 -15z m1659 -26 c0 -15 -2 -15 -10
-2 -13 20 -13 33 0 25 6 -3 10 -14 10 -23z m-2560 -222 c0 -5 -11 -10 -25 -10
-14 0 -25 5 -25 10 0 6 11 10 25 10 14 0 25 -4 25 -10z m273 -7 c-7 -2 -21 -2
-30 0 -10 3 -4 5 12 5 17 0 24 -2 18 -5z m460 0 c-7 -2 -19 -2 -25 0 -7 3 -2
5 12 5 14 0 19 -2 13 -5z m283 -2 c-3 -5 -15 -7 -26 -4 -28 7 -25 13 6 13 14
0 23 -4 20 -9z"/>
<path d="M4125 4070 c-3 -6 1 -7 9 -4 18 7 21 14 7 14 -6 0 -13 -4 -16 -10z"/>
<path d="M4085 4050 c-3 -6 1 -7 9 -4 18 7 21 14 7 14 -6 0 -13 -4 -16 -10z"/>
<path d="M3955 3980 c-3 -6 1 -7 9 -4 18 7 21 14 7 14 -6 0 -13 -4 -16 -10z"/>
<path d="M3880 3940 c-8 -5 -10 -10 -5 -10 6 0 17 5 25 10 8 5 11 10 5 10 -5
0 -17 -5 -25 -10z"/>
<path d="M3830 3910 c-9 -6 -10 -10 -3 -10 6 0 15 5 18 10 8 12 4 12 -15 0z"/>
<path d="M7190 3614 c-190 -128 -352 -237 -360 -241 -8 -4 -19 -11 -25 -16 -5
-4 -63 -44 -127 -88 l-118 -80 0 -225 0 -224 223 0 c122 0 232 -3 245 -6 13
-4 22 -14 22 -26 0 -18 -7 -19 -125 -16 -69 2 -125 0 -125 -4 0 -5 45 -8 101
-8 71 0 100 -3 97 -11 -3 -8 -36 -11 -102 -10 -80 2 -102 -1 -117 -15 -17 -15
-19 -15 -25 0 -5 13 -22 16 -94 16 -49 0 -91 -3 -93 -7 -2 -5 -1 -19 4 -33 4
-14 7 -19 8 -11 1 10 11 12 44 6 23 -3 56 -9 72 -12 55 -9 59 -29 62 -328 4
-309 5 -320 33 -305 11 6 46 15 77 21 32 5 70 15 86 21 l27 10 2 172 c1 94 2
189 3 211 0 51 -20 92 -48 100 -52 14 -157 59 -157 67 0 5 8 18 19 29 l19 20
105 -30 105 -31 256 0 256 0 0 180 0 180 -362 2 c-301 3 -362 5 -366 17 -4 12
49 13 362 8 l366 -6 0 455 c0 249 -1 454 -2 453 -2 0 -158 -106 -348 -235z"/>
<path d="M2096 3664 c-9 -24 -7 -28 9 -14 17 14 20 30 6 30 -5 0 -12 -7 -15
-16z"/>
<path d="M2112 3621 c-13 -18 -18 -32 -12 -36 6 -3 10 1 10 9 0 8 7 19 16 24
9 5 15 15 13 21 -3 7 -14 -1 -27 -18z"/>
<path d="M2127 3584 c-22 -29 -14 -47 8 -18 12 16 20 45 13 44 -2 0 -11 -12
-21 -26z"/>
<path d="M3418 3573 c7 -3 16 -2 19 1 4 3 -2 6 -13 5 -11 0 -14 -3 -6 -6z"/>
<path d="M2141 3537 c-8 -16 -10 -34 -4 -56 l8 -32 24 31 c12 17 20 35 16 38
-4 4 -11 -1 -16 -11 -6 -9 -14 -17 -19 -17 -18 0 -10 30 10 42 23 15 26 28 7
28 -8 0 -19 -10 -26 -23z"/>
<path d="M3387 3546 c-3 -8 0 -17 7 -19 10 -4 12 1 9 14 -6 23 -9 24 -16 5z"/>
<path d="M3355 3510 c-3 -5 -1 -10 4 -10 6 0 11 5 11 10 0 6 -2 10 -4 10 -3 0
-8 -4 -11 -10z"/>
<path d="M3743 3502 c-10 -10 -13 -71 -13 -268 l0 -254 40 0 40 0 0 125 c0
108 2 125 18 134 13 8 14 11 2 11 -12 0 -11 3 3 11 9 5 17 19 17 29 0 25 33
42 73 37 30 -4 29 -4 -7 -5 l-39 -2 7 -92 c3 -50 6 -131 6 -180 l0 -88 35 0
35 0 1 168 c1 92 1 172 0 179 -1 6 2 14 7 17 12 7 22 -103 22 -246 l0 -118
145 0 c140 0 145 1 145 21 0 11 -7 27 -15 36 -12 12 -13 18 -4 29 6 8 9 21 5
29 -3 8 -1 15 5 15 7 0 9 64 7 194 -2 107 0 192 5 189 4 -2 7 3 7 11 0 9 -1
17 -2 17 -2 1 -122 4 -267 8 -213 5 -267 3 -278 -7z m97 -42 c0 -5 -14 -10
-31 -10 -17 0 -28 4 -24 10 3 6 17 10 31 10 13 0 24 -4 24 -10z m137 -112 c-3
-8 -6 -5 -6 6 -1 11 2 17 5 13 3 -3 4 -12 1 -19z m-135 -20 c-12 -12 -70 -18
-87 -9 -5 3 13 9 40 12 28 3 52 7 55 7 2 1 -1 -3 -8 -10z m398 -268 c0 -5 -14
-10 -31 -10 -17 0 -28 4 -24 10 3 6 17 10 31 10 13 0 24 -4 24 -10z m-115 -65
c0 -5 -10 -11 -22 -13 -16 -2 -23 2 -23 13 0 11 7 15 23 13 12 -2 22 -7 22
-13z"/>
<path d="M3520 3460 c-25 -22 -48 -40 -51 -40 -3 0 -17 -10 -31 -23 -13 -13
-40 -35 -59 -50 -31 -24 -32 -27 -17 -39 16 -11 19 -41 24 -239 l7 -226 31 2
30 2 2 215 c1 222 10 285 33 217 20 -63 38 -189 27 -190 -6 -1 2 -4 18 -8 37
-8 47 -31 14 -31 -22 0 -24 -4 -20 -30 3 -24 9 -30 28 -30 22 0 24 4 25 58 1
31 3 86 5 122 2 36 1 72 -3 80 -3 8 -5 61 -3 116 1 65 -2 104 -9 109 -6 3 -9
11 -6 16 11 17 0 9 -45 -31z"/>
<path d="M4432 3488 c-17 -17 -17 -404 1 -411 10 -3 10 -9 0 -26 -7 -11 -13
-36 -13 -55 0 -32 2 -34 43 -39 23 -3 163 -6 311 -7 263 -1 269 -1 283 20 18
26 69 25 67 -1 -1 -15 20 -17 175 -21 97 -3 179 -3 184 -1 4 2 7 61 8 131 1
119 13 252 19 207 1 -11 5 -92 9 -180 6 -159 6 -160 30 -163 13 -2 27 0 32 5
4 4 9 86 9 181 1 100 6 172 11 172 5 0 12 -13 15 -30 4 -16 10 -27 15 -24 5 3
9 -23 10 -58 0 -35 1 -97 2 -138 l2 -75 40 0 40 0 1 205 c0 140 5 218 14 247
24 77 76 71 -647 73 -502 0 -651 -2 -661 -12z m428 -38 c0 -5 -16 -10 -36 -10
-21 0 -33 4 -29 10 3 6 19 10 36 10 16 0 29 -4 29 -10z m-23 -46 c-3 -3 -12
-4 -19 -1 -8 3 -5 6 6 6 11 1 17 -2 13 -5z m-184 -71 c-7 -2 -21 -2 -30 0 -10
3 -4 5 12 5 17 0 24 -2 18 -5z m7 -28 c0 -9 -9 -15 -25 -15 -16 0 -25 6 -25
15 0 9 9 15 25 15 16 0 25 -6 25 -15z m720 -5 c0 -5 -14 -10 -31 -10 -17 0
-28 4 -24 10 3 6 17 10 31 10 13 0 24 -4 24 -10z m-850 -44 c0 -3 -4 -8 -10
-11 -5 -3 -10 -1 -10 4 0 6 5 11 10 11 6 0 10 -2 10 -4z m560 -106 c0 -5 -11
-10 -25 -10 -14 0 -25 5 -25 10 0 6 11 10 25 10 14 0 25 -4 25 -10z m-352 -67
c5 -18 -28 -29 -38 -12 -5 7 -6 17 -3 22 7 12 35 5 41 -10z m-70 -22 c-5 -23
-29 -20 -38 5 -7 18 -5 20 16 16 16 -3 24 -10 22 -21z m247 0 c3 -5 2 -12 -3
-15 -12 -7 -52 4 -52 15 0 12 47 12 55 0z m-175 -31 c0 -13 -7 -20 -20 -20
-13 0 -20 7 -20 20 0 13 7 20 20 20 13 0 20 -7 20 -20z m-160 -20 c0 -13 -5
-18 -15 -14 -12 5 -13 10 -4 20 15 19 19 18 19 -6z m200 -19 c0 -12 -21 -19
-37 -13 -22 8 -14 22 12 22 14 0 25 -4 25 -9z m638 -3 c-6 -18 -28 -21 -28 -4
0 9 7 16 16 16 9 0 14 -5 12 -12z"/>
<path d="M5886 3474 c-3 -9 -6 -126 -6 -260 l0 -244 25 0 c17 0 25 6 25 18 0
9 5 24 10 32 7 11 10 5 10 -22 0 -37 -1 -38 -35 -38 -19 0 -35 -4 -35 -10 0
-5 17 -10 39 -10 l39 0 4 148 c3 103 9 155 19 172 13 24 14 20 20 -60 4 -47 7
-124 8 -172 l1 -88 35 0 35 0 2 173 c3 170 3 172 26 175 18 3 22 -2 23 -25 1
-15 4 -95 8 -178 l6 -150 128 0 129 0 0 239 c0 190 3 243 14 254 8 7 14 24 14
38 l0 24 -269 0 c-236 0 -270 -2 -275 -16z"/>
<path d="M2177 3460 c-20 -24 -21 -30 -4 -62 l13 -25 17 23 c24 32 22 52 -3
23 l-19 -24 -1 23 c0 12 7 25 15 28 15 6 21 34 7 34 -4 0 -15 -9 -25 -20z"/>
<path d="M2206 3368 c-15 -17 -17 -25 -7 -39 6 -10 11 -27 11 -36 1 -15 6 -12
25 10 30 34 33 58 5 32 -27 -24 -37 -12 -16 19 27 42 15 50 -18 14z"/>
<path d="M2242 3280 c-13 -17 -18 -31 -12 -35 13 -8 30 3 30 20 0 7 6 15 13
18 8 3 9 8 2 15 -7 6 -17 0 -33 -18z"/>
<path d="M2263 3233 c-11 -10 -18 -25 -15 -33 3 -8 9 -25 13 -38 l9 -23 24 28
c13 15 21 33 19 41 -4 9 -9 7 -20 -8 -8 -11 -18 -20 -24 -20 -17 0 -9 29 11
40 20 11 27 30 12 30 -5 0 -18 -8 -29 -17z"/>
<path d="M2302 3144 c-16 -19 -20 -30 -12 -42 9 -15 9 -16 10 -1 0 9 10 23 23
32 15 10 19 18 12 26 -7 7 -17 2 -33 -15z"/>
<path d="M2323 3099 c-23 -27 -30 -49 -15 -49 4 0 13 9 20 20 7 12 17 18 22
15 11 -7 12 2 2 26 -6 13 -11 11 -29 -12z"/>
<path d="M2343 3047 c-20 -20 -31 -47 -18 -47 8 0 55 51 55 60 0 16 -13 11
-37 -13z"/>
<path d="M2363 3002 c-29 -29 -32 -58 -4 -41 24 16 41 43 33 55 -4 5 -17 -1
-29 -14z"/>
<path d="M2381 2950 c-13 -12 -21 -26 -17 -35 4 -12 10 -10 31 11 41 41 30 60
-14 24z"/>
<path d="M3510 2951 c0 -20 18 -31 51 -31 14 0 19 7 19 25 0 22 -4 25 -35 25
-28 0 -35 -4 -35 -19z"/>
<path d="M3753 2963 c15 -2 37 -2 50 0 12 2 0 4 -28 4 -27 0 -38 -2 -22 -4z"/>
<path d="M5640 2950 c0 -5 18 -10 39 -10 22 0 43 5 46 10 4 6 -12 10 -39 10
-25 0 -46 -4 -46 -10z"/>
<path d="M2401 2895 c-34 -33 -22 -50 14 -21 20 16 27 28 20 34 -6 6 -18 2
-34 -13z"/>
<path d="M3732 2798 l3 -123 35 0 34 0 2 123 1 122 -39 0 -39 0 3 -122z m45
-20 c-3 -7 -5 -2 -5 12 0 14 2 19 5 13 2 -7 2 -19 0 -25z"/>
<path d="M3891 2753 l1 -168 -81 -3 c-143 -5 -87 -24 99 -34 l45 -3 3 188 3
187 -36 0 -36 0 2 -167z"/>
<path d="M4002 2734 l3 -186 135 0 c156 1 147 -6 142 112 l-4 69 -29 -6 c-23
-4 -29 -2 -29 11 0 13 7 17 28 14 l27 -3 3 88 3 87 -141 0 -140 0 2 -186z m45
104 c-3 -8 -6 -5 -6 6 -1 11 2 17 5 13 3 -3 4 -12 1 -19z m19 -42 c-8 -6 -17
-27 -19 -46 -3 -27 -4 -23 -5 17 -2 47 0 51 18 46 17 -5 18 -7 6 -17z"/>
<path d="M4422 2886 c1 -31 5 -36 25 -36 14 0 23 -6 23 -15 0 -8 -9 -15 -20
-15 -19 0 -20 -7 -20 -139 l0 -139 42 0 c23 -1 48 4 55 9 6 6 47 13 90 15 43
3 89 8 103 10 49 11 -5 24 -103 25 l-96 1 3 64 c3 60 16 105 16 56 0 -30 11
-28 42 8 14 17 36 30 47 30 25 0 26 -8 6 -34 -16 -21 -20 -62 -7 -69 4 -3 21
-8 39 -11 24 -6 36 -3 52 13 15 15 37 20 98 24 43 2 87 7 99 11 19 7 22 3 27
-39 4 -26 4 -51 1 -56 -3 -5 -33 -10 -67 -10 l-62 -2 59 -7 c39 -5 65 -14 75
-27 11 -13 29 -18 61 -18 l45 0 0 189 0 189 -317 4 -317 4 1 -35z m47 -241 c1
-31 -2 -45 -8 -40 -6 3 -11 26 -11 51 0 59 15 49 19 -11z m551 -61 c0 -19 -4
-34 -9 -34 -10 0 -18 38 -13 63 6 29 22 8 22 -29z"/>
<path d="M5125 2912 c-10 -10 -4 -372 6 -372 10 0 19 34 17 65 -1 11 -1 48 0
81 l2 62 33 1 c17 0 41 0 52 0 35 0 39 0 85 11 25 6 51 11 58 12 7 1 13 17 13
37 2 48 27 -108 28 -171 l1 -48 -120 0 c-66 0 -120 -4 -120 -9 0 -12 50 -19
149 -19 66 0 86 -4 93 -16 5 -9 20 -16 33 -16 l25 0 0 180 c0 99 0 183 0 188
0 4 -69 8 -152 9 -84 2 -163 4 -175 6 -13 2 -25 2 -28 -1z"/>
<path d="M5532 2730 c2 -98 5 -181 8 -183 3 -3 47 -7 98 -8 82 -4 92 -2 92 14
0 15 -10 17 -76 17 l-76 0 3 167 4 168 -29 2 -28 2 4 -179z m31 -160 c3 -11 1
-20 -4 -20 -5 0 -9 9 -9 20 0 11 2 20 4 20 2 0 6 -9 9 -20z"/>
<path d="M5650 2902 c-6 -2 -8 -7 -6 -11 3 -4 6 -55 7 -114 1 -60 6 -110 10
-112 4 -3 21 -2 39 1 l31 7 -3 109 c-3 100 -2 109 15 104 9 -2 17 0 17 4 0 8
-92 18 -110 12z m70 -209 c0 -7 -7 -13 -16 -13 -11 0 -14 5 -10 16 3 9 6 21 6
27 0 16 20 -14 20 -30z"/>
<path d="M5880 2784 c0 -114 2 -125 18 -122 15 3 17 18 20 116 3 107 4 112 24
112 31 0 19 6 -24 13 l-38 6 0 -125z"/>
<path d="M6015 2738 l0 -163 -67 -3 c-59 -3 -68 -5 -68 -22 0 -23 15 -34 33
-23 6 4 38 6 70 4 l57 -3 0 50 c0 35 4 52 15 56 11 4 15 21 15 66 0 47 3 60
15 60 8 0 15 9 15 20 0 16 -7 20 -32 21 -22 1 -26 3 -11 6 17 3 22 13 25 49
l3 44 -35 0 -35 0 0 -162z"/>
<path d="M6150 2866 c0 -49 22 -64 66 -43 19 10 41 17 49 17 9 0 13 11 13 30
l-1 30 -64 0 -63 0 0 -34z"/>
<path d="M6338 2888 c8 -8 17 -8 34 0 22 10 21 11 -11 11 -27 1 -32 -2 -23
-11z"/>
<path d="M6410 2890 c0 -5 5 -10 10 -10 6 0 10 5 10 10 0 6 -4 10 -10 10 -5 0
-10 -4 -10 -10z"/>
<path d="M3563 2878 c-14 -17 -4 -130 11 -125 13 4 21 116 8 129 -5 5 -13 4
-19 -4z"/>
<path d="M6363 2856 c-19 -9 -23 -19 -23 -57 0 -25 2 -48 5 -51 3 -2 19 -3 36
0 30 4 30 5 27 60 -3 59 -10 66 -45 48z"/>
<path d="M2422 2841 c-21 -17 -30 -41 -16 -41 9 0 54 44 54 53 0 12 -16 8 -38
-12z"/>
<path d="M6305 2840 c4 -6 11 -8 16 -5 14 9 11 15 -7 15 -8 0 -12 -5 -9 -10z"/>
<path d="M3461 2811 c-16 -12 -22 -24 -18 -35 7 -18 47 -22 47 -5 0 5 -4 7
-10 4 -5 -3 -10 0 -10 9 0 8 5 16 12 18 6 2 9 9 7 16 -3 7 -12 5 -28 -7z"/>
<path d="M6215 2800 c-65 -22 -66 -43 -1 -52 28 -4 53 -5 58 -2 10 6 11 62 1
67 -5 2 -30 -4 -58 -13z"/>
<path d="M2448 2792 c-30 -18 -33 -28 -18 -52 8 -12 10 -12 10 -1 0 7 9 22 21
32 30 26 20 41 -13 21z"/>
<path d="M6135 2770 c-3 -5 -1 -10 4 -10 6 0 11 5 11 10 0 6 -2 10 -4 10 -3 0
-8 -4 -11 -10z"/>
<path d="M2463 2737 c-21 -21 -21 -25 -9 -62 17 -49 28 -53 43 -15 11 29 10
30 -13 24 -18 -5 -24 -2 -24 11 0 9 9 19 20 22 11 3 20 14 20 24 0 24 -10 23
-37 -4z"/>
<path d="M3358 2713 c7 -3 16 -2 19 1 4 3 -2 6 -13 5 -11 0 -14 -3 -6 -6z"/>
<path d="M6570 2688 c0 -4 42 -7 93 -7 101 2 93 6 -20 11 -40 2 -73 0 -73 -4z"/>
<path d="M3560 2680 c0 -5 5 -10 10 -10 6 0 10 5 10 10 0 6 -4 10 -10 10 -5 0
-10 -4 -10 -10z"/>
<path d="M3095 2669 c105 -4 214 -9 244 -11 37 -2 55 1 58 10 4 9 -49 12 -244
10 l-248 -1 190 -8z"/>
<path d="M3450 2666 c0 -8 5 -18 10 -21 6 -3 10 3 10 14 0 12 -4 21 -10 21 -5
0 -10 -6 -10 -14z"/>
<path d="M4540 2656 c0 -9 5 -16 10 -16 6 0 10 4 10 9 0 6 -4 13 -10 16 -5 3
-10 -1 -10 -9z"/>
<path d="M2493 2618 c-6 -9 -4 -28 8 -58 l17 -45 -1 57 c-2 59 -7 68 -24 46z"/>
<path d="M2600 2595 c-1 0 -2 -46 -3 -103 l-2 -102 25 0 c14 0 36 7 48 16 24
16 58 12 47 -6 -4 -6 6 -10 24 -10 17 0 31 -2 31 -4 0 -20 -43 -98 -57 -103
-10 -4 -35 -20 -57 -37 -36 -29 -38 -34 -32 -72 3 -25 1 -45 -7 -53 -7 -7 -13
-60 -15 -141 -5 -137 0 -172 20 -152 7 7 45 12 95 12 l83 0 0 160 0 160 220 0
220 0 2 -327 3 -328 27 -3 c22 -3 27 -8 25 -25 -2 -20 3 -22 48 -22 44 0 50 3
53 22 2 15 13 25 30 30 15 3 30 11 34 17 4 6 7 138 7 294 -1 156 2 286 6 290
16 16 35 -35 35 -95 0 -35 4 -63 9 -63 5 0 8 -10 7 -23 -2 -13 1 -34 7 -48 5
-13 8 -50 7 -81 -1 -36 3 -58 9 -58 7 0 11 31 11 83 l0 84 53 23 c63 28 127
56 147 64 8 3 2 3 -15 0 -16 -3 -43 -12 -60 -19 -102 -46 -125 -53 -125 -42 0
7 13 18 29 25 36 16 46 52 35 131 -4 31 -6 64 -5 74 1 11 -11 31 -28 46 -20
18 -31 37 -31 54 0 15 -3 27 -6 27 -4 0 -46 -22 -94 -50 -49 -27 -100 -52
-114 -56 -25 -6 -26 -4 -25 32 3 87 7 92 119 160 58 35 111 68 118 75 17 14 7
25 -10 11 -7 -5 -40 -25 -73 -42 -33 -18 -67 -39 -76 -46 -8 -8 -20 -14 -25
-14 -5 0 -9 48 -9 107 l0 108 -175 7 c-127 5 -489 13 -590 13z m947 -451 c-3
-3 -12 -4 -19 -1 -8 3 -5 6 6 6 11 1 17 -2 13 -5z m40 0 c-3 -3 -12 -4 -19 -1
-8 3 -5 6 6 6 11 1 17 -2 13 -5z m-12 -164 c-3 -5 -10 -10 -16 -10 -5 0 -9 5
-9 10 0 6 7 10 16 10 8 0 12 -4 9 -10z"/>
<path d="M3457 2583 c-4 -3 -7 -37 -7 -75 0 -50 4 -68 13 -68 28 0 41 66 28
143 -1 9 -25 9 -34 0z"/>
<path d="M3560 2539 c0 -36 2 -40 15 -29 8 7 15 25 15 41 0 19 -5 29 -15 29
-11 0 -15 -11 -15 -41z"/>
<path d="M6643 2563 c-89 -4 -96 -10 -66 -53 15 -21 18 -49 19 -168 1 -108 -2
-145 -13 -153 -17 -15 -17 -35 2 -43 12 -4 15 -26 15 -107 l0 -101 48 6 c91
13 82 -21 82 322 0 167 -1 303 -2 302 -2 -1 -40 -4 -85 -5z"/>
<path d="M6167 2545 c7 -20 104 -17 111 3 3 9 -13 12 -57 12 -50 0 -59 -3 -54
-15z"/>
<path d="M6346 2545 c4 -9 19 -15 35 -15 19 0 29 5 29 15 0 10 -11 15 -35 15
-26 0 -33 -3 -29 -15z"/>
<path d="M3756 2503 c-3 -4 -6 -12 -6 -20 0 -10 20 -13 81 -13 71 0 80 2 77
18 -3 14 -15 17 -75 19 -39 1 -74 -1 -77 -4z"/>
<path d="M3930 2490 c0 -13 7 -20 20 -20 18 0 19 3 10 20 -6 11 -15 20 -20 20
-6 0 -10 -9 -10 -20z"/>
<path d="M3997 2491 c-5 -19 -1 -21 49 -21 41 0 54 4 54 15 0 8 -8 15 -19 15
-10 0 -32 3 -48 6 -25 5 -31 2 -36 -15z"/>
<path d="M4468 2499 c-36 -21 -16 -29 67 -29 69 0 85 3 85 15 0 11 -12 15 -47
15 -27 0 -57 2 -68 5 -11 3 -28 0 -37 -6z"/>
<path d="M4130 2485 c0 -12 14 -15 70 -15 58 0 68 3 64 15 -5 11 -22 15 -70
15 -50 0 -64 -3 -64 -15z"/>
<path d="M4650 2485 c0 -12 14 -15 68 -16 37 0 77 -2 90 -3 12 -2 22 2 22 8 0
7 -20 11 -47 11 -27 0 -67 3 -90 8 -35 6 -43 4 -43 -8z"/>
<path d="M4942 2483 c5 -26 111 -25 116 0 3 15 -6 17 -58 17 -53 0 -61 -2 -58
-17z"/>
<path d="M5130 2478 c0 -10 5 -18 10 -18 6 0 10 5 10 11 0 8 5 8 15 -1 12 -10
15 -10 15 1 0 11 2 11 9 0 8 -12 12 -12 25 -2 11 9 30 11 61 7 37 -6 45 -4 45
8 0 13 -15 15 -95 14 -85 -1 -95 -3 -95 -20z"/>
<path d="M5346 2493 c-3 -3 -2 -11 1 -19 6 -17 43 -19 43 -2 0 9 3 9 12 0 7
-7 29 -12 50 -12 31 0 38 4 38 20 0 18 -6 19 -70 18 -38 0 -72 -3 -74 -5z"/>
<path d="M5560 2481 c0 -20 6 -21 80 -21 61 0 80 3 80 14 0 17 -19 22 -97 25
-58 2 -63 1 -63 -18z"/>
<path d="M5910 2475 c0 -11 13 -15 54 -15 30 0 61 -3 70 -6 12 -4 16 0 16 15
0 19 -5 21 -70 21 -56 0 -70 -3 -70 -15z"/>
<path d="M6160 2470 c0 -17 7 -20 40 -20 33 0 40 3 40 20 0 17 -7 20 -40 20
-33 0 -40 -3 -40 -20z"/>
<path d="M6266 2474 c-9 -22 -8 -24 9 -24 8 0 15 9 15 20 0 24 -15 27 -24 4z"/>
<path d="M6340 2475 c0 -8 14 -17 34 -21 40 -7 58 0 49 22 -4 11 -9 12 -18 4
-9 -8 -15 -8 -20 0 -9 15 -45 12 -45 -5z"/>
<path d="M4860 2471 c0 -5 11 -8 25 -7 33 1 33 16 0 16 -14 0 -25 -4 -25 -9z"/>
<path d="M7025 2470 c-15 -7 -10 -9 23 -9 23 -1 42 4 42 9 0 12 -37 12 -65 0z"/>
<path d="M7132 2468 c5 -15 408 -25 408 -10 0 5 -68 12 -152 15 -223 10 -260
9 -256 -5z"/>
<path d="M6095 2460 c3 -5 10 -10 16 -10 5 0 9 5 9 10 0 6 -7 10 -16 10 -8 0
-12 -4 -9 -10z"/>
<path d="M6538 2443 c6 -2 18 -2 25 0 6 3 1 5 -13 5 -14 0 -19 -2 -12 -5z"/>
<path d="M3650 2400 c0 -6 7 -10 15 -10 8 0 15 2 15 4 0 2 -7 6 -15 10 -8 3
-15 1 -15 -4z"/>
<path d="M6410 2385 c0 -8 9 -15 20 -15 24 0 27 15 4 24 -22 9 -24 8 -24 -9z"/>
<path d="M7089 2374 c-2 -5 -3 -84 -1 -176 l3 -168 37 0 37 0 -2 -155 c-1 -86
2 -174 6 -198 5 -23 9 -36 10 -29 1 7 15 12 33 12 18 0 71 9 118 19 47 11 112
24 145 28 l60 8 3 328 2 327 -157 0 c-87 0 -188 3 -224 6 -36 4 -68 3 -70 -2z"/>
<path d="M3790 2200 c-6 -12 -8 -29 -5 -40 3 -10 1 -21 -5 -25 -13 -8 -13
-105 0 -105 6 0 21 7 34 15 18 12 41 14 110 9 47 -4 86 -11 86 -15 0 -5 -8 -9
-18 -9 -14 0 -17 -7 -14 -40 3 -33 7 -38 18 -30 7 7 23 10 34 8 21 -3 22 -6
21 -190 -2 -184 -1 -188 19 -188 11 0 23 7 26 15 4 8 12 15 20 15 12 0 14 45
14 267 0 146 3 263 7 260 3 -4 8 -17 9 -30 1 -12 7 -42 13 -67 6 -25 10 -84
11 -132 0 -48 5 -90 10 -93 6 -3 10 -18 10 -33 0 -34 10 -47 35 -47 11 0 21
-8 23 -18 3 -14 -2 -18 -20 -16 -13 1 -32 1 -43 0 -17 -1 -17 -3 -5 -11 12 -7
12 -12 2 -22 -18 -18 -15 -30 8 -23 11 4 29 0 42 -9 18 -13 19 -16 5 -16 -10
0 -17 -8 -17 -21 0 -18 5 -20 53 -17 l52 3 0 312 0 313 -262 0 c-254 0 -263
-1 -273 -20z m100 -65 c0 -19 -9 -19 -34 0 -19 14 -19 15 7 15 17 0 27 -5 27
-15z m303 8 c-7 -2 -19 -2 -25 0 -7 3 -2 5 12 5 14 0 19 -2 13 -5z m54 1 c-3
-3 -12 -4 -19 -1 -8 3 -5 6 6 6 11 1 17 -2 13 -5z m-357 -54 c0 -11 -4 -20 -9
-20 -11 0 -22 26 -14 34 12 12 23 5 23 -14z m408 -123 c3 -15 -1 -17 -24 -11
-20 5 -30 2 -40 -10 -11 -16 -13 -16 -19 6 -4 13 -13 26 -19 31 -6 4 14 6 44
5 43 -2 56 -7 58 -21z m-41 -39 c-3 -8 -6 -5 -6 6 -1 11 2 17 5 13 3 -3 4 -12
1 -19z m43 -198 c0 -5 -7 -10 -15 -10 -8 0 -15 5 -15 10 0 6 7 10 15 10 8 0
15 -4 15 -10z m-58 -45 c0 -5 -5 -11 -11 -13 -6 -2 -11 4 -11 13 0 9 5 15 11
13 6 -2 11 -8 11 -13z m38 5 c0 -5 -5 -10 -11 -10 -5 0 -7 5 -4 10 3 6 8 10
11 10 2 0 4 -4 4 -10z"/>
<path d="M4438 2163 c-3 -32 -3 -172 0 -311 5 -266 7 -274 50 -257 15 6 15 8
-5 15 -15 6 -20 15 -16 29 3 12 12 21 19 21 9 0 14 12 14 34 0 30 -3 33 -22
28 -17 -4 -20 -2 -15 12 4 10 7 31 7 47 0 16 5 29 10 29 6 0 10 -14 10 -32 0
-17 3 -29 6 -25 3 3 10 72 15 154 5 81 13 171 18 198 8 48 8 46 11 -40 1 -49
5 -178 9 -285 l6 -195 98 -3 c92 -3 97 -2 97 18 0 11 5 20 10 20 6 0 10 81 10
224 0 135 4 227 10 231 5 3 12 -4 14 -17 18 -80 29 -200 30 -307 1 -86 5 -126
13 -128 7 -3 10 -10 7 -17 -4 -10 18 -15 87 -19 97 -7 199 0 199 14 0 5 -4 9
-9 9 -5 0 -11 16 -13 35 -3 24 -1 31 7 25 15 -13 25 -2 25 26 0 25 -15 40 -25
24 -3 -5 -37 -10 -75 -10 -71 0 -91 -10 -69 -36 18 -21 -1 -36 -42 -32 -28 2
-34 7 -36 28 0 14 5 38 13 54 8 16 14 39 15 50 1 14 4 11 10 -12 5 -18 14 -30
20 -26 5 3 15 1 22 -5 13 -10 75 -12 92 -2 6 3 17 6 25 6 10 0 16 12 18 35 4
35 4 35 17 11 12 -23 13 -21 19 35 3 32 8 103 12 157 3 53 10 97 15 97 12 0
11 15 18 -250 6 -234 6 -235 29 -238 l22 -3 0 185 0 186 266 0 265 0 -3 128
-3 129 -410 6 c-225 4 -523 7 -661 7 l-252 0 -4 -57z m32 -183 c0 -5 -4 -10
-10 -10 -5 0 -10 5 -10 10 0 6 5 10 10 10 6 0 10 -4 10 -10z m488 -6 c7 -2 10
-8 7 -14 -4 -6 6 -10 24 -10 21 0 31 -5 31 -15 0 -11 -11 -15 -39 -15 -22 0
-43 -5 -47 -12 -5 -8 -2 -9 9 -5 14 5 15 2 7 -18 -5 -14 -6 -24 -1 -22 5 1 9
-1 10 -5 1 -5 -1 -7 -2 -5 -2 1 -11 -4 -20 -11 -19 -16 -31 -1 -22 28 9 30 -6
45 -45 45 -32 0 -35 3 -38 32 -3 29 -1 32 30 35 32 4 68 1 96 -8z m154 -6 c7
-21 -6 -61 -22 -66 -13 -5 -13 -3 0 12 12 16 12 19 -3 27 -9 6 -17 17 -17 24
0 18 36 20 42 3z m-12 -118 c0 -5 -2 -10 -4 -10 -3 0 -8 5 -11 10 -3 6 -1 10
4 10 6 0 11 -4 11 -10z"/>
<path d="M5887 2203 c-6 -11 -11 -112 -9 -190 l2 -63 85 0 85 0 0 -68 c0 -55
-4 -72 -19 -86 -18 -17 -20 -17 -30 1 -11 17 -11 17 -10 -2 1 -11 1 -36 0 -55
-3 -62 -23 -6 -24 65 -1 64 -1 64 -31 67 -42 4 -47 28 -4 28 45 0 56 -9 61
-50 3 -30 4 -29 5 12 l2 46 -60 4 -60 3 0 -167 0 -168 90 0 c70 0 90 3 90 14
0 16 21 26 59 26 26 0 26 2 26 58 0 56 0 57 28 54 18 -2 27 2 27 12 0 8 4 17
9 20 5 4 7 -11 4 -33 -3 -22 -2 -56 1 -75 6 -33 10 -36 41 -36 l35 0 0 80 c0
67 3 83 20 100 12 12 25 18 30 15 16 -10 57 13 63 35 8 31 -12 34 -100 15
-137 -30 -124 -44 -126 133 l-2 152 116 0 c112 0 117 1 122 22 4 12 4 25 1 28
-9 8 -522 12 -527 3z m152 -525 c0 -31 -1 -31 -10 -10 -5 13 -7 28 -3 33 10
16 14 9 13 -23z"/>
<path d="M165 2169 c-10 -15 3 -25 16 -12 7 7 7 13 1 17 -6 3 -14 1 -17 -5z"/>
<path d="M296 2171 c-4 -7 -5 -15 -2 -18 9 -9 19 4 14 18 -4 11 -6 11 -12 0z"/>
<path d="M2580 2149 c0 -5 5 -7 10 -4 6 3 10 8 10 11 0 2 -4 4 -10 4 -5 0 -10
-5 -10 -11z"/>
<path d="M329 2124 c-8 -10 -14 -56 -17 -135 l-4 -119 23 -1 c13 -1 33 0 43 1
16 1 18 -3 12 -30 -3 -18 -6 -48 -6 -66 0 -25 -4 -34 -16 -34 -14 0 -15 7 -10
40 6 37 4 40 -16 40 l-23 0 3 -197 c3 -189 4 -199 24 -216 14 -12 18 -21 11
-25 -8 -5 -11 -80 -10 -239 1 -213 6 -264 21 -215 8 27 11 476 3 489 -10 16
29 36 53 28 13 -4 20 -15 20 -31 0 -14 4 -22 10 -19 6 4 10 111 10 287 l0 281
242 -6 c133 -4 492 -7 799 -7 l559 0 2 -277 3 -278 23 -3 c20 -3 23 0 20 19
-2 17 4 27 25 37 18 9 27 21 27 38 0 19 5 24 24 24 14 0 28 -5 31 -10 4 -7 14
-5 28 5 17 12 22 25 22 67 0 44 3 53 19 56 19 4 19 3 3 -22 -17 -25 -17 -26 6
-26 29 0 47 -18 47 -47 0 -13 3 -22 8 -22 29 5 43 -2 37 -20 -7 -24 4 -51 21
-51 10 0 13 14 12 51 l-1 51 -32 -5 c-29 -5 -34 -3 -38 21 -8 42 2 54 40 50
29 -3 34 -1 40 20 6 25 47 47 71 37 22 -8 32 4 23 28 -6 14 -5 30 1 41 9 16 7
17 -13 11 -30 -9 -29 -8 -34 -35 -6 -31 -13 -36 -57 -48 -40 -11 -52 -4 -42
22 4 11 0 16 -14 16 -12 0 -23 -9 -27 -20 -3 -11 -14 -20 -24 -20 -9 0 -21 -4
-27 -9 -5 -5 -19 -12 -32 -16 -21 -6 -22 -5 -17 32 3 21 7 102 8 181 2 111 -1
142 -11 142 -7 0 -10 5 -7 11 4 5 10 35 14 64 l8 55 -31 4 c-17 3 -445 8 -952
11 -840 5 -922 4 -935 -11z m2041 -473 c0 -6 -4 -13 -10 -16 -5 -3 -10 1 -10
9 0 9 5 16 10 16 6 0 10 -4 10 -9z"/>
<path d="M2385 2104 c-16 -8 -32 -18 -35 -22 -10 -13 -69 -52 -80 -52 -5 0
-10 -7 -10 -15 0 -18 17 -19 35 -2 7 6 36 28 64 47 27 19 52 41 55 48 7 15 7
15 -29 -4z"/>
<path d="M6234 2101 c-2 -2 -1 -8 2 -12 7 -12 164 -11 164 0 0 9 -158 20 -166
12z"/>
<path d="M3033 2083 l-53 -4 0 -45 c0 -44 0 -44 35 -44 36 0 41 9 36 63 -1 9
3 17 8 17 6 0 11 -18 11 -41 0 -32 4 -42 20 -46 23 -6 27 -23 5 -23 -11 0 -15
-12 -15 -50 l0 -50 40 0 39 0 -2 113 -2 112 -35 1 c-19 0 -59 -1 -87 -3z"/>
<path d="M2909 2073 c-25 -4 -26 -5 -15 -44 8 -30 15 -39 32 -39 15 0 23 7 26
23 4 28 -1 67 -10 66 -4 -1 -19 -4 -33 -6z"/>
<path d="M2379 2021 c-27 -22 -18 -41 11 -23 11 6 22 8 25 3 3 -5 0 -11 -7
-13 -9 -3 -14 -45 -16 -141 -4 -128 -3 -137 14 -137 18 0 19 12 22 165 4 180
2 187 -49 146z"/>
<path d="M3858 2023 c6 -2 18 -2 25 0 6 3 1 5 -13 5 -14 0 -19 -2 -12 -5z"/>
<path d="M6995 2000 c-11 -4 -65 -17 -120 -28 -55 -12 -122 -26 -150 -32 -47
-10 -211 -39 -227 -40 -5 0 -8 -5 -8 -11 0 -7 14 -9 38 -6 71 9 207 36 257 50
48 14 117 29 199 45 22 4 41 13 44 20 4 14 -4 14 -33 2z"/>
<path d="M120 1991 c0 -5 5 -13 10 -16 6 -3 10 -2 10 4 0 5 -4 13 -10 16 -5 3
-10 2 -10 -4z"/>
<path d="M2900 1941 c0 -11 5 -23 10 -26 6 -3 10 0 10 7 0 10 2 10 9 -1 5 -7
6 -22 4 -32 -3 -10 -1 -19 5 -19 5 0 12 20 14 45 3 43 2 45 -24 45 -21 0 -28
-5 -28 -19z"/>
<path d="M2988 1916 c4 -40 7 -44 32 -48 27 -4 28 -3 32 44 l3 48 -35 0 -35 0
3 -44z"/>
<path d="M3780 1953 c-8 -3 -33 -13 -55 -23 -22 -10 -57 -23 -77 -29 -20 -7
-41 -17 -46 -24 -8 -10 -10 -70 -12 -337 l0 -35 -82 -24 -83 -24 1 -194 c1
-106 -3 -196 -7 -199 -5 -3 -9 5 -10 18 0 13 -1 41 -3 63 -1 22 -3 93 -4 158
-1 70 -6 117 -12 117 -11 0 -14 -302 -3 -314 4 -3 8 -17 10 -29 7 -49 29 -60
71 -37 16 9 65 20 247 56 39 8 78 17 88 20 15 5 17 24 17 221 l0 215 -22 -5
c-13 -4 -43 -9 -68 -12 -35 -4 -40 -3 -22 4 30 14 28 23 -4 15 -42 -11 -20 13
24 26 71 22 92 32 92 46 0 8 -1 14 -2 14 -2 0 -25 -7 -52 -15 -27 -8 -59 -15
-70 -14 -21 0 -21 0 0 9 12 5 28 17 36 28 7 11 30 27 51 35 22 10 37 23 37 33
0 12 -3 14 -12 6 -7 -5 -35 -15 -63 -21 -27 -7 -61 -15 -74 -18 -17 -4 -22 -2
-17 6 4 6 0 11 -9 11 -11 0 -15 -5 -11 -15 3 -8 1 -15 -4 -15 -6 0 -10 6 -10
14 0 14 50 42 115 66 64 24 85 35 85 49 0 9 -6 11 -17 6 -35 -14 -106 -35
-122 -35 -11 0 -10 3 5 15 22 17 12 20 -18 4 -11 -6 -22 -8 -25 -6 -3 3 21 17
54 32 32 14 66 30 75 36 10 5 25 9 33 9 9 0 15 9 15 21 0 16 -3 19 -12 12 -19
-14 -179 -65 -186 -59 -8 8 -3 11 48 30 30 11 35 15 15 11 -27 -4 -26 -3 10
14 22 10 59 26 83 36 54 23 56 48 2 28z m-70 -302 c0 -5 -7 -12 -16 -15 -24
-9 -28 -7 -14 9 14 17 30 20 30 6z m100 -140 c0 -5 -10 -11 -22 -13 -15 -2
-24 -11 -26 -25 -3 -17 -9 -22 -28 -21 -13 1 -24 6 -24 11 0 5 9 5 21 2 18 -6
20 -4 15 13 -5 16 -1 22 21 30 37 14 43 14 43 3z m0 -37 c0 -9 -7 -14 -17 -12
-25 5 -28 28 -4 28 12 0 21 -6 21 -16z m0 -69 c0 -20 -5 -25 -27 -25 -26 0
-26 1 -7 15 18 14 18 14 -6 15 -20 0 -22 2 -10 10 28 18 50 12 50 -15z m-67
-32 c-7 -2 -19 -2 -25 0 -7 3 -2 5 12 5 14 0 19 -2 13 -5z m59 -45 c-7 -7 -12
-8 -12 -2 0 14 12 26 19 19 2 -3 -1 -11 -7 -17z"/>
<path d="M5506 1913 l-228 -3 7 -23 c7 -24 11 -43 20 -99 5 -35 6 -36 46 -33
22 1 42 5 45 8 3 3 23 3 44 0 49 -7 72 1 64 22 -4 9 -13 14 -20 11 -8 -3 -14
-4 -14 -2 0 3 -3 11 -6 20 -4 11 0 16 11 16 10 0 24 8 31 18 12 15 13 10 14
-40 0 -45 3 -57 18 -61 16 -4 16 -5 0 -6 -10 0 -18 -7 -18 -14 0 -8 -6 -14
-12 -14 -7 0 -21 -4 -31 -8 -15 -6 -18 -4 -15 11 3 17 -5 19 -74 22 l-78 2 -2
-42 c-4 -124 -9 -113 46 -116 46 -3 48 -2 44 21 -4 22 -2 23 41 21 25 -1 50
-2 54 -3 4 -1 3 -10 -3 -21 -10 -19 -8 -20 64 -20 l74 0 1 148 c1 125 4 149
18 160 20 15 33 16 33 2 0 -5 -7 -10 -15 -10 -13 0 -15 -22 -14 -150 l1 -150
59 0 59 0 -4 168 c-4 127 -8 167 -18 167 -7 0 -116 -1 -242 -2z m-96 -111 c-7
-13 -9 -8 -9 23 0 35 1 37 10 17 6 -15 5 -30 -1 -40z m334 -41 c3 -5 -10 -11
-29 -13 -19 -2 -35 -1 -35 3 0 16 55 25 64 10z m-324 -55 c0 -3 -4 -8 -10 -11
-5 -3 -10 -1 -10 4 0 6 5 11 10 11 6 0 10 -2 10 -4z m-47 -83 c-7 -2 -19 -2
-25 0 -7 3 -2 5 12 5 14 0 19 -2 13 -5z m195 0 c-10 -2 -28 -2 -40 0 -13 2 -5
4 17 4 22 1 32 -1 23 -4z m179 1 c-3 -3 -12 -4 -19 -1 -8 3 -5 6 6 6 11 1 17
-2 13 -5z"/>
<path d="M6927 1902 c-25 -27 -23 -133 1 -155 36 -33 52 -13 52 69 0 94 -18
124 -53 86z"/>
<path d="M2011 1894 c0 -11 3 -14 6 -6 3 7 2 16 -1 19 -3 4 -6 -2 -5 -13z"/>
<path d="M510 1891 c0 -5 5 -11 11 -13 7 -2 12 -78 16 -213 4 -168 9 -214 21
-227 8 -10 19 -18 24 -18 5 0 16 -7 25 -15 12 -13 44 -15 194 -12 98 2 182 7
186 11 13 12 11 297 -1 293 -6 -2 -11 -15 -12 -28 -2 -50 -3 -54 -15 -42 -7 7
-9 29 -4 61 5 38 11 51 26 55 17 5 19 15 19 81 l0 76 -245 0 c-142 0 -245 -4
-245 -9z m320 -36 c0 -3 -9 -14 -20 -25 -21 -21 -50 -27 -50 -10 0 6 7 10 15
10 9 0 12 6 9 15 -5 11 1 15 20 15 14 0 26 -2 26 -5z m47 -118 c2 -2 4 -28 6
-58 2 -45 -1 -54 -16 -57 -13 -3 -21 4 -25 20 -6 21 -7 20 -13 -12 -6 -31 -7
-33 -14 -13 -4 13 -11 20 -16 17 -5 -3 -6 2 -3 10 4 12 0 16 -16 16 -17 0 -20
-4 -15 -20 4 -11 2 -20 -4 -20 -6 0 -11 11 -11 25 0 14 -4 25 -10 25 -5 0 -10
-9 -10 -19 0 -27 -17 -36 -43 -22 -12 6 -34 15 -49 21 -24 8 -28 15 -28 49 l0
40 58 4 c61 4 202 0 209 -6z m-64 -153 c28 -38 19 -68 -20 -72 -33 -3 -37 2
-34 38 6 65 24 76 54 34z m-31 -123 c11 -39 12 -36 -29 -44 -33 -6 -33 -6 -33
32 0 44 6 53 34 49 13 -2 23 -15 28 -37z"/>
<path d="M1026 1890 c-2 -3 1 -43 5 -90 4 -47 8 -116 9 -155 1 -38 4 -64 7
-57 11 28 73 -5 73 -39 0 -19 -24 -42 -33 -32 -4 3 -7 1 -7 -5 0 -20 -20 -13
-30 11 -6 16 -9 3 -9 -50 l-1 -72 100 -3 101 -3 -6 27 c-5 23 -2 27 24 33 16
3 39 1 50 -5 22 -11 28 -30 10 -30 -6 0 -9 -5 -7 -11 2 -7 38 -13 91 -16 l87
-4 0 253 0 253 -231 0 c-127 0 -232 -2 -233 -5z m364 -39 c0 -13 -47 -41 -70
-41 -11 0 -20 5 -20 10 0 6 9 10 20 10 11 0 20 7 20 15 0 9 9 15 25 15 14 0
25 -4 25 -9z m-55 -90 c3 -6 13 -10 23 -11 9 0 38 -3 65 -6 l47 -6 0 -54 c0
-30 -4 -54 -10 -54 -5 0 -10 5 -10 11 0 13 -36 2 -61 -19 -20 -17 -26 -52 -9
-52 15 0 12 -36 -5 -50 -39 -32 -82 30 -48 69 9 12 21 21 26 21 5 0 14 6 21
13 11 11 11 17 1 30 -13 18 -35 23 -35 8 0 -5 -5 -22 -10 -36 -8 -20 -14 -24
-23 -17 -7 6 -28 12 -47 14 -33 3 -35 5 -38 45 -4 53 11 83 43 83 13 0 27 5
30 10 8 13 32 13 40 1z m-164 -48 c0 -16 2 -38 5 -49 5 -32 -18 -47 -58 -36
-18 4 -32 11 -30 15 1 4 2 27 2 52 l0 45 40 0 c37 0 40 -2 41 -27z"/>
<path d="M3730 1889 c0 -5 5 -7 10 -4 6 3 10 8 10 11 0 2 -4 4 -10 4 -5 0 -10
-5 -10 -11z"/>
<path d="M1530 1640 c0 -207 2 -240 15 -240 8 0 15 5 15 10 0 6 -4 10 -9 10
-14 0 -12 150 2 151 7 0 52 1 101 1 64 1 91 -3 98 -13 5 -8 7 -46 6 -85 l-3
-71 84 -6 c50 -4 90 -2 97 4 6 5 19 7 28 3 14 -6 16 16 16 235 l0 241 -225 0
-225 0 0 -240z m318 208 c-3 -7 -13 -13 -23 -13 -10 0 -20 6 -22 13 -3 7 5 12
22 12 17 0 25 -5 23 -12z m-38 -27 c0 -12 -21 -19 -42 -13 -29 7 -21 22 12 22
17 0 30 -4 30 -9z"/>
<path d="M3108 1843 c-22 -3 -28 -10 -28 -29 0 -17 5 -24 20 -24 11 0 20 -4
20 -10 0 -5 0 -13 1 -17 0 -5 -10 -11 -23 -15 -17 -4 -11 -6 20 -7 l43 -1 -3
52 c-3 54 -6 57 -50 51z"/>
<path d="M2907 1822 c-23 -26 -21 -30 12 -28 39 2 45 9 23 29 -18 16 -20 16
-35 -1z"/>
<path d="M2990 1818 c0 -19 6 -23 30 -24 25 -1 30 3 30 22 0 20 -5 24 -30 24
-24 0 -30 -4 -30 -22z"/>
<path d="M6492 1807 c-15 -18 -22 -117 -11 -139 8 -14 6 -18 -8 -18 -10 0 -28
-3 -40 -6 -22 -6 -23 -4 -23 74 0 75 -10 107 -25 82 -3 -5 -20 -10 -36 -10
-19 0 -28 -4 -23 -11 3 -6 14 -9 24 -6 14 4 19 -4 23 -45 4 -28 12 -63 19 -79
11 -25 18 -29 55 -29 42 0 50 8 44 43 0 4 7 7 18 7 24 0 32 31 24 98 -6 52
-20 65 -41 39z"/>
<path d="M2614 1797 c-16 -9 -19 -17 -14 -32 9 -25 4 -35 -19 -35 -10 0 -23
-6 -29 -13 -9 -10 -6 -13 11 -14 49 -1 56 -4 60 -25 4 -20 4 -20 6 4 0 14 7
29 14 31 9 4 9 8 -2 15 -11 8 -11 14 3 33 30 44 15 62 -30 36z"/>
<path d="M2538 1783 c7 -3 16 -2 19 1 4 3 -2 6 -13 5 -11 0 -14 -3 -6 -6z"/>
<path d="M3008 1743 c12 -2 30 -2 40 0 9 3 -1 5 -23 4 -22 0 -30 -2 -17 -4z"/>
<path d="M3524 1688 c3 -18 5 -57 5 -85 1 -40 5 -53 16 -53 12 0 15 16 15 85
0 78 -2 85 -20 85 -17 0 -19 -5 -16 -32z"/>
<path d="M2875 1700 c4 -6 11 -8 16 -5 14 9 11 15 -7 15 -8 0 -12 -5 -9 -10z"/>
<path d="M2950 1690 c0 -16 -7 -20 -35 -20 l-35 0 -1 -67 c0 -38 -2 -103 -2
-146 -2 -85 3 -104 24 -91 19 11 33 13 111 15 36 1 71 -2 77 -6 6 -3 22 -8 36
-11 34 -6 38 17 32 167 -3 66 -1 134 3 150 l9 29 -110 0 c-102 0 -109 -1 -109
-20z m-10 -45 c0 -8 -4 -15 -10 -15 -5 0 -10 7 -10 15 0 8 5 15 10 15 6 0 10
-7 10 -15z"/>
<path d="M4910 1706 c0 -9 30 -14 35 -6 4 6 -3 10 -14 10 -12 0 -21 -2 -21 -4z"/>
<path d="M2390 1680 c0 -5 7 -10 15 -10 8 0 15 5 15 10 0 6 -7 10 -15 10 -8 0
-15 -4 -15 -10z"/>
<path d="M6577 1664 c-4 -4 -7 -16 -7 -26 0 -15 8 -18 44 -18 39 0 43 2 42 23
-1 18 -8 23 -36 25 -20 2 -39 0 -43 -4z"/>
<path d="M7375 1639 c-66 -10 -142 -21 -168 -24 l-48 -6 1 -242 c1 -133 -1
-249 -4 -257 -2 -8 -7 -49 -10 -90 -3 -41 -5 -76 -6 -78 0 -1 -502 -2 -1116
-2 -614 1 -1118 -1 -1121 -4 -4 -3 489 -6 1095 -6 l1102 0 0 -41 c0 -33 -4
-42 -21 -46 -12 -3 -18 -11 -15 -19 4 -9 -2 -14 -15 -14 -16 0 -20 -5 -16 -20
3 -11 1 -23 -4 -26 -14 -9 -11 -54 5 -54 7 0 19 -7 26 -15 9 -10 9 -15 1 -15
-18 0 -13 -18 7 -23 14 -4 13 -5 -4 -6 -11 0 -25 4 -31 10 -8 8 -11 -3 -12
-38 0 -26 -3 -139 -7 -251 -3 -112 -3 -241 1 -288 l7 -84 259 0 259 0 -3 448
c-2 246 -8 470 -13 497 l-9 50 -63 1 c-52 2 -68 6 -89 25 -13 13 -28 24 -31
24 -4 0 -6 3 -4 8 1 4 -9 12 -23 19 -27 12 -24 28 6 28 11 0 27 7 35 15 10 10
35 15 73 15 32 0 73 3 90 6 l31 7 0 258 0 259 -22 -1 c-13 -1 -77 -10 -143
-20z m-77 -646 c-10 -2 -28 -2 -40 0 -13 2 -5 4 17 4 22 1 32 -1 23 -4z m-212
-244 c1 -18 -3 -28 -10 -26 -14 5 -20 33 -12 54 9 22 20 7 22 -28z m304 -513
c0 -11 -19 -15 -25 -6 -3 5 1 10 9 10 9 0 16 -2 16 -4z"/>
<path d="M2600 1640 c19 -13 30 -13 30 0 0 6 -10 10 -22 10 -19 0 -20 -2 -8
-10z"/>
<path d="M6690 1636 c0 -9 5 -16 10 -16 6 0 10 4 10 9 0 6 -4 13 -10 16 -5 3
-10 -1 -10 -9z"/>
<path d="M4180 1611 c0 -12 5 -21 10 -21 6 0 10 6 10 14 0 8 -4 18 -10 21 -5
3 -10 -3 -10 -14z"/>
<path d="M2560 1600 c0 -17 5 -19 25 -14 20 5 24 3 19 -10 -4 -11 -1 -16 10
-16 23 0 20 37 -3 50 -31 16 -51 12 -51 -10z"/>
<path d="M2464 1572 c8 -9 22 -11 35 -7 32 10 25 21 -14 21 -30 0 -33 -2 -21
-14z"/>
<path d="M6140 1373 c0 -124 5 -225 10 -233 6 -10 10 64 10 218 0 148 -4 232
-10 232 -6 0 -10 -79 -10 -217z"/>
<path d="M4092 1354 c-3 -150 0 -214 7 -214 13 0 16 416 4 423 -5 3 -10 -91
-11 -209z"/>
<path d="M6250 1557 c-3 -3 -4 -100 -2 -216 l3 -211 399 0 c219 0 405 -3 414
-6 14 -5 16 17 16 210 l0 216 -172 0 c-95 0 -281 3 -413 6 -132 4 -242 4 -245
1z m560 -67 c12 -8 9 -10 -13 -10 -16 0 -26 4 -22 10 8 12 16 12 35 0z m170
-6 c0 -2 -16 -4 -36 -4 -19 0 -33 4 -30 8 5 8 66 4 66 -4z m-87 -1 c-7 -2 -19
-2 -25 0 -7 3 -2 5 12 5 14 0 19 -2 13 -5z m-293 -53 c0 -5 -2 -10 -4 -10 -3
0 -8 5 -11 10 -3 6 -1 10 4 10 6 0 11 -4 11 -10z m-213 -26 c-3 -3 -12 -4 -19
-1 -8 3 -5 6 6 6 11 1 17 -2 13 -5z m96 -1 c-7 -2 -19 -2 -25 0 -7 3 -2 5 12
5 14 0 19 -2 13 -5z m60 0 c-7 -2 -21 -2 -30 0 -10 3 -4 5 12 5 17 0 24 -2 18
-5z m-243 -63 c0 -17 -2 -19 -14 -8 -14 13 -12 28 5 28 5 0 9 -9 9 -20z m50
10 c0 -5 -4 -10 -10 -10 -5 0 -10 5 -10 10 0 6 5 10 10 10 6 0 10 -4 10 -10z
m670 -40 c0 -5 -7 -10 -16 -10 -8 0 -12 5 -9 10 3 6 10 10 16 10 5 0 9 -4 9
-10z m-73 -46 c-3 -3 -12 -4 -19 -1 -8 3 -5 6 6 6 11 1 17 -2 13 -5z m-472
-34 c3 -5 -3 -10 -14 -10 -12 0 -21 5 -21 10 0 6 6 10 14 10 8 0 18 -4 21 -10z
m195 0 c12 -8 9 -10 -12 -10 -16 0 -28 5 -28 10 0 13 20 13 40 0z m100 0 c11
-7 5 -10 -22 -10 -21 0 -38 5 -38 10 0 13 40 13 60 0z"/>
<path d="M2486 1537 c3 -10 9 -15 12 -12 3 3 0 11 -7 18 -10 9 -11 8 -5 -6z"/>
<path d="M2566 1526 c-9 -31 -7 -43 4 -25 6 11 18 15 35 11 18 -3 25 0 25 11
0 9 -12 16 -29 19 -23 3 -31 0 -35 -16z"/>
<path d="M4650 1539 c-52 -3 -85 -6 -74 -7 12 -1 27 -9 34 -17 11 -13 8 -15
-16 -16 -16 0 -23 -3 -16 -6 6 -2 12 -13 12 -24 0 -10 5 -19 10 -19 6 0 10 7
10 15 0 18 16 20 26 3 4 -6 2 -14 -4 -16 -22 -7 -35 -42 -21 -58 15 -19 30
-18 22 1 -5 14 20 44 38 45 3 0 14 -16 25 -35 10 -19 22 -35 27 -35 5 0 7 -8
5 -17 -3 -16 -13 -18 -73 -15 -70 3 -70 3 -43 -15 19 -12 29 -30 36 -62 l10
-46 1 48 c1 48 1 48 34 45 31 -3 32 -5 35 -50 2 -31 8 -48 16 -48 10 0 13 39
15 164 1 90 -2 166 -6 168 -4 1 -51 0 -103 -3z"/>
<path d="M5349 1542 c-41 -3 -46 -5 -42 -23 4 -15 13 -19 37 -17 18 1 37 -1
43 -5 14 -9 29 32 16 42 -4 3 -29 5 -54 3z"/>
<path d="M4830 1451 c0 -84 9 -116 25 -90 5 7 38 8 106 3 113 -8 125 0 96 62
-10 20 -12 36 -7 39 6 3 10 22 10 41 l0 34 -48 0 -48 0 -2 -52 c-1 -29 -5 -66
-8 -81 -5 -26 -9 -28 -47 -25 l-42 3 -3 78 c-2 59 -6 77 -17 77 -12 0 -15 -18
-15 -89z m170 9 c0 -5 -4 -10 -10 -10 -5 0 -10 5 -10 10 0 6 5 10 10 10 6 0
10 -4 10 -10z"/>
<path d="M5200 1495 c0 -36 3 -45 18 -45 14 0 17 9 17 45 0 36 -3 45 -17 45
-15 0 -18 -9 -18 -45z"/>
<path d="M5480 1520 c0 -11 7 -20 15 -20 8 0 15 9 15 20 0 11 -7 20 -15 20 -8
0 -15 -9 -15 -20z"/>
<path d="M5522 1523 c3 -13 13 -18 36 -16 30 1 32 0 15 -13 -15 -11 -15 -13
-2 -14 19 0 44 20 52 43 6 15 -1 17 -49 17 -48 0 -55 -3 -52 -17z"/>
<path d="M5662 1523 c2 -13 15 -19 44 -21 35 -3 42 0 47 17 5 19 1 21 -45 21
-42 0 -49 -3 -46 -17z"/>
<path d="M5894 1533 c7 -8 11 -9 39 -12 8 -1 7 -4 -3 -11 -13 -9 -13 -10 0
-10 8 0 21 9 28 20 11 19 10 20 -30 20 -23 0 -38 -3 -34 -7z"/>
<path d="M6014 1529 c-4 -7 1 -16 10 -21 14 -8 16 -30 16 -149 0 -91 -4 -138
-10 -134 -5 3 -10 37 -10 75 0 89 -12 120 -45 120 -17 0 -26 -7 -30 -22 -11
-49 -17 -85 -24 -128 l-6 -45 -90 -3 c-201 -5 -67 -13 233 -12 4 0 8 74 9 165
l1 165 -23 0 c-13 0 -27 -5 -31 -11z"/>
<path d="M3930 1346 l0 -176 44 0 43 0 2 170 2 170 -30 0 c-16 0 -36 3 -45 6
-14 5 -16 -13 -16 -170z"/>
<path d="M4170 1495 c0 -19 11 -19 36 0 18 14 18 14 -8 15 -18 0 -28 -5 -28
-15z"/>
<path d="M4240 1499 c0 -5 5 -7 10 -4 6 3 10 8 10 11 0 2 -4 4 -10 4 -5 0 -10
-5 -10 -11z"/>
<path d="M4335 1499 c83 -14 173 -17 189 -6 13 9 -11 12 -106 13 -78 0 -108
-2 -83 -7z"/>
<path d="M2622 1466 c0 -20 -5 -43 -11 -50 -15 -17 0 -29 24 -20 14 6 16 15
12 47 -7 54 -25 70 -25 23z"/>
<path d="M2460 1480 c0 -5 6 -10 14 -10 8 0 18 5 21 10 3 6 -3 10 -14 10 -12
0 -21 -4 -21 -10z"/>
<path d="M5733 1472 c-60 -3 -63 -4 -63 -28 l0 -26 -92 3 -93 3 2 -109 c1 -69
6 -110 13 -109 5 1 56 2 112 3 82 1 100 4 90 14 -8 7 -52 14 -105 18 l-92 5
108 2 107 2 1 33 c0 17 2 55 4 84 3 47 1 52 -22 58 -13 3 -23 11 -20 18 2 8
42 14 123 17 103 4 110 6 54 10 -36 3 -93 4 -127 2z"/>
<path d="M4430 1460 c0 -5 5 -10 10 -10 6 0 10 5 10 10 0 6 -4 10 -10 10 -5 0
-10 -4 -10 -10z"/>
<path d="M2465 1440 c-3 -5 3 -10 15 -10 12 0 18 5 15 10 -3 6 -10 10 -15 10
-5 0 -12 -4 -15 -10z"/>
<path d="M4390 1430 c0 -11 5 -20 10 -20 6 0 10 9 10 20 0 11 -4 20 -10 20 -5
0 -10 -9 -10 -20z"/>
<path d="M4171 1424 c0 -11 3 -14 6 -6 3 7 2 16 -1 19 -3 4 -6 -2 -5 -13z"/>
<path d="M5363 1422 c-37 -4 -44 -19 -47 -99 -1 -45 -3 -48 -31 -54 -16 -4
-47 -7 -67 -8 -31 -1 -38 3 -38 18 0 26 -21 33 -132 39 -54 2 -98 9 -98 13 0
5 -27 9 -60 9 l-60 0 0 -65 0 -65 280 -1 c154 -1 286 -2 293 -3 9 -1 11 25 9
104 -1 57 -5 107 -10 110 -4 3 -22 4 -39 2z m-477 -128 c-3 -9 -6 -23 -7 -32
0 -12 -3 -10 -10 6 -10 25 -5 42 13 42 5 0 7 -7 4 -16z m497 -51 c-7 -2 -21
-2 -30 0 -10 3 -4 5 12 5 17 0 24 -2 18 -5z"/>
<path d="M1720 1410 c0 -5 5 -10 10 -10 6 0 10 5 10 10 0 6 -4 10 -10 10 -5 0
-10 -4 -10 -10z"/>
<path d="M2485 1410 c-3 -5 -1 -10 4 -10 6 0 11 5 11 10 0 6 -2 10 -4 10 -3 0
-8 -4 -11 -10z"/>
<path d="M3290 1411 c0 -6 5 -13 10 -16 6 -3 10 1 10 9 0 9 -4 16 -10 16 -5 0
-10 -4 -10 -9z"/>
<path d="M3327 1368 c-6 -46 15 -158 29 -158 2 0 4 47 4 105 0 82 -3 105 -14
105 -9 0 -15 -18 -19 -52z"/>
<path d="M1588 1403 c7 -3 16 -2 19 1 4 3 -2 6 -13 5 -11 0 -14 -3 -6 -6z"/>
<path d="M1663 1403 c9 -2 23 -2 30 0 6 3 -1 5 -18 5 -16 0 -22 -2 -12 -5z"/>
<path d="M225 1385 c23 -8 85 -10 85 -3 0 4 -21 8 -47 7 -27 0 -43 -2 -38 -4z"/>
<path d="M2194 1366 c-10 -8 -15 -18 -11 -22 4 -5 12 -2 16 5 5 7 14 10 20 7
6 -4 11 0 11 8 0 20 -10 20 -36 2z"/>
<path d="M1899 1353 c-28 -3 -39 -10 -43 -26 l-6 -22 -19 23 c-15 17 -30 22
-66 22 -39 0 -46 -3 -41 -16 3 -9 6 -99 6 -201 0 -179 1 -185 20 -180 20 5 45
-15 33 -26 -3 -4 1 -7 9 -7 9 0 18 7 21 15 5 11 24 14 81 14 42 0 80 2 85 5 5
3 8 39 6 78 -1 40 -3 130 -4 201 -1 143 8 129 -82 120z m-37 -99 c-4 -35 -5
-36 -26 -28 -19 7 -22 50 -3 57 23 10 32 0 29 -29z m8 -64 c0 -11 -4 -20 -10
-20 -5 0 -10 9 -10 20 0 11 5 20 10 20 6 0 10 -9 10 -20z m-7 -97 c-7 -2 -21
-2 -30 0 -10 3 -4 5 12 5 17 0 24 -2 18 -5z"/>
<path d="M2073 1353 c-7 -2 -13 -9 -13 -15 0 -12 41 -6 41 7 1 12 -11 15 -28
8z"/>
<path d="M630 1340 c0 -5 3 -9 8 -9 18 3 42 -2 42 -8 0 -12 -232 -6 -239 5 -3
6 -5 -31 -5 -81 2 -155 3 -157 20 -157 13 0 14 -3 4 -14 -6 -8 -14 -50 -17
-92 l-6 -77 24 6 c13 4 70 7 127 7 l103 0 -7 68 c-4 37 -11 72 -16 79 -5 7
-40 14 -76 16 l-67 3 81 2 c94 2 91 6 100 -99 l7 -69 52 0 c39 0 54 4 59 16 3
9 6 90 6 180 l0 164 -70 0 c-40 0 -70 4 -70 10 0 6 7 10 15 10 8 0 15 8 15 18
1 16 1 16 11 0 14 -25 29 -22 29 5 0 21 -5 23 -65 25 -40 2 -65 -1 -65 -8z
m10 -50 c0 -13 -40 -13 -60 0 -11 7 -5 10 23 10 20 0 37 -4 37 -10z m-77 -157
c-7 -2 -21 -2 -30 0 -10 3 -4 5 12 5 17 0 24 -2 18 -5z m-56 -49 c-3 -3 -12
-4 -19 -1 -8 3 -5 6 6 6 11 1 17 -2 13 -5z"/>
<path d="M857 1343 c-2 -5 -5 -63 -6 -130 l-2 -123 125 0 125 0 7 -37 c8 -42
11 -67 13 -105 1 -26 3 -27 55 -26 65 2 66 2 66 136 l0 92 -28 0 c-37 0 -92
46 -92 76 0 21 5 24 38 24 49 0 84 10 79 23 -2 6 -32 9 -75 8 -58 -2 -72 1
-72 12 0 22 -22 27 -128 27 -72 1 -92 3 -79 11 9 6 26 7 37 4 11 -4 20 -2 20
4 0 12 -76 15 -83 4z m81 -50 c-10 -2 -28 -2 -40 0 -13 2 -5 4 17 4 22 1 32
-1 23 -4z m105 0 c-7 -2 -19 -2 -25 0 -7 3 -2 5 12 5 14 0 19 -2 13 -5z m-113
-33 c0 -5 -9 -10 -21 -10 -11 0 -17 5 -14 10 3 6 13 10 21 10 8 0 14 -4 14
-10z m287 -176 c-3 -3 -12 -4 -19 -1 -8 3 -5 6 6 6 11 1 17 -2 13 -5z m-7
-134 c0 -5 -5 -10 -11 -10 -5 0 -7 5 -4 10 3 6 8 10 11 10 2 0 4 -4 4 -10z"/>
<path d="M1080 1336 c0 -20 12 -26 62 -30 64 -6 98 3 98 25 0 17 -8 19 -80 19
-63 0 -80 -3 -80 -14z"/>
<path d="M1310 1317 c0 -19 3 -36 6 -39 9 -9 62 9 80 26 8 9 20 16 25 16 11 0
12 -20 2 -20 -5 0 -21 -18 -37 -40 -17 -22 -36 -40 -43 -40 -24 0 -32 -37 -32
-145 0 -129 5 -155 29 -155 29 0 30 12 11 94 -17 70 -17 77 -2 74 10 -2 18
-18 22 -49 4 -25 12 -54 17 -65 6 -10 13 -27 16 -37 5 -16 17 -17 108 -15 98
3 103 4 106 26 4 29 33 30 29 0 -1 -15 4 -23 17 -26 11 -2 16 0 12 6 -4 6 1
15 9 19 13 8 15 32 13 159 l-3 149 -21 -42 c-21 -42 -22 -42 -39 -23 -10 11
-15 20 -11 20 4 0 -8 14 -25 31 -31 30 -34 31 -101 26 -61 -5 -69 -3 -66 11 3
12 13 16 31 15 24 -2 27 2 27 28 l0 29 -90 0 -90 0 0 -33z"/>
<path d="M1530 1325 c0 -22 4 -25 40 -27 79 -3 98 -5 114 -11 13 -5 16 1 16
28 l0 35 -59 0 c-51 0 -59 -3 -64 -21 -3 -12 -10 -18 -17 -14 -6 4 -9 13 -6
21 3 8 -1 14 -9 14 -9 0 -15 -10 -15 -25z"/>
<path d="M4333 1337 c-38 -9 -42 -12 -37 -33 5 -18 2 -24 -9 -24 -9 0 -20 6
-24 14 -11 18 -47 36 -73 36 -19 0 -21 -5 -18 -62 2 -35 6 -62 11 -60 4 1 40
2 80 2 l72 0 -1 43 c-1 56 10 75 49 86 43 12 3 11 -50 -2z"/>
<path d="M2835 1280 c3 -36 7 -138 9 -227 2 -131 0 -163 -11 -163 -10 0 -13
-36 -14 -172 -2 -220 2 -412 8 -418 2 -3 38 -6 79 -8 l74 -4 0 31 c0 17 5 31
10 31 6 0 10 -11 10 -25 0 -14 5 -25 11 -25 6 0 9 6 6 13 -2 6 -10 45 -17 85
-13 68 -15 72 -38 70 -22 -3 -26 1 -26 24 -1 32 17 39 22 8 2 -11 8 -20 14
-20 6 0 7 8 3 18 -21 54 -32 161 -25 257 l5 70 13 -80 c7 -44 17 -84 22 -89 6
-6 10 -18 10 -27 0 -10 4 -20 9 -24 12 -7 5 49 -16 125 -8 30 -25 102 -37 160
-13 58 -25 112 -28 120 -11 26 -45 153 -63 230 -24 103 -36 120 -30 40z m55
-355 c5 -11 14 -47 20 -80 6 -33 13 -70 16 -82 2 -13 1 -23 -4 -23 -4 0 -13
24 -19 53 -6 28 -20 90 -30 137 -11 47 -17 92 -14 100 3 8 9 -7 13 -35 5 -27
13 -59 18 -70z m-18 -90 c4 -17 1 -25 -8 -25 -8 0 -14 11 -14 25 0 14 4 25 9
25 5 0 11 -11 13 -25z m18 -64 c0 -5 3 -16 6 -25 4 -11 1 -16 -10 -16 -10 0
-16 9 -16 25 0 14 5 25 10 25 6 0 10 -4 10 -9z m29 -123 c1 -5 -6 -8 -14 -8
-16 0 -19 9 -8 36 6 16 7 16 14 -2 4 -10 8 -22 8 -26z m16 -63 c0 -14 -6 -25
-12 -25 -7 0 -13 11 -13 25 0 14 6 25 13 25 6 0 12 -11 12 -25z m45 -157 c0
-7 3 -23 6 -35 5 -17 2 -23 -9 -23 -14 0 -30 47 -20 62 7 13 23 9 23 -4z"/>
<path d="M2310 1125 l0 -205 214 0 215 0 3 43 c2 23 1 114 -2 202 l-5 160
-212 3 -213 3 0 -206z m313 128 c-7 -2 -19 -2 -25 0 -7 3 -2 5 12 5 14 0 19
-2 13 -5z m-16 -109 c-3 -3 -12 -4 -19 -1 -8 3 -5 6 6 6 11 1 17 -2 13 -5z
m110 -186 c-3 -8 -6 -5 -6 6 -1 11 2 17 5 13 3 -3 4 -12 1 -19z m-37 -6 c0 -4
-18 -6 -40 -4 -22 2 -40 6 -40 8 0 2 18 4 40 4 22 0 40 -3 40 -8z"/>
<path d="M2072 1312 c-31 -3 -32 -5 -26 -37 4 -26 2 -35 -13 -44 -17 -10 -17
-10 0 -11 17 0 18 -9 15 -104 -3 -92 -5 -105 -22 -110 -20 -5 -13 -26 10 -26
9 0 14 -11 14 -30 0 -20 5 -30 15 -30 8 0 15 5 15 10 0 6 7 10 15 10 12 0 15
19 15 112 0 132 -12 138 -16 7 -3 -88 -7 -109 -20 -96 -11 10 -4 200 7 214 6
7 8 13 4 13 -5 0 -1 8 8 18 14 16 27 97 17 104 -3 2 -20 2 -38 0z m8 -42 c0
-5 -4 -10 -10 -10 -5 0 -10 5 -10 10 0 6 5 10 10 10 6 0 10 -4 10 -10z m20
-35 c0 -8 -4 -15 -10 -15 -5 0 -10 7 -10 15 0 8 5 15 10 15 6 0 10 -7 10 -15z"/>
<path d="M2182 1138 c-1 -104 1 -188 6 -188 4 0 6 64 4 142 -4 229 -8 247 -10
46z"/>
<path d="M2905 1262 c-1 -2 10 -51 25 -110 l27 -107 159 -2 c133 -2 156 -1
142 10 -14 11 -18 33 -20 112 l-3 98 -163 1 c-90 1 -165 0 -167 -2z"/>
<path d="M1231 1194 c0 -11 3 -14 6 -6 3 7 2 16 -1 19 -3 4 -6 -2 -5 -13z"/>
<path d="M4463 1172 c-75 -3 -83 -5 -83 -22 0 -17 7 -20 55 -20 30 0 55 5 55
10 0 6 7 10 15 10 8 0 15 -4 15 -10 0 -5 6 -10 14 -10 14 0 30 38 18 42 -4 2
-44 2 -89 0z"/>
<path d="M4908 1172 c-43 -2 -78 -6 -78 -10 0 -22 30 -32 91 -32 58 0 67 3 72
20 7 26 6 26 -85 22z"/>
<path d="M5020 1153 c0 -22 3 -23 95 -23 77 0 97 3 102 15 3 9 4 17 2 19 -2 2
-48 6 -102 8 -95 3 -97 3 -97 -19z"/>
<path d="M4172 1153 c3 -15 18 -19 91 -23 85 -5 87 -5 87 18 0 21 -3 22 -91
22 -81 0 -90 -2 -87 -17z"/>
<path d="M4582 1153 c3 -16 15 -18 88 -18 73 0 85 2 88 18 3 15 -6 17 -88 17
-82 0 -91 -2 -88 -17z"/>
<path d="M5310 1150 c0 -17 7 -20 49 -20 45 0 61 10 61 36 0 2 -25 4 -55 4
-48 0 -55 -2 -55 -20z"/>
<path d="M5492 1153 c3 -15 16 -18 86 -21 77 -3 82 -2 82 18 0 19 -6 20 -86
20 -76 0 -85 -2 -82 -17z"/>
<path d="M5680 1163 c1 -28 20 -34 106 -31 71 2 89 6 89 18 0 12 -19 16 -97
18 -54 1 -98 -1 -98 -5z"/>
<path d="M5900 1163 c1 -25 21 -34 84 -34 63 -1 96 11 96 32 0 5 -40 9 -90 9
-49 0 -90 -3 -90 -7z"/>
<path d="M865 1068 c-3 -7 -6 -42 -8 -78 l-2 -65 118 -3 118 -3 -7 73 c-3 40
-9 76 -11 81 -8 13 -203 8 -208 -5z"/>
<path d="M3265 970 c-3 -5 1 -10 10 -10 9 0 13 5 10 10 -3 6 -8 10 -10 10 -2
0 -7 -4 -10 -10z"/>
<path d="M3068 963 c34 -2 88 -2 120 0 31 2 3 3 -63 3 -66 0 -92 -1 -57 -3z"/>
<path d="M3452 909 c3 -24 15 -75 26 -114 11 -38 29 -97 38 -130 28 -93 53
-97 53 -10 0 89 -4 116 -19 126 -13 8 -13 11 3 23 11 9 17 27 17 55 0 39 2 42
22 35 13 -4 41 -21 63 -38 22 -17 41 -31 43 -32 9 -4 17 -105 10 -118 -6 -10
-5 -16 1 -16 5 0 12 6 15 13 3 6 4 -48 2 -120 -2 -84 0 -133 6 -133 6 0 8 11
4 24 -5 22 -3 24 55 30 34 3 65 3 71 0 5 -3 6 -22 3 -42 -8 -53 2 -88 30 -100
l25 -12 -1 203 c-1 236 -9 279 -54 287 -28 5 -30 8 -30 54 l0 48 -65 -7 c-36
-3 -90 -10 -120 -15 -92 -15 -180 -12 -180 4 0 8 -5 18 -11 22 -8 4 -10 -7 -7
-37z m348 -107 c-35 -2 -68 -8 -73 -15 -6 -9 -7 -8 -5 3 6 19 39 26 96 20 45
-5 45 -5 -18 -8z"/>
<path d="M3903 933 c9 -2 23 -2 30 0 6 3 -1 5 -18 5 -16 0 -22 -2 -12 -5z"/>
<path d="M4268 933 c79 -2 205 -2 280 0 75 1 11 3 -143 3 -154 0 -216 -2 -137
-3z"/>
<path d="M3083 883 c42 -2 112 -2 155 0 42 1 7 3 -78 3 -85 0 -120 -2 -77 -3z"/>
<path d="M4880 835 c-19 -23 -33 -85 -32 -150 0 -33 1 -201 1 -372 l1 -313 84
0 c75 0 84 2 89 20 7 26 27 26 34 0 5 -19 14 -20 329 -20 l324 0 1 23 c0 21 1
21 9 2 5 -12 9 94 9 260 1 154 4 303 7 331 6 44 9 51 25 47 10 -3 17 -9 14
-13 -3 -5 -1 -11 5 -15 6 -4 11 6 11 22 2 27 2 27 7 3 4 -23 7 -20 28 25 l23
50 -6 -62 c-3 -35 -2 -63 3 -63 5 0 9 -132 9 -302 l0 -303 123 -3 122 -3 0
370 c0 265 -3 377 -12 396 -9 21 -9 28 2 35 7 4 10 14 7 22 -4 12 -63 16 -344
21 -586 12 -859 9 -873 -8z m98 -32 c-15 -2 -42 -2 -60 0 -18 2 -6 4 27 4 33
0 48 -2 33 -4z m739 -665 c-3 -8 -6 -5 -6 6 -1 11 2 17 5 13 3 -3 4 -12 1 -19z
m0 -50 c-3 -8 -6 -5 -6 6 -1 11 2 17 5 13 3 -3 4 -12 1 -19z"/>
<path d="M6620 842 c-12 -4 -13 -39 -1 -46 12 -8 7 -56 -9 -86 -10 -19 -12
-78 -7 -280 4 -140 7 -294 7 -342 l0 -88 121 0 121 0 -6 373 c-2 204 -6 382
-8 394 -2 12 1 22 6 22 5 -1 12 5 17 12 14 24 -12 40 -65 39 -28 0 -77 1 -109
2 -31 2 -62 2 -67 0z m146 -398 c3 -419 -9 -369 -20 90 -6 235 -5 287 6 284
10 -4 13 -80 14 -374z"/>
<path d="M4112 831 c-7 -4 -18 -26 -23 -47 -13 -52 -11 -528 1 -532 6 -2 10
-10 10 -17 0 -8 9 -19 19 -25 29 -15 33 -13 21 11 -11 19 -9 20 31 17 l42 -3
-2 -118 -2 -117 75 0 c41 0 81 3 90 6 14 5 16 40 16 288 0 154 3 304 6 333 7
52 7 52 30 36 16 -10 24 -25 25 -47 1 -30 1 -29 10 9 13 55 26 65 33 24 3 -19
7 -171 8 -339 l3 -305 93 -3 93 -3 -3 401 c-2 220 1 400 5 400 4 0 3 9 -3 20
-10 19 -21 20 -288 20 -152 0 -283 -4 -290 -9z m385 -133 c-3 -8 -6 -5 -6 6
-1 11 2 17 5 13 3 -3 4 -12 1 -19z m-92 2 c3 -5 1 -10 -4 -10 -6 0 -11 5 -11
10 0 6 2 10 4 10 3 0 8 -4 11 -10z"/>
<path d="M6294 813 c-17 -26 -19 -56 -22 -368 -2 -187 -1 -364 3 -393 l7 -53
91 3 92 3 4 40 5 40 6 -45 c4 -25 8 125 8 333 l2 377 48 0 c60 0 81 12 60 33
-8 9 -21 15 -29 14 -24 -3 -21 18 3 23 47 12 -12 20 -137 20 -123 0 -123 0
-141 -27z"/>
<path d="M3178 812 c-202 -4 -195 -22 7 -22 90 0 155 4 155 9 0 16 -8 16 -162
13z"/>
<path d="M3335 730 c-11 -5 -80 -9 -154 -9 -74 -1 -132 -3 -129 -7 3 -3 74 -6
157 -7 138 -2 151 0 151 16 0 9 -1 17 -2 16 -2 0 -12 -4 -23 -9z"/>
<path d="M6505 700 c-3 -5 3 -10 14 -10 12 0 21 5 21 10 0 6 -6 10 -14 10 -8
0 -18 -4 -21 -10z"/>
<path d="M3355 643 c-11 -2 -63 -7 -115 -12 l-95 -8 123 -2 c70 0 122 3 122 8
0 13 -11 18 -35 14z"/>
<path d="M3022 573 c-9 -3 -10 -9 -3 -17 5 -6 11 -34 14 -61 3 -44 4 -42 5 18
1 37 1 67 0 66 -2 0 -9 -3 -16 -6z"/>
<path d="M3113 538 c-2 -5 64 -8 146 -8 90 0 151 4 151 10 0 11 -289 9 -297
-2z"/>
<path d="M3580 475 c0 -8 5 -15 10 -15 6 0 10 7 10 15 0 8 -4 15 -10 15 -5 0
-10 -7 -10 -15z"/>
<path d="M3400 460 c-24 -8 -23 -8 8 -9 17 -1 32 4 32 9 0 11 -5 11 -40 0z"/>
<path d="M3110 450 c0 -5 7 -10 15 -10 8 0 15 5 15 10 0 6 -7 10 -15 10 -8 0
-15 -4 -15 -10z"/>
<path d="M3175 450 c-3 -5 1 -10 9 -10 9 0 16 5 16 10 0 6 -4 10 -9 10 -6 0
-13 -4 -16 -10z"/>
<path d="M3062 423 c-8 -3 -10 -9 -3 -16 10 -13 141 -11 141 3 0 16 -106 26
-138 13z"/>
<path d="M3032 390 c0 -8 4 -26 8 -40 6 -20 8 -21 8 -5 0 11 -3 29 -8 40 -5
12 -8 14 -8 5z"/>
<path d="M3440 370 c0 -5 5 -10 10 -10 6 0 10 5 10 10 0 6 -4 10 -10 10 -5 0
-10 -4 -10 -10z"/>
<path d="M3866 331 c-4 -5 -2 -12 3 -15 5 -4 12 -2 15 3 4 5 2 12 -3 15 -5 4
-12 2 -15 -3z"/>
<path d="M2510 310 c-91 -3 -157 -8 -147 -12 10 -5 109 -8 219 -8 151 0 199 3
196 12 -5 14 -38 15 -268 8z"/>
<path d="M3041 304 c0 -11 3 -14 6 -6 3 7 2 16 -1 19 -3 4 -6 -2 -5 -13z"/>
<path d="M3574 220 c0 -58 1 -81 3 -52 2 28 2 76 0 105 -2 28 -3 5 -3 -53z"/>
<path d="M3900 306 c0 -17 14 -29 23 -20 8 8 -3 34 -14 34 -5 0 -9 -6 -9 -14z"/>
<path d="M1609 306 c-2 -2 -322 -6 -711 -7 l-708 -4 0 -47 c0 -41 3 -48 20
-48 11 0 20 -4 20 -10 0 -5 -7 -7 -15 -4 -13 5 -15 -8 -15 -88 l0 -95 103 1
c87 1 106 4 122 20 18 18 19 18 32 0 8 -10 13 -13 13 -5 0 9 5 8 16 -3 20 -21
34 -20 34 1 0 15 1 15 18 0 24 -22 34 -21 55 3 9 11 27 19 39 19 18 -1 19 -2
5 -6 -10 -3 -16 -10 -14 -16 6 -20 25 -19 47 3 22 22 22 22 15 1 -9 -28 10
-27 30 2 16 21 17 21 11 1 l-7 -22 341 -1 c187 -1 340 2 340 6 0 5 -8 9 -17
10 -10 1 -73 7 -141 14 -113 12 -137 20 -87 31 43 10 -35 28 -94 23 -48 -5
-60 -3 -65 10 -10 27 0 31 78 32 59 1 76 -2 80 -14 6 -14 8 -14 20 2 18 25 66
14 59 -14 -6 -22 8 -33 27 -21 11 7 11 12 2 23 -10 12 -7 16 19 21 46 9 132 7
148 -3 10 -7 1 -11 -32 -16 -42 -6 -66 -19 -56 -30 2 -2 37 -6 77 -9 40 -3 77
-8 82 -11 5 -3 11 -1 14 4 3 5 -8 14 -24 20 -17 5 -30 17 -30 25 0 20 19 21
26 2 3 -8 15 -11 29 -8 14 2 23 8 20 12 -10 16 31 20 210 20 l183 0 6 26 c4
15 5 29 1 32 -3 3 -5 -2 -5 -11 0 -15 -20 -17 -192 -18 -824 -5 -821 -5 -788
-44 35 -42 -46 -39 -130 5 -99 52 -139 66 -262 95 -9 2 -26 9 -37 15 -11 6
-42 15 -68 21 -122 26 -123 27 -43 28 41 0 90 -3 108 -8 42 -13 580 -17 917
-8 440 12 575 21 575 38 0 9 -392 13 -401 5z m-1344 -176 c-3 -5 -15 -10 -26
-10 -11 0 -17 5 -14 10 3 6 15 10 26 10 11 0 17 -4 14 -10z m132 -6 c-3 -3
-12 -4 -19 -1 -8 3 -5 6 6 6 11 1 17 -2 13 -5z m87 -54 c-6 -5 -24 21 -24 34
0 6 6 1 14 -10 8 -10 12 -21 10 -24z m-146 -27 c-10 -2 -26 -2 -35 0 -10 3 -2
5 17 5 19 0 27 -2 18 -5z m62 -3 c0 -5 -2 -10 -4 -10 -3 0 -8 5 -11 10 -3 6
-1 10 4 10 6 0 11 -4 11 -10z m177 -6 c-3 -3 -12 -4 -19 -1 -8 3 -5 6 6 6 11
1 17 -2 13 -5z"/>
<path d="M2115 300 c-3 -5 1 -10 9 -10 9 0 16 5 16 10 0 6 -4 10 -9 10 -6 0
-13 -4 -16 -10z"/>
<path d="M2240 300 c-32 -7 -30 -7 20 -9 30 0 62 4 70 9 18 12 -35 12 -90 0z"/>
<path d="M3378 273 c7 -3 16 -2 19 1 4 3 -2 6 -13 5 -11 0 -14 -3 -6 -6z"/>
<path d="M3438 273 c7 -3 16 -2 19 1 4 3 -2 6 -13 5 -11 0 -14 -3 -6 -6z"/>
<path d="M3866 272 c-3 -5 -5 -66 -5 -136 0 -98 3 -126 13 -126 11 0 13 26 10
132 -4 130 -6 148 -18 130z"/>
<path d="M1948 253 c-27 -2 -48 -7 -48 -12 0 -13 29 -47 30 -33 0 17 190 17
190 0 0 -9 3 -9 12 0 7 7 44 12 94 12 69 0 83 -3 89 -17 6 -16 8 -16 15 4 9
21 13 22 190 22 177 0 181 -1 190 -22 6 -16 9 -17 9 -6 1 9 7 19 14 21 6 2 93
4 192 3 130 0 180 -3 180 -12 0 -6 3 -15 8 -19 4 -4 7 2 7 14 0 20 5 21 52 19
33 -1 53 3 56 11 3 9 -110 12 -520 12 -287 0 -566 2 -618 4 -52 2 -116 2 -142
-1z"/>
<path d="M3743 200 c0 -36 2 -50 4 -32 2 17 2 47 0 65 -2 17 -4 3 -4 -33z"/>
<path d="M3909 163 c-3 -153 -2 -163 11 -163 6 0 10 46 10 119 0 69 -4 122
-10 126 -6 4 -11 -26 -11 -82z"/>
<path d="M3495 200 c-7 -12 2 -30 16 -30 12 0 12 27 0 35 -5 3 -12 1 -16 -5z"/>
<path d="M3380 190 c0 -5 5 -10 10 -10 6 0 10 5 10 10 0 6 -4 10 -10 10 -5 0
-10 -4 -10 -10z"/>
<path d="M3440 190 c0 -5 5 -10 10 -10 6 0 10 5 10 10 0 6 -4 10 -10 10 -5 0
-10 -4 -10 -10z"/>
<path d="M3206 175 c-3 -9 0 -15 9 -15 16 0 20 16 6 24 -5 3 -11 -1 -15 -9z"/>
<path d="M3150 170 c-12 -8 -9 -10 13 -10 15 0 27 5 27 10 0 13 -20 13 -40 0z"/>
<path d="M4090 96 c0 -46 5 -88 10 -91 6 -4 10 23 10 74 0 45 0 84 1 88 0 4
-4 9 -10 11 -7 2 -11 -25 -11 -82z"/>
<path d="M4130 80 c0 -47 4 -80 10 -80 6 0 10 33 10 80 0 47 -4 80 -10 80 -6
0 -10 -33 -10 -80z"/>
<path d="M3230 121 c0 -6 -16 -7 -35 -4 -38 6 -91 -11 -99 -33 -4 -11 9 -14
69 -14 l75 0 0 30 c0 17 -2 30 -5 30 -3 0 -5 -4 -5 -9z"/>
<path d="M3742 95 c0 -16 2 -22 5 -12 2 9 2 23 0 30 -3 6 -5 -1 -5 -18z"/>
<path d="M3440 96 c0 -9 5 -16 10 -16 6 0 10 4 10 9 0 6 -4 13 -10 16 -5 3
-10 -1 -10 -9z"/>
<path d="M3497 104 c-8 -8 1 -24 14 -24 5 0 9 7 9 15 0 15 -12 20 -23 9z"/>
<path d="M3560 96 c0 -9 5 -16 10 -16 6 0 10 4 10 9 0 6 -4 13 -10 16 -5 3
-10 -1 -10 -9z"/>
<path d="M1843 85 c-6 -7 -9 -16 -6 -19 10 -10 93 -7 93 4 0 6 -13 10 -28 10
-15 0 -32 4 -37 9 -6 6 -15 4 -22 -4z"/>
<path d="M3320 90 c0 -5 5 -10 11 -10 5 0 7 5 4 10 -3 6 -8 10 -11 10 -2 0 -4
-4 -4 -10z"/>
<path d="M3380 90 c0 -5 5 -10 10 -10 6 0 10 5 10 10 0 6 -4 10 -10 10 -5 0
-10 -4 -10 -10z"/>
<path d="M3615 80 c-3 -5 1 -10 9 -10 9 0 16 5 16 10 0 6 -4 10 -9 10 -6 0
-13 -4 -16 -10z"/>
<path d="M1619 69 c16 -6 28 -6 35 1 7 7 -1 10 -24 9 -33 0 -34 -1 -11 -10z"/>
<path d="M2127 74 c-4 -4 -4 -10 -2 -14 6 -10 55 0 55 11 0 10 -43 12 -53 3z"/>
<path d="M2190 70 c0 -5 7 -10 15 -10 8 0 15 5 15 10 0 6 -7 10 -15 10 -8 0
-15 -4 -15 -10z"/>
<path d="M2405 70 c3 -5 25 -10 47 -10 51 0 45 9 -12 16 -28 3 -40 1 -35 -6z"/>
<path d="M2830 76 c0 -2 9 -6 20 -9 11 -3 20 -1 20 4 0 5 -9 9 -20 9 -11 0
-20 -2 -20 -4z"/>
<path d="M2896 72 c5 -5 50 -6 99 -2 l90 7 -99 1 c-55 1 -96 -2 -90 -6z"/>
<path d="M2718 63 c7 -3 16 -2 19 1 4 3 -2 6 -13 5 -11 0 -14 -3 -6 -6z"/>
<path d="M1515 30 c-10 -17 12 -37 25 -24 8 8 6 15 -4 23 -10 9 -16 9 -21 1z"/>
<path d="M1927 33 c-17 -16 -3 -23 49 -23 49 0 55 2 44 15 -12 15 -81 21 -93
8z"/>
<path d="M2716 25 c-3 -8 -1 -15 4 -15 6 0 10 7 10 15 0 8 -2 15 -4 15 -2 0
-6 -7 -10 -15z"/>
<path d="M2110 20 c0 -5 5 -10 10 -10 6 0 10 5 10 10 0 6 -4 10 -10 10 -5 0
-10 -4 -10 -10z"/>
<path d="M3590 15 c0 -9 9 -15 25 -15 16 0 25 6 25 15 0 9 -9 15 -25 15 -16 0
-25 -6 -25 -15z"/>
<path d="M3715 10 c-3 -5 -1 -10 4 -10 6 0 11 5 11 10 0 6 -2 10 -4 10 -3 0
-8 -4 -11 -10z"/>
</g>
</svg>
