<svg xmlns="http://www.w3.org/2000/svg" xmlns:xlink="http://www.w3.org/1999/xlink" width="500" zoomAndPan="magnify" viewBox="0 0 375 374.999991" height="500" preserveAspectRatio="xMidYMid meet" version="1.0"><defs><g/><clipPath id="0bf8139954"><path d="M 12.648438 12.4375 L 314.476562 12.4375 L 314.476562 314.269531 L 12.648438 314.269531 Z M 12.648438 12.4375 " clip-rule="nonzero"/></clipPath><clipPath id="0184e2d4c6"><path d="M 36.792969 36.585938 L 338.625 36.585938 L 338.625 338.414062 L 36.792969 338.414062 Z M 36.792969 36.585938 " clip-rule="nonzero"/></clipPath><clipPath id="87ed5f4152"><path d="M 60.941406 60.730469 L 362.769531 60.730469 L 362.769531 362.5625 L 60.941406 362.5625 Z M 60.941406 60.730469 " clip-rule="nonzero"/></clipPath></defs><g clip-path="url(#0bf8139954)"><path fill="#0aa8a7" d="M 163.5625 12.4375 C 80.214844 12.4375 12.648438 80.003906 12.648438 163.355469 C 12.648438 246.695312 80.214844 314.269531 163.5625 314.269531 C 246.902344 314.269531 314.476562 246.695312 314.476562 163.355469 C 314.476562 80.003906 246.902344 12.4375 163.5625 12.4375 Z M 261.382812 261.167969 C 248.671875 273.878906 233.878906 283.851562 217.410156 290.816406 C 200.359375 298.027344 182.242188 301.6875 163.5625 301.6875 C 144.882812 301.6875 126.761719 298.03125 109.71875 290.816406 C 93.246094 283.855469 78.453125 273.878906 65.738281 261.167969 C 53.03125 248.464844 43.058594 233.664062 36.089844 217.191406 C 28.878906 200.144531 25.222656 182.035156 25.222656 163.355469 C 25.222656 144.664062 28.875 126.554688 36.089844 109.503906 C 43.058594 93.035156 53.03125 78.234375 65.738281 65.53125 C 78.449219 52.820312 93.242188 42.84375 109.71875 35.871094 C 126.761719 28.667969 144.882812 25.011719 163.5625 25.011719 C 182.242188 25.011719 200.359375 28.667969 217.410156 35.871094 C 233.878906 42.84375 248.671875 52.820312 261.382812 65.53125 C 274.09375 78.234375 284.0625 93.035156 291.035156 109.503906 C 298.246094 126.554688 301.894531 144.664062 301.894531 163.355469 C 301.894531 182.035156 298.246094 200.144531 291.035156 217.191406 C 284.0625 233.664062 274.09375 248.464844 261.382812 261.167969 Z M 261.382812 261.167969 " fill-opacity="1" fill-rule="nonzero"/></g><g clip-path="url(#0184e2d4c6)"><path fill="#0aa8a7" d="M 187.707031 36.585938 C 104.363281 36.585938 36.792969 104.148438 36.792969 187.5 C 36.792969 270.84375 104.363281 338.414062 187.707031 338.414062 C 271.050781 338.414062 338.625 270.84375 338.625 187.5 C 338.625 104.148438 271.050781 36.585938 187.707031 36.585938 Z M 285.53125 285.3125 C 272.820312 298.023438 258.027344 308 241.558594 314.964844 C 224.507812 322.175781 206.390625 325.832031 187.707031 325.832031 C 169.027344 325.832031 150.910156 322.175781 133.863281 314.964844 C 117.390625 308 102.597656 298.023438 89.886719 285.3125 C 77.179688 272.609375 67.203125 257.808594 60.234375 241.339844 C 53.023438 224.289062 49.371094 206.179688 49.371094 187.5 C 49.371094 168.8125 53.023438 150.703125 60.234375 133.652344 C 67.203125 117.183594 77.179688 102.378906 89.886719 89.675781 C 102.597656 76.964844 117.390625 66.992188 133.863281 60.019531 C 150.910156 52.816406 169.027344 49.15625 187.707031 49.15625 C 206.390625 49.15625 224.507812 52.816406 241.558594 60.019531 C 258.027344 66.992188 272.820312 76.964844 285.53125 89.675781 C 298.242188 102.378906 308.207031 117.183594 315.179688 133.652344 C 322.394531 150.703125 326.042969 168.8125 326.042969 187.5 C 326.042969 206.179688 322.394531 224.289062 315.179688 241.339844 C 308.207031 257.808594 298.242188 272.609375 285.53125 285.3125 Z M 285.53125 285.3125 " fill-opacity="1" fill-rule="nonzero"/></g><g clip-path="url(#87ed5f4152)"><path fill="#0aa8a7" d="M 211.855469 60.730469 C 128.507812 60.730469 60.941406 128.292969 60.941406 211.644531 C 60.941406 294.988281 128.507812 362.5625 211.855469 362.5625 C 295.195312 362.5625 362.769531 294.988281 362.769531 211.644531 C 362.769531 128.292969 295.195312 60.730469 211.855469 60.730469 Z M 309.675781 309.460938 C 296.964844 322.171875 282.171875 332.144531 265.703125 339.109375 C 248.652344 346.320312 230.535156 349.980469 211.855469 349.980469 C 193.175781 349.980469 175.054688 346.324219 158.011719 339.109375 C 141.539062 332.148438 126.742188 322.171875 114.03125 309.460938 C 101.324219 296.757812 91.351562 281.953125 84.382812 265.484375 C 77.167969 248.433594 73.515625 230.328125 73.515625 211.644531 C 73.515625 192.957031 77.167969 174.847656 84.382812 157.796875 C 91.351562 141.328125 101.324219 126.527344 114.03125 113.824219 C 126.742188 101.113281 141.535156 91.136719 158.011719 84.164062 C 175.054688 76.960938 193.175781 73.304688 211.855469 73.304688 C 230.535156 73.304688 248.652344 76.960938 265.703125 84.164062 C 282.171875 91.136719 296.964844 101.113281 309.675781 113.824219 C 322.386719 126.527344 332.355469 141.328125 339.328125 157.796875 C 346.539062 174.847656 350.1875 192.957031 350.1875 211.644531 C 350.1875 230.328125 346.539062 248.433594 339.328125 265.484375 C 332.355469 281.953125 322.386719 296.757812 309.675781 309.460938 Z M 309.675781 309.460938 " fill-opacity="1" fill-rule="nonzero"/></g><g fill="#0aa8a7" fill-opacity="1"><g transform="translate(160.907101, 224.057475)"><g><path d="M 22.03125 31.578125 C 17.625 31.578125 14.195312 30.398438 11.75 28.046875 C 9.300781 25.703125 8.078125 22.472656 8.078125 18.359375 C 8.078125 14.640625 9.078125 11.75 11.078125 9.6875 C 13.085938 7.632812 15.757812 6.609375 19.09375 6.609375 C 19.875 6.609375 20.65625 6.679688 21.4375 6.828125 C 22.226562 6.972656 22.769531 7.046875 23.0625 7.046875 L 24.96875 7.34375 L 24.96875 27.171875 C 27.8125 26.679688 30.304688 25.113281 32.453125 22.46875 C 34.609375 19.832031 37.007812 15.28125 39.65625 8.8125 L 42.59375 1.46875 L 4.40625 -69.03125 L -2.9375 -71.234375 L -2.9375 -73.453125 L 15.421875 -73.453125 C 20.515625 -73.453125 24.550781 -72.394531 27.53125 -70.28125 C 30.519531 -68.175781 33.09375 -65.066406 35.25 -60.953125 L 53.609375 -27.03125 L 69.03125 -66.828125 L 58.015625 -71.234375 L 58.015625 -73.453125 L 85.203125 -73.453125 L 85.203125 -71.234375 L 73.453125 -66.828125 L 44.0625 8.8125 C 40.925781 16.84375 37.597656 22.644531 34.078125 26.21875 C 30.554688 29.789062 26.539062 31.578125 22.03125 31.578125 Z M 22.03125 31.578125 "/></g></g></g></svg>
