<?xml version="1.0" standalone="no"?>
<!DOCTYPE svg PUBLIC "-//W3C//DTD SVG 1.1//EN" "http://www.w3.org/Graphics/SVG/1.1/DTD/svg11.dtd">
<svg xmlns="http://www.w3.org/2000/svg" xmlns:xlink="http://www.w3.org/1999/xlink" width="450" zoomAndPan="magnify" viewBox="0 0 450 149.999998" height="150" preserveAspectRatio="xMidYMid meet" version="1.0"><defs><g/><clipPath id="f1a7ebccf4"><path d="M 10.34375 10.34375 L 139.34375 10.34375 L 139.34375 139.34375 L 10.34375 139.34375 Z M 10.34375 10.34375 " clip-rule="nonzero"/></clipPath><clipPath id="a870c18ff7"><path d="M 20.691406 20.691406 L 149.691406 20.691406 L 149.691406 149.691406 L 20.691406 149.691406 Z M 20.691406 20.691406 " clip-rule="nonzero"/></clipPath></defs><g fill="#0aa8a7" fill-opacity="1"><g transform="translate(167.513344, 109.983602)"><g><path d="M 16.203125 23.234375 C 12.960938 23.234375 10.441406 22.367188 8.640625 20.640625 C 6.835938 18.910156 5.9375 16.535156 5.9375 13.515625 C 5.9375 10.773438 6.675781 8.644531 8.15625 7.125 C 9.632812 5.613281 11.597656 4.859375 14.046875 4.859375 C 14.617188 4.859375 15.191406 4.910156 15.765625 5.015625 C 16.347656 5.128906 16.75 5.1875 16.96875 5.1875 L 18.375 5.40625 L 18.375 19.984375 C 20.457031 19.628906 22.289062 18.476562 23.875 16.53125 C 25.46875 14.582031 27.234375 11.234375 29.171875 6.484375 L 31.34375 1.078125 L 3.234375 -50.796875 L -2.15625 -52.40625 L -2.15625 -54.03125 L 11.34375 -54.03125 C 15.09375 -54.03125 18.066406 -53.253906 20.265625 -51.703125 C 22.460938 -50.160156 24.351562 -47.875 25.9375 -44.84375 L 39.4375 -19.890625 L 50.796875 -49.171875 L 42.6875 -52.40625 L 42.6875 -54.03125 L 62.671875 -54.03125 L 62.671875 -52.40625 L 54.03125 -49.171875 L 32.421875 6.484375 C 30.109375 12.390625 27.65625 16.65625 25.0625 19.28125 C 22.476562 21.914062 19.523438 23.234375 16.203125 23.234375 Z M 16.203125 23.234375 "/></g></g></g><g fill="#0aa8a7" fill-opacity="1"><g transform="translate(228.022894, 109.983602)"><g><path d="M 30.25 1.625 C 26.21875 1.625 22.597656 0.78125 19.390625 -0.90625 C 16.191406 -2.601562 13.691406 -4.820312 11.890625 -7.5625 C 10.085938 -10.300781 9.1875 -13.179688 9.1875 -16.203125 L 9.1875 -50.796875 L 2.703125 -52.40625 L 2.703125 -54.03125 L 16.75 -54.03125 C 23.226562 -54.03125 26.46875 -50.789062 26.46875 -44.3125 L 26.46875 -16.203125 C 26.46875 -11.671875 27.28125 -8.195312 28.90625 -5.78125 C 30.53125 -3.363281 32.421875 -2.15625 34.578125 -2.15625 C 37.242188 -2.15625 39.65625 -3.597656 41.8125 -6.484375 C 42.613281 -7.566406 43.445312 -9.007812 44.3125 -10.8125 L 44.3125 -50.796875 L 37.828125 -52.40625 L 37.828125 -54.03125 L 68.078125 -54.03125 L 68.078125 -52.40625 L 61.59375 -50.796875 L 61.59375 0.546875 L 60.515625 0.546875 C 55.253906 0.546875 51.253906 -0.894531 48.515625 -3.78125 C 47.296875 -5.082031 46.429688 -6.523438 45.921875 -8.109375 C 44.910156 -6.304688 43.722656 -4.679688 42.359375 -3.234375 C 39.117188 0.00390625 35.082031 1.625 30.25 1.625 Z M 30.25 1.625 "/></g></g></g><g fill="#0aa8a7" fill-opacity="1"><g transform="translate(298.257194, 109.983602)"><g><path d="M 4.328125 -2.703125 L 35.125 -51.328125 L 15.671875 -51.328125 C 15.671875 -47.367188 14.484375 -43.367188 12.109375 -39.328125 C 11.171875 -37.816406 10.015625 -36.414062 8.640625 -35.125 L 5.40625 -35.125 L 5.40625 -54.03125 L 54.578125 -54.03125 L 54.578125 -51.328125 L 23.78125 -2.703125 L 44.3125 -2.703125 C 44.3125 -6.804688 45.460938 -10.804688 47.765625 -14.703125 C 48.773438 -16.359375 49.960938 -17.757812 51.328125 -18.90625 L 54.578125 -18.90625 L 54.578125 0 L 4.328125 0 Z M 4.328125 -2.703125 "/></g></g></g><g fill="#0aa8a7" fill-opacity="1"><g transform="translate(357.145962, 109.983602)"><g><path d="M 4.328125 -1.625 L 10.8125 -3.234375 L 10.8125 -50.796875 L 4.328125 -52.40625 L 4.328125 -54.03125 L 18.375 -54.03125 C 24.851562 -54.03125 28.09375 -50.789062 28.09375 -44.3125 L 28.09375 -3.234375 L 34.578125 -1.625 L 34.578125 0 L 4.328125 0 Z M 18.375 -60.515625 C 16.207031 -60.515625 14.398438 -61.234375 12.953125 -62.671875 C 11.515625 -64.117188 10.796875 -65.921875 10.796875 -68.078125 C 10.796875 -70.242188 11.515625 -72.046875 12.953125 -73.484375 C 14.398438 -74.921875 16.207031 -75.640625 18.375 -75.640625 C 20.53125 -75.640625 22.328125 -74.921875 23.765625 -73.484375 C 25.210938 -72.046875 25.9375 -70.242188 25.9375 -68.078125 C 25.9375 -65.921875 25.210938 -64.117188 23.765625 -62.671875 C 22.328125 -61.234375 20.53125 -60.515625 18.375 -60.515625 Z M 18.375 -60.515625 "/></g></g></g><path fill="#0aa8a7" d="M 64.5 0 C 28.878906 0 0 28.875 0 64.5 C 0 100.121094 28.878906 129 64.5 129 C 100.121094 129 129 100.121094 129 64.5 C 129 28.875 100.121094 0 64.5 0 Z M 106.308594 106.304688 C 100.875 111.738281 94.554688 116 87.515625 118.976562 C 80.226562 122.058594 72.484375 123.621094 64.5 123.621094 C 56.515625 123.621094 48.773438 122.058594 41.488281 118.976562 C 34.445312 116 28.125 111.738281 22.691406 106.304688 C 17.261719 100.875 12.996094 94.550781 10.019531 87.511719 C 6.9375 80.222656 5.375 72.484375 5.375 64.5 C 5.375 56.511719 6.9375 48.773438 10.019531 41.484375 C 12.996094 34.445312 17.261719 28.121094 22.691406 22.691406 C 28.125 17.257812 34.445312 12.996094 41.488281 10.015625 C 48.773438 6.9375 56.515625 5.375 64.5 5.375 C 72.484375 5.375 80.226562 6.9375 87.515625 10.015625 C 94.554688 12.996094 100.875 17.257812 106.308594 22.691406 C 111.742188 28.121094 116 34.445312 118.980469 41.484375 C 122.0625 48.773438 123.621094 56.511719 123.621094 64.5 C 123.621094 72.484375 122.0625 80.222656 118.980469 87.511719 C 116 94.550781 111.742188 100.875 106.308594 106.304688 Z M 106.308594 106.304688 " fill-opacity="1" fill-rule="nonzero"/><g clip-path="url(#f1a7ebccf4)"><path fill="#0aa8a7" d="M 74.84375 10.34375 C 39.222656 10.34375 10.34375 39.222656 10.34375 74.84375 C 10.34375 110.464844 39.222656 139.34375 74.84375 139.34375 C 110.464844 139.34375 139.34375 110.464844 139.34375 74.84375 C 139.34375 39.222656 110.464844 10.34375 74.84375 10.34375 Z M 116.652344 116.648438 C 111.222656 122.082031 104.898438 126.34375 97.859375 129.320312 C 90.570312 132.402344 82.828125 133.96875 74.84375 133.96875 C 66.859375 133.96875 59.117188 132.40625 51.832031 129.320312 C 44.792969 126.347656 38.46875 122.082031 33.035156 116.648438 C 27.605469 111.21875 23.34375 104.894531 20.363281 97.855469 C 17.28125 90.566406 15.71875 82.828125 15.71875 74.84375 C 15.71875 66.855469 17.28125 59.117188 20.363281 51.832031 C 23.34375 44.792969 27.605469 38.464844 33.035156 33.035156 C 38.46875 27.605469 44.792969 23.339844 51.832031 20.359375 C 59.117188 17.28125 66.859375 15.71875 74.84375 15.71875 C 82.828125 15.71875 90.570312 17.28125 97.859375 20.359375 C 104.898438 23.339844 111.21875 27.605469 116.652344 33.035156 C 122.085938 38.464844 126.347656 44.792969 129.324219 51.832031 C 132.410156 59.117188 133.96875 66.855469 133.96875 74.84375 C 133.96875 82.828125 132.410156 90.566406 129.324219 97.855469 C 126.34375 104.894531 122.085938 111.21875 116.652344 116.648438 Z M 116.652344 116.648438 " fill-opacity="1" fill-rule="nonzero"/></g><g clip-path="url(#a870c18ff7)"><path fill="#0aa8a7" d="M 85.191406 20.691406 C 49.566406 20.691406 20.691406 49.566406 20.691406 85.191406 C 20.691406 120.808594 49.566406 149.691406 85.191406 149.691406 C 120.808594 149.691406 149.691406 120.808594 149.691406 85.191406 C 149.691406 49.566406 120.808594 20.691406 85.191406 20.691406 Z M 127 126.996094 C 121.566406 132.425781 115.242188 136.691406 108.203125 139.667969 C 100.917969 142.75 93.171875 144.3125 85.191406 144.3125 C 77.207031 144.3125 69.460938 142.75 62.175781 139.667969 C 55.136719 136.691406 48.8125 132.425781 43.382812 126.996094 C 37.949219 121.566406 33.6875 115.238281 30.707031 108.199219 C 27.625 100.914062 26.066406 93.171875 26.066406 85.191406 C 26.066406 77.203125 27.625 69.460938 30.707031 62.175781 C 33.6875 55.136719 37.949219 48.808594 43.382812 43.382812 C 48.8125 37.949219 55.136719 33.683594 62.175781 30.703125 C 69.460938 27.625 77.207031 26.0625 85.191406 26.0625 C 93.171875 26.0625 100.917969 27.625 108.203125 30.703125 C 115.242188 33.683594 121.566406 37.949219 127 43.382812 C 132.429688 48.808594 136.691406 55.136719 139.671875 62.175781 C 142.753906 69.460938 144.3125 77.203125 144.3125 85.191406 C 144.3125 93.171875 142.753906 100.914062 139.671875 108.199219 C 136.691406 115.238281 132.429688 121.566406 127 126.996094 Z M 127 126.996094 " fill-opacity="1" fill-rule="nonzero"/></g></svg>