<svg xmlns="http://www.w3.org/2000/svg" xmlns:xlink="http://www.w3.org/1999/xlink" width="600" zoomAndPan="magnify" viewBox="0 0 450 149.999998" height="200" preserveAspectRatio="xMidYMid meet" version="1.0"><defs><g/><clipPath id="237d0486bb"><path d="M 0 0 L 129 0 L 129 129 L 0 129 Z M 0 0 " clip-rule="nonzero"/></clipPath><clipPath id="a623470982"><path d="M 10.34375 10.34375 L 139.34375 10.34375 L 139.34375 139.34375 L 10.34375 139.34375 Z M 10.34375 10.34375 " clip-rule="nonzero"/></clipPath><clipPath id="fbb7b87fa4"><path d="M 20.691406 20.691406 L 149.691406 20.691406 L 149.691406 149.691406 L 20.691406 149.691406 Z M 20.691406 20.691406 " clip-rule="nonzero"/></clipPath></defs><g fill="#0aa8a7" fill-opacity="1"><g transform="translate(167.495998, 109.983602)"><g><path d="M 16.203125 23.234375 C 12.960938 23.234375 10.441406 22.367188 8.640625 20.640625 C 6.835938 18.910156 5.9375 16.535156 5.9375 13.515625 C 5.9375 10.773438 6.675781 8.644531 8.15625 7.125 C 9.632812 5.613281 11.597656 4.859375 14.046875 4.859375 C 14.617188 4.859375 15.191406 4.910156 15.765625 5.015625 C 16.347656 5.128906 16.75 5.1875 16.96875 5.1875 L 18.375 5.40625 L 18.375 19.984375 C 20.457031 19.628906 22.289062 18.476562 23.875 16.53125 C 25.46875 14.582031 27.234375 11.234375 29.171875 6.484375 L 31.34375 1.078125 L 3.234375 -50.796875 L -2.15625 -52.40625 L -2.15625 -54.03125 L 11.34375 -54.03125 C 15.09375 -54.03125 18.066406 -53.253906 20.265625 -51.703125 C 22.460938 -50.160156 24.351562 -47.875 25.9375 -44.84375 L 39.4375 -19.890625 L 50.796875 -49.171875 L 42.6875 -52.40625 L 42.6875 -54.03125 L 62.671875 -54.03125 L 62.671875 -52.40625 L 54.03125 -49.171875 L 32.421875 6.484375 C 30.109375 12.390625 27.65625 16.65625 25.0625 19.28125 C 22.476562 21.914062 19.523438 23.234375 16.203125 23.234375 Z M 16.203125 23.234375 "/></g></g></g><g fill="#0aa8a7" fill-opacity="1"><g transform="translate(228.005548, 109.983602)"><g><path d="M 30.25 1.625 C 26.21875 1.625 22.597656 0.78125 19.390625 -0.90625 C 16.191406 -2.601562 13.691406 -4.820312 11.890625 -7.5625 C 10.085938 -10.300781 9.1875 -13.179688 9.1875 -16.203125 L 9.1875 -50.796875 L 2.703125 -52.40625 L 2.703125 -54.03125 L 16.75 -54.03125 C 23.226562 -54.03125 26.46875 -50.789062 26.46875 -44.3125 L 26.46875 -16.203125 C 26.46875 -11.671875 27.28125 -8.195312 28.90625 -5.78125 C 30.53125 -3.363281 32.421875 -2.15625 34.578125 -2.15625 C 37.242188 -2.15625 39.65625 -3.597656 41.8125 -6.484375 C 42.613281 -7.566406 43.445312 -9.007812 44.3125 -10.8125 L 44.3125 -50.796875 L 37.828125 -52.40625 L 37.828125 -54.03125 L 68.078125 -54.03125 L 68.078125 -52.40625 L 61.59375 -50.796875 L 61.59375 0.546875 L 60.515625 0.546875 C 55.253906 0.546875 51.253906 -0.894531 48.515625 -3.78125 C 47.296875 -5.082031 46.429688 -6.523438 45.921875 -8.109375 C 44.910156 -6.304688 43.722656 -4.679688 42.359375 -3.234375 C 39.117188 0.00390625 35.082031 1.625 30.25 1.625 Z M 30.25 1.625 "/></g></g></g><g fill="#0aa8a7" fill-opacity="1"><g transform="translate(298.239847, 109.983602)"><g><path d="M 4.328125 -2.703125 L 35.125 -51.328125 L 15.671875 -51.328125 C 15.671875 -47.367188 14.484375 -43.367188 12.109375 -39.328125 C 11.171875 -37.816406 10.015625 -36.414062 8.640625 -35.125 L 5.40625 -35.125 L 5.40625 -54.03125 L 54.578125 -54.03125 L 54.578125 -51.328125 L 23.78125 -2.703125 L 44.3125 -2.703125 C 44.3125 -6.804688 45.460938 -10.804688 47.765625 -14.703125 C 48.773438 -16.359375 49.960938 -17.757812 51.328125 -18.90625 L 54.578125 -18.90625 L 54.578125 0 L 4.328125 0 Z M 4.328125 -2.703125 "/></g></g></g><g fill="#0aa8a7" fill-opacity="1"><g transform="translate(357.128615, 109.983602)"><g><path d="M 4.328125 -1.625 L 10.8125 -3.234375 L 10.8125 -50.796875 L 4.328125 -52.40625 L 4.328125 -54.03125 L 18.375 -54.03125 C 24.851562 -54.03125 28.09375 -50.789062 28.09375 -44.3125 L 28.09375 -3.234375 L 34.578125 -1.625 L 34.578125 0 L 4.328125 0 Z M 18.375 -60.515625 C 16.207031 -60.515625 14.398438 -61.234375 12.953125 -62.671875 C 11.515625 -64.117188 10.796875 -65.921875 10.796875 -68.078125 C 10.796875 -70.242188 11.515625 -72.046875 12.953125 -73.484375 C 14.398438 -74.921875 16.207031 -75.640625 18.375 -75.640625 C 20.53125 -75.640625 22.328125 -74.921875 23.765625 -73.484375 C 25.210938 -72.046875 25.9375 -70.242188 25.9375 -68.078125 C 25.9375 -65.921875 25.210938 -64.117188 23.765625 -62.671875 C 22.328125 -61.234375 20.53125 -60.515625 18.375 -60.515625 Z M 18.375 -60.515625 "/></g></g></g><g clip-path="url(#237d0486bb)"><path fill="#0aa8a7" d="M 64.652344 0 C 28.945312 0 0 28.945312 0 64.652344 C 0 100.355469 28.945312 129.304688 64.652344 129.304688 C 100.355469 129.304688 129.304688 100.355469 129.304688 64.652344 C 129.304688 28.945312 100.355469 0 64.652344 0 Z M 106.558594 106.554688 C 101.113281 112 94.777344 116.273438 87.722656 119.257812 C 80.417969 122.347656 72.65625 123.914062 64.652344 123.914062 C 56.648438 123.914062 48.886719 122.347656 41.585938 119.257812 C 34.527344 116.273438 28.191406 112 22.746094 106.554688 C 17.300781 101.113281 13.027344 94.773438 10.042969 87.71875 C 6.953125 80.414062 5.386719 72.65625 5.386719 64.652344 C 5.386719 56.644531 6.953125 48.886719 10.042969 41.582031 C 13.027344 34.527344 17.300781 28.1875 22.746094 22.746094 C 28.191406 17.300781 34.527344 13.027344 41.585938 10.039062 C 48.886719 6.953125 56.648438 5.386719 64.652344 5.386719 C 72.65625 5.386719 80.417969 6.953125 87.722656 10.039062 C 94.777344 13.027344 101.113281 17.300781 106.558594 22.746094 C 112.003906 28.1875 116.273438 34.527344 119.261719 41.582031 C 122.351562 48.886719 123.914062 56.644531 123.914062 64.652344 C 123.914062 72.65625 122.351562 80.414062 119.261719 87.71875 C 116.273438 94.773438 112.003906 101.113281 106.558594 106.554688 Z M 106.558594 106.554688 " fill-opacity="1" fill-rule="nonzero"/></g><g clip-path="url(#a623470982)"><path fill="#0aa8a7" d="M 74.996094 10.34375 C 39.292969 10.34375 10.34375 39.289062 10.34375 74.996094 C 10.34375 110.699219 39.292969 139.648438 74.996094 139.648438 C 110.703125 139.648438 139.648438 110.699219 139.648438 74.996094 C 139.648438 39.289062 110.703125 10.34375 74.996094 10.34375 Z M 116.90625 116.902344 C 111.460938 122.347656 105.121094 126.621094 98.066406 129.601562 C 90.761719 132.691406 83 134.257812 74.996094 134.257812 C 66.996094 134.257812 59.234375 132.691406 51.929688 129.601562 C 44.871094 126.621094 38.535156 122.347656 33.089844 116.902344 C 27.644531 111.457031 23.371094 105.117188 20.386719 98.0625 C 17.296875 90.757812 15.734375 83 15.734375 74.996094 C 15.734375 66.992188 17.296875 59.234375 20.386719 51.929688 C 23.371094 44.871094 27.644531 38.53125 33.089844 33.089844 C 38.535156 27.644531 44.871094 23.371094 51.929688 20.382812 C 59.234375 17.296875 66.996094 15.730469 74.996094 15.730469 C 83 15.730469 90.761719 17.296875 98.066406 20.382812 C 105.121094 23.371094 111.457031 27.644531 116.90625 33.089844 C 122.351562 38.53125 126.621094 44.871094 129.605469 51.929688 C 132.695312 59.234375 134.257812 66.992188 134.257812 74.996094 C 134.257812 83 132.695312 90.757812 129.605469 98.0625 C 126.621094 105.117188 122.351562 111.457031 116.90625 116.902344 Z M 116.90625 116.902344 " fill-opacity="1" fill-rule="nonzero"/></g><g clip-path="url(#fbb7b87fa4)"><path fill="#0aa8a7" d="M 85.34375 20.691406 C 49.636719 20.691406 20.691406 49.632812 20.691406 85.34375 C 20.691406 121.046875 49.636719 149.996094 85.34375 149.996094 C 121.046875 149.996094 149.996094 121.046875 149.996094 85.34375 C 149.996094 49.632812 121.046875 20.691406 85.34375 20.691406 Z M 127.25 127.246094 C 121.804688 132.691406 115.464844 136.964844 108.410156 139.949219 C 101.105469 143.039062 93.34375 144.605469 85.34375 144.605469 C 77.339844 144.605469 69.578125 143.039062 62.273438 139.949219 C 55.21875 136.964844 48.878906 132.691406 43.433594 127.246094 C 37.992188 121.804688 33.71875 115.460938 30.730469 108.40625 C 27.640625 101.101562 26.078125 93.34375 26.078125 85.34375 C 26.078125 77.335938 27.640625 69.578125 30.730469 62.273438 C 33.71875 55.21875 37.992188 48.875 43.433594 43.433594 C 48.878906 37.988281 55.21875 33.714844 62.273438 30.726562 C 69.578125 27.640625 77.339844 26.074219 85.34375 26.074219 C 93.34375 26.074219 101.105469 27.640625 108.410156 30.726562 C 115.464844 33.714844 121.804688 37.988281 127.25 43.433594 C 132.695312 48.875 136.964844 55.21875 139.953125 62.273438 C 143.042969 69.578125 144.605469 77.335938 144.605469 85.34375 C 144.605469 93.34375 143.042969 101.101562 139.953125 108.40625 C 136.964844 115.460938 132.695312 121.804688 127.25 127.246094 Z M 127.25 127.246094 " fill-opacity="1" fill-rule="nonzero"/></g></svg>