<svg version="1.2" baseProfile="tiny-ps" xmlns="http://www.w3.org/2000/svg" viewBox="0 0 1534 807" width="1534" height="807">
	<title>banner-art-svg</title>
	<style>
		tspan { white-space:pre }
		.shp0 { fill: #b6d5d0 } 
		.shp1 { fill: #e9928b } 
		.shp2 { fill: #de6667 } 
		.shp3 { fill: #edf6f5 } 
		.shp4 { fill: #dceceb } 
		.shp5 { opacity: 0.58;fill: #376f92 } 
		.shp6 { opacity: 0.671;fill: #ffffff } 
		.shp7 { opacity: 0.278;fill: #ffffff } 
		.shp8 { fill: #ffffff } 
		.shp9 { fill: #ffab40 } 
		.shp10 { fill: #0c1b3c } 
		.shp11 { fill: #408c91 } 
		.shp12 { fill: #376f92 } 
		.shp13 { fill: #1b5175 } 
		.shp14 { fill: #adccc7 } 
		.shp15 { fill: #6eab9c } 
		.shp16 { opacity: 0.4;fill: #f4d7c9 } 
		.shp17 { opacity: 0.478;fill: #83a8bc } 
		.shp18 { fill: #aecbc7 } 
		.shp19 { fill: #b2e5e0 } 
		.shp20 { fill: #93405e } 
		.shp21 { fill: #67a4c3 } 
		.shp22 { fill: #4f91b3 } 
		.shp23 { fill: #f0d1aa } 
		.shp24 { fill: #edbf84 } 
		.shp25 { fill: #f4c8af } 
		.shp26 { fill: #f7dfd3 } 
		.shp27 { fill: #f2d6c8 } 
		.shp28 { fill: #f5b89b } 
		.shp29 { fill: #3fb8a9 } 
		.shp30 { opacity: 0.522;fill: #1b5175 } 
		.shp31 { fill: #ffac95 } 
		.shp32 { fill: #f5911f } 
		.shp33 { fill: #5f6386 } 
		.shp34 { fill: #4a4e73 } 
		.shp35 { opacity: 0.349;fill: #3fb8a9 } 
		.shp36 { fill: #eb908b } 
		.shp37 { fill: #ffaa3f } 
		.shp38 { fill: #83a8bc } 
		.shp39 { fill: #ffc945 } 
		.shp40 { fill: #b2d3e4 } 
		.shp41 { fill: #91415c } 
		.shp42 { fill: #75354a } 
		.shp43 { fill: #fdab3f } 
		.shp44 { fill: #489da2 } 
		.shp45 { fill: #040707 } 
		.shp46 { fill: #8babc0 } 
	</style>
	<path id="Layer" class="shp0" d="M585.12 630.41L585.12 579.75C585.12 563.96 572.32 551.15 556.52 551.15L520.37 551.15L520.37 792.09L566.71 792.09L585.12 792.09L642.3 792.09L642.3 687.59C642.3 671.8 629.5 658.99 613.7 658.99C597.92 659 585.12 646.2 585.12 630.41Z" />
	<path id="Layer" class="shp1" d="M895.84 731.84L872.77 754.37L865.01 742.83L852.63 724.41L882.29 710.63L890.39 723.31L895.84 731.84Z" />
	<path id="Layer" class="shp2" d="M890.39 723.31C878.49 729.38 869.36 738.16 865.01 742.83L852.63 724.41L882.29 710.63L890.39 723.31Z" />
	<path id="Layer" class="shp3" d="M963.9 55.95L474.18 55.95L474.18 311.3L963.9 311.3L963.9 55.95Z" />
	<path id="Layer" class="shp4" d="M579.93 78.89L501.05 78.89L501.05 151.63L579.93 151.63L579.93 78.89Z" />
	<path id="Layer" class="shp0" d="M915.28 144.75L912.32 144.75L912.32 140.31L907.89 140.31L907.89 137.35L915.28 137.35L915.28 144.75Z" />
	<path id="Layer" class="shp0" d="M895.79 140.31L883.68 140.31L883.68 137.35L895.79 137.35L895.79 140.31ZM871.6 140.31L859.49 140.31L859.49 137.35L871.6 137.35L871.6 140.31ZM847.39 140.31L835.29 140.31L835.29 137.35L847.39 137.35L847.39 140.31ZM823.2 140.31L811.1 140.31L811.1 137.35L823.2 137.35L823.2 140.31ZM799 140.31L786.9 140.31L786.9 137.35L799 137.35L799 140.31ZM774.81 140.31L762.71 140.31L762.71 137.35L774.81 137.35L774.81 140.31ZM750.62 140.31L738.52 140.31L738.52 137.35L750.62 137.35L750.62 140.31ZM726.41 140.31L714.31 140.31L714.31 137.35L726.41 137.35L726.41 140.31ZM702.22 140.31L690.12 140.31L690.12 137.35L702.22 137.35L702.22 140.31Z" />
	<path id="Layer" class="shp0" d="M673.58 144.75L670.63 144.75L670.63 137.35L678.02 137.35L678.02 140.31L673.58 140.31L673.58 144.75Z" />
	<path id="Layer" class="shp0" d="M673.58 265.58L670.63 265.58L670.63 253.5L673.58 253.5L673.58 265.58ZM673.58 241.42L670.63 241.42L670.63 229.33L673.58 229.33L673.58 241.42ZM673.58 217.25L670.63 217.25L670.63 205.17L673.58 205.17L673.58 217.25ZM673.58 193.08L670.63 193.08L670.63 181L673.58 181L673.58 193.08ZM673.58 168.92L670.63 168.92L670.63 156.84L673.58 156.84L673.58 168.92Z" />
	<path id="Layer" class="shp0" d="M678.02 285.05L670.63 285.05L670.63 277.67L673.58 277.67L673.58 282.09L678.02 282.09L678.02 285.05Z" />
	<path id="Layer" class="shp0" d="M895.79 285.05L883.68 285.05L883.68 282.09L895.79 282.09L895.79 285.05ZM871.6 285.05L859.49 285.05L859.49 282.09L871.6 282.09L871.6 285.05ZM847.39 285.05L835.29 285.05L835.29 282.09L847.39 282.09L847.39 285.05ZM823.2 285.05L811.1 285.05L811.1 282.09L823.2 282.09L823.2 285.05ZM799 285.05L786.9 285.05L786.9 282.09L799 282.09L799 285.05ZM774.81 285.05L762.71 285.05L762.71 282.09L774.81 282.09L774.81 285.05ZM750.62 285.05L738.52 285.05L738.52 282.09L750.62 282.09L750.62 285.05ZM726.41 285.05L714.31 285.05L714.31 282.09L726.41 282.09L726.41 285.05ZM702.22 285.05L690.12 285.05L690.12 282.09L702.22 282.09L702.22 285.05Z" />
	<path id="Layer" class="shp0" d="M915.28 285.05L907.89 285.05L907.89 282.09L912.32 282.09L912.32 277.67L915.28 277.67L915.28 285.05Z" />
	<path id="Layer" class="shp0" d="M915.28 265.58L912.32 265.58L912.32 253.5L915.28 253.5L915.28 265.58ZM915.28 241.42L912.32 241.42L912.32 229.33L915.28 229.33L915.28 241.42ZM915.28 217.25L912.32 217.25L912.32 205.17L915.28 205.17L915.28 217.25ZM915.28 193.08L912.32 193.08L912.32 181L915.28 181L915.28 193.08ZM915.28 168.92L912.32 168.92L912.32 156.84L915.28 156.84L915.28 168.92Z" />
	<path id="Layer" class="shp5" d="M686.95 325.1L429.03 325.1C424.98 325.1 421.7 321.81 421.7 317.77L421.7 191.11C421.7 187.06 424.98 183.78 429.03 183.78L686.95 183.78C691 183.78 694.28 187.06 694.28 191.11L694.28 317.78C694.27 321.81 691 325.1 686.95 325.1Z" />
	<path id="Layer" class="shp6" d="M450.03 323.62L681.72 323.62C681.72 323.62 674 269.56 661.84 253.13C649.68 236.7 639.49 259.37 626.02 286.32C612.55 313.27 584.61 325.43 564.24 298.48C543.86 271.53 534.66 262.98 511.98 277.45C489.3 291.91 471.56 279.75 464 261.02C456.44 242.29 450.03 242.61 450.03 242.61L450.03 323.62Z" />
	<path id="Layer" class="shp7" d="M450.03 323.62C450.03 323.62 460.71 324.12 469.26 312.28C477.81 300.45 480.11 282.38 489.3 276.79C498.5 271.2 507.05 276.79 519.86 300.2C532.68 323.62 552.72 312.61 561.27 289.28C569.82 265.95 573.76 254.77 587.89 253.46C602.02 252.15 610.9 269.57 615.83 286.32C620.76 303.09 633.58 308.67 646.39 301.77C659.21 294.87 681.72 323.63 681.72 323.63L450.03 323.63L450.03 323.62Z" />
	<path id="Layer" class="shp8" d="M454.47 213.04C452.02 213.04 450.03 211.05 450.03 208.6C450.03 206.15 452.02 204.16 454.47 204.16C456.92 204.16 458.91 206.15 458.91 208.6C458.91 211.05 456.92 213.04 454.47 213.04Z" />
	<path id="Layer" class="shp8" d="M562.92 205.97L469.92 205.97L469.92 211.22L562.92 211.22L562.92 205.97Z" />
	<path id="Layer" class="shp8" d="M454.47 229.06C452.02 229.06 450.03 227.07 450.03 224.62C450.03 222.17 452.02 220.18 454.47 220.18C456.92 220.18 458.91 222.17 458.91 224.62C458.91 227.07 456.92 229.06 454.47 229.06Z" />
	<path id="Layer" class="shp8" d="M541.56 221.99L469.92 221.99L469.92 227.24L541.56 227.24L541.56 221.99Z" />
	<path id="Layer" class="shp8" d="M589.17 86.35L510.29 86.35L510.29 159.09L589.17 159.09L589.17 86.35Z" />
	<path id="Layer" class="shp9" d="M579.93 118.54L551.25 131.51L522.57 118.54L522.57 137.93L579.93 137.93L579.93 118.54Z" />
	<path id="Layer" class="shp9" d="M579.93 109.78L522.57 109.78L522.57 114.97L551.25 127.65L579.93 114.97L579.93 109.78Z" />
	<path id="Layer" fill-rule="evenodd" class="shp8" d="M827.15 133.01L668.5 133.01L668.5 125.61L827.15 125.61L827.15 133.01ZM669.49 132.02L826.17 132.02L826.17 126.58L669.49 126.58L669.49 132.02Z" />
	<path id="Layer" fill-rule="evenodd" class="shp8" d="M827.15 102.44L668.5 102.44L668.5 95.04L827.15 95.04L827.15 102.44ZM669.49 101.46L826.17 101.46L826.17 96.02L669.49 96.02L669.49 101.46Z" />
	<path id="Layer" fill-rule="evenodd" class="shp8" d="M827.15 71.88L668.5 71.88L668.5 64.48L827.15 64.48L827.15 71.88ZM669.49 70.9L826.17 70.9L826.17 65.46L669.49 65.46L669.49 70.9Z" />
	<path id="Layer" class="shp4" d="M1072.78 186.23L1012.58 186.23L1012.58 230.57L1072.78 230.57L1072.78 186.23Z" />
	<path id="Layer" class="shp8" d="M1032.02 219.35L1018.92 209.47C1018.6 209.22 1018.4 208.85 1018.4 208.45C1018.4 208.05 1018.59 207.66 1018.91 207.41L1031.92 197.46L1033.49 199.51L1021.84 208.43L1033.57 217.27L1032.02 219.35Z" />
	<path id="Layer" class="shp8" d="M1053.33 219.35L1051.77 217.29L1063.5 208.45L1051.85 199.53L1053.42 197.48L1066.43 207.43C1066.75 207.68 1066.94 208.06 1066.94 208.47C1066.94 208.88 1066.74 209.26 1066.42 209.5L1053.33 219.35Z" />
	<path id="Layer" class="shp8" d="M1044.34 196.5L1038.54 219.78L1041.06 220.4L1046.85 197.13L1044.34 196.5Z" />
	<path id="Layer" class="shp1" d="M973.27 729.89L947.91 753.55L941.59 725.2L939.14 714.23L969.44 706.57L971.19 717.24L973.27 729.89Z" />
	<path id="Layer" class="shp2" d="M971.19 717.24C971.19 717.24 964.66 716.56 958.65 718.03C954.25 719.11 941.58 725.2 941.58 725.2L939.13 714.22L969.43 706.55L971.19 717.24Z" />
	<path id="Layer" class="shp10" d="M966.7 727.3C953.86 727.11 949.26 737.63 944.95 747.41C940.63 757.2 935.4 780 927.92 782.32C920.44 784.61 916.41 788.64 916.41 793.25L943.4 793.25C943.4 793.25 960.34 774.63 969.05 767.36C977.76 760.1 979.88 755.38 979.88 755.38C979.88 755.38 976.53 737.39 973.27 729.92C973.27 729.89 970.97 727.37 966.7 727.3Z" />
	<path id="Layer" class="shp11" d="M968.82 746.07C959.46 748.01 956.02 758.05 950.27 774.74C944.51 791.42 933.1 793.24 933.1 793.24L964.98 793.24C964.98 793.24 966.76 787.11 970.55 779.35C973.36 773.59 978.19 767.03 979.41 761.03C982.28 746.93 971.1 745.59 968.82 746.07Z" />
	<path id="Layer" class="shp12" d="M971.1 709.09C951.09 711.3 937.04 717.97 937.04 717.97C937.04 717.97 930.23 720.18 920.38 699.44C910.52 678.68 875.86 613.71 875.86 613.71L915.71 614.97L945.84 615.93C945.84 615.93 962.11 657.09 970 674.59C977.89 692.08 971.1 709.09 971.1 709.09Z" />
	<path id="Layer" class="shp13" d="M937.05 681.07C924.97 695.53 929.02 712.36 937.05 717.97C937.05 717.97 930.24 720.18 920.39 699.44C910.53 678.68 875.87 613.71 875.87 613.71L915.72 614.97L941.74 626.52C941.74 626.52 916.11 629.8 910.36 643.29C904.6 656.76 949.12 666.62 937.05 681.07Z" />
	<path id="Layer" class="shp14" d="M1533.09 796.49C1533.09 796.49 1533.21 723.8 1453.61 759.15C1453.61 759.15 1436.11 696.57 1390.28 699.53C1344.43 702.49 1339.99 761.71 1339.99 761.71C1339.99 761.71 1277.21 729.8 1243.53 794.51L1533.09 796.49Z" />
	<path id="Layer" class="shp15" d="M1399 793.91L1397.05 793.64C1402.35 755.78 1381.96 728.63 1381.75 728.36L1383.32 727.16C1383.52 727.43 1404.41 755.24 1399 793.91Z" />
	<path id="Layer" class="shp15" d="M1399.71 770.68L1398.11 769.51C1398.3 769.26 1416.92 743.65 1420.09 727.56L1422.03 727.93C1418.78 744.47 1400.49 769.62 1399.71 770.68Z" />
	<path id="Layer" class="shp15" d="M1398.83 784.1C1384.29 783.19 1371.43 765.99 1370.89 765.25L1372.48 764.09C1372.61 764.26 1385.33 781.28 1398.95 782.13L1398.83 784.1Z" />
	<path id="Layer" class="shp15" d="M1445.46 793.65L1448.11 791.75C1448.35 791.57 1473.56 773.71 1500.54 772.45L1500.63 774.42C1479.51 775.4 1459.44 786.83 1452.14 791.44L1478.32 790.53L1478.39 792.5L1445.46 793.65Z" />
	<path id="Layer" class="shp15" d="M1466.19 783.43L1464.32 782.79C1468.46 770.71 1477.21 759.29 1477.57 758.8L1479.14 760C1479.05 760.12 1470.22 771.66 1466.19 783.43Z" />
	<path id="Layer" class="shp15" d="M1339.54 793.3C1339.35 793.14 1319.8 776.72 1297.99 769.07L1298.64 767.21C1320.8 774.99 1340.61 791.63 1340.82 791.79L1339.54 793.3Z" />
	<path id="Layer" class="shp15" d="M1288.71 787.55L1287.81 785.79C1288.38 785.5 1302.16 778.61 1327.49 782.13L1327.22 784.09C1302.55 780.67 1288.84 787.49 1288.71 787.55Z" />
	<g id="Layer" style="opacity: 0.4">
		<path id="Layer" fill-rule="evenodd" class="shp16" d="M833.01 646.79C832.99 646.83 832.99 646.87 832.97 646.92C831.93 650.79 828.38 653.47 824.37 653.4L819.27 653.32C816 653.25 813.02 655.04 811.43 657.88C811.12 658.45 810.8 659.01 810.47 659.56C808.8 662.35 808.74 665.84 810.42 668.65L813.03 672.99C815.1 676.44 814.55 680.86 811.71 683.69C811.68 683.73 811.64 683.77 811.61 683.8C808.77 686.64 804.35 687.18 800.9 685.12L796.56 682.51C793.75 680.82 790.26 680.88 787.47 682.56C786.92 682.87 786.36 683.2 785.8 683.52C782.96 685.12 781.18 688.1 781.23 691.36L781.32 696.45C781.38 700.46 778.7 704.02 774.83 705.06C774.78 705.08 774.74 705.08 774.7 705.1C770.81 706.13 766.72 704.4 764.77 700.88L762.29 696.43C760.73 693.61 757.75 691.88 754.53 691.93C754.17 691.94 753.81 691.95 753.44 691.95C753.08 691.95 752.72 691.94 752.35 691.93C749.14 691.88 746.16 693.61 744.59 696.43L742.12 700.88C740.17 704.4 736.08 706.13 732.19 705.1C732.14 705.08 732.1 705.08 732.06 705.06C728.18 704.02 725.51 700.47 725.57 696.45L725.66 691.36C725.72 688.09 723.93 685.11 721.09 683.52C720.53 683.21 719.97 682.88 719.42 682.56C716.62 680.89 713.14 680.82 710.33 682.51L705.99 685.12C702.53 687.19 698.12 686.64 695.28 683.8C695.25 683.77 695.21 683.73 695.17 683.69C692.33 680.86 691.79 676.44 693.86 672.99L696.47 668.65C698.15 665.84 698.1 662.35 696.41 659.56C696.1 659.01 695.78 658.45 695.45 657.88C693.86 655.04 690.88 653.26 687.62 653.32L682.52 653.4C678.52 653.47 674.95 650.79 673.92 646.92C673.9 646.87 673.9 646.83 673.88 646.79C672.85 642.9 674.58 638.81 678.1 636.86L682.54 634.38C685.36 632.82 687.1 629.84 687.04 626.62C687.03 626.25 687.02 625.9 687.02 625.53C687.02 625.16 687.03 624.81 687.04 624.44C687.1 621.22 685.36 618.25 682.54 616.68L678.1 614.21C674.58 612.25 672.85 608.16 673.88 604.28C673.9 604.23 673.9 604.19 673.92 604.15C674.95 600.27 678.51 597.59 682.52 597.66L687.62 597.75C690.89 597.81 693.87 596.02 695.45 593.18C695.77 592.62 696.09 592.06 696.41 591.51C698.09 588.71 698.15 585.22 696.47 582.42L693.86 578.08C691.78 574.62 692.33 570.21 695.17 567.37C695.21 567.34 695.25 567.29 695.28 567.26C698.12 564.42 702.53 563.88 705.99 565.94L710.33 568.56C713.14 570.24 716.62 570.19 719.42 568.5C719.97 568.19 720.53 567.87 721.09 567.54C723.93 565.94 725.71 562.96 725.66 559.7L725.57 554.61C725.51 550.6 728.18 547.04 732.06 546C732.1 545.98 732.14 545.98 732.19 545.96C736.08 544.94 740.17 546.66 742.12 550.18L744.59 554.63C746.16 557.45 749.14 559.19 752.35 559.13C752.72 559.12 753.08 559.11 753.44 559.11C753.81 559.11 754.17 559.12 754.53 559.13C757.75 559.19 760.73 557.45 762.29 554.63L764.77 550.18C766.72 546.66 770.81 544.94 774.7 545.96C774.74 545.98 774.78 545.98 774.83 546C778.7 547.04 781.38 550.59 781.32 554.61L781.23 559.7C781.16 562.98 782.96 565.95 785.8 567.54C786.36 567.85 786.92 568.18 787.47 568.5C790.26 570.17 793.75 570.24 796.56 568.56L800.9 565.94C804.35 563.87 808.77 564.42 811.61 567.26C811.64 567.29 811.68 567.34 811.71 567.37C814.55 570.21 815.1 574.62 813.03 578.08L810.42 582.42C808.74 585.22 808.79 588.71 810.47 591.51C810.79 592.06 811.11 592.62 811.43 593.18C813.03 596.02 816.01 597.8 819.27 597.75L824.37 597.66C828.37 597.59 831.93 600.27 832.97 604.15C832.99 604.19 832.99 604.23 833.01 604.28C834.04 608.16 832.31 612.25 828.79 614.21L824.34 616.68C821.53 618.25 819.79 621.22 819.84 624.44C819.85 624.81 819.87 625.16 819.87 625.53C819.87 625.9 819.85 626.25 819.84 626.62C819.79 629.84 821.53 632.82 824.34 634.38L828.79 636.86C832.31 638.8 834.04 642.9 833.01 646.79ZM802.84 625.52C802.84 598.22 780.71 576.1 753.42 576.1C726.12 576.1 704 598.23 704 625.52C704 652.82 726.13 674.94 753.42 674.94C780.71 674.94 802.83 652.82 802.84 625.52Z" />
		<path id="Layer" class="shp16" d="M774.99 631.76C778.25 619.88 771.25 607.61 759.37 604.36C747.49 601.1 735.23 608.09 731.97 619.97C728.72 631.85 735.71 644.12 747.59 647.38C759.47 650.63 771.74 643.64 774.99 631.76Z" />
	</g>
	<g id="Layer" style="opacity: 0.4">
		<path id="Layer" fill-rule="evenodd" class="shp16" d="M1124.14 741.91C1124.13 741.93 1124.13 741.97 1124.12 741.99C1123.51 744.25 1121.44 745.82 1119.1 745.77L1116.12 745.73C1114.21 745.7 1112.47 746.74 1111.54 748.4C1111.36 748.72 1111.16 749.05 1110.98 749.37C1110 751.01 1109.97 753.04 1110.95 754.68L1112.47 757.22C1113.68 759.24 1113.37 761.81 1111.7 763.47C1111.68 763.49 1111.66 763.51 1111.64 763.53C1109.98 765.18 1107.41 765.51 1105.39 764.3L1102.85 762.78C1101.21 761.79 1099.17 761.83 1097.54 762.81C1097.23 762.99 1096.89 763.19 1096.57 763.37C1094.92 764.3 1093.87 766.05 1093.9 767.95L1093.95 770.93C1093.98 773.27 1092.42 775.34 1090.16 775.95C1090.14 775.96 1090.1 775.96 1090.08 775.97C1087.82 776.57 1085.43 775.56 1084.29 773.51L1082.84 770.92C1081.92 769.26 1080.18 768.25 1078.3 768.28C1078.09 768.29 1077.88 768.29 1077.67 768.29C1077.45 768.29 1077.25 768.28 1077.03 768.28C1075.15 768.26 1073.41 769.28 1072.5 770.92L1071.05 773.51C1069.92 775.56 1067.52 776.57 1065.25 775.97C1065.23 775.96 1065.2 775.96 1065.18 775.95C1062.91 775.34 1061.35 773.27 1061.39 770.93L1061.43 767.95C1061.47 766.04 1060.43 764.3 1058.77 763.37C1058.44 763.19 1058.12 762.99 1057.8 762.81C1056.15 761.83 1054.13 761.79 1052.48 762.78L1049.95 764.3C1047.93 765.51 1045.36 765.2 1043.7 763.53C1043.67 763.51 1043.65 763.49 1043.63 763.47C1041.98 761.81 1041.66 759.24 1042.87 757.22L1044.39 754.68C1045.37 753.04 1045.34 751 1044.36 749.37C1044.17 749.06 1043.98 748.72 1043.79 748.4C1042.87 746.75 1041.12 745.7 1039.22 745.73L1036.24 745.77C1033.89 745.81 1031.82 744.25 1031.22 741.99C1031.21 741.97 1031.21 741.93 1031.2 741.91C1030.59 739.64 1031.61 737.26 1033.66 736.11L1036.25 734.67C1037.9 733.75 1038.91 732.01 1038.88 730.13C1038.87 729.92 1038.87 729.71 1038.87 729.5C1038.87 729.28 1038.88 729.08 1038.88 728.86C1038.9 726.98 1037.89 725.24 1036.25 724.33L1033.66 722.88C1031.61 721.75 1030.59 719.35 1031.2 717.08C1031.21 717.06 1031.21 717.03 1031.22 717.01C1031.82 714.74 1033.89 713.17 1036.24 713.22L1039.22 713.26C1041.13 713.29 1042.87 712.26 1043.79 710.6C1043.98 710.27 1044.17 709.95 1044.36 709.62C1045.34 707.98 1045.37 705.95 1044.39 704.31L1042.87 701.78C1041.66 699.76 1041.97 697.19 1043.63 695.52C1043.65 695.5 1043.67 695.48 1043.7 695.46C1045.36 693.81 1047.93 693.49 1049.95 694.69L1052.48 696.22C1054.13 697.2 1056.16 697.17 1057.8 696.18C1058.11 696 1058.44 695.81 1058.77 695.62C1060.42 694.69 1061.47 692.95 1061.43 691.04L1061.39 688.07C1061.36 685.72 1062.91 683.65 1065.18 683.05C1065.2 683.04 1065.23 683.04 1065.25 683.02C1067.52 682.42 1069.91 683.43 1071.05 685.49L1072.5 688.08C1073.41 689.73 1075.15 690.74 1077.03 690.71C1077.25 690.7 1077.45 690.7 1077.67 690.7C1077.88 690.7 1078.09 690.71 1078.3 690.71C1080.18 690.73 1081.92 689.72 1082.84 688.08L1084.29 685.49C1085.42 683.43 1087.82 682.42 1090.08 683.02C1090.1 683.04 1090.14 683.04 1090.16 683.05C1092.42 683.65 1093.99 685.72 1093.95 688.07L1093.9 691.04C1093.87 692.96 1094.91 694.69 1096.57 695.62C1096.89 695.81 1097.22 696 1097.54 696.18C1099.18 697.17 1101.21 697.2 1102.85 696.22L1105.39 694.69C1107.41 693.49 1109.98 693.8 1111.64 695.46C1111.66 695.48 1111.68 695.5 1111.7 695.52C1113.36 697.19 1113.68 699.76 1112.47 701.78L1110.95 704.31C1109.97 705.95 1110 707.99 1110.98 709.62C1111.16 709.94 1111.36 710.27 1111.54 710.6C1112.47 712.25 1114.22 713.29 1116.12 713.26L1119.1 713.22C1121.44 713.17 1123.51 714.74 1124.12 717.01C1124.13 717.03 1124.13 717.06 1124.14 717.08C1124.74 719.35 1123.73 721.74 1121.68 722.88L1119.09 724.33C1117.44 725.24 1116.42 726.98 1116.45 728.86C1116.46 729.08 1116.46 729.28 1116.46 729.5C1116.46 729.71 1116.45 729.92 1116.45 730.13C1116.43 732.01 1117.45 733.75 1119.09 734.67L1121.68 736.11C1123.73 737.25 1124.73 739.64 1124.14 741.91ZM1106.52 729.5C1106.52 713.56 1093.61 700.65 1077.68 700.65C1061.75 700.65 1048.84 713.56 1048.84 729.5C1048.84 745.43 1061.75 758.34 1077.68 758.34C1093.61 758.34 1106.52 745.43 1106.52 729.5Z" />
	</g>
	<path id="Layer" class="shp17" d="M1129.58 109.78L1260.25 109.78L1260.25 154.79L1236.96 154.79L1249.11 183.4L1205.68 154.79L1129.58 154.79L1129.58 109.78Z" />
	<path id="Layer" class="shp8" d="M1246.67 122.93L1145.08 122.93L1145.08 127.9L1246.67 127.9L1246.67 122.93Z" />
	<path id="Layer" class="shp8" d="M1246.67 136.73L1145.08 136.73L1145.08 141.69L1246.67 141.69L1246.67 136.73Z" />
	<path id="Layer" class="shp18" d="M1533.08 791.8L372.04 791.8L372.04 806.08L1533.08 806.08L1533.08 791.8Z" />
	<path id="Layer" class="shp0" d="M987.83 495.5L987.83 480.01L973.89 476.41L963.2 463.67L965.98 456.05L880.86 358.78L525.25 358.78C521.76 358.78 518.94 361.61 518.94 365.09L518.94 376.09L519.02 376.16C519.24 377.93 519.96 379.71 521.28 381.27L615.61 493.71C622.47 501.87 632.58 506.6 643.25 506.6L977.97 506.6C983.44 506.6 987.28 502.46 987.83 497.77C987.92 497.04 987.92 496.27 987.83 495.5Z" />
	<path id="Layer" class="shp8" d="M977.98 491.12L643.25 491.12C632.59 491.12 622.47 486.41 615.62 478.24L521.27 365.81C515.86 359.36 520.44 349.53 528.86 349.53L863.58 349.53C874.25 349.53 884.36 354.25 891.22 362.42L985.57 474.85C990.98 481.29 986.39 491.12 977.98 491.12Z" />
	<path id="Layer" class="shp19" d="M936.28 466.39C935.62 466.39 935 466.1 934.58 465.6L869.53 388.32C868.31 386.88 869.34 384.67 871.23 384.67C871.88 384.67 872.5 384.96 872.92 385.46L937.97 462.74C939.19 464.18 938.16 466.39 936.28 466.39Z" />
	<path id="Layer" class="shp4" d="M681.87 434.17L606.61 434.17C604.84 434.17 603.16 433.38 602.02 432.02L565.12 387.74C563.86 386.24 564.93 383.97 566.88 383.97L642.14 383.97C643.91 383.97 645.59 384.76 646.73 386.12L683.63 430.4C684.88 431.9 683.82 434.17 681.87 434.17Z" />
	<path id="Layer" class="shp19" d="M645.33 467.14L634.24 467.14C632.47 467.14 630.79 466.37 629.66 465.01L616.01 448.72C614.76 447.22 615.82 444.95 617.77 444.95L628.87 444.95C630.64 444.95 632.31 445.73 633.45 447.09L647.09 463.38C648.34 464.87 647.29 467.14 645.33 467.14Z" />
	<path id="Layer" class="shp19" d="M677.42 467.14L666.32 467.14C664.55 467.14 662.88 466.37 661.74 465.01L648.1 448.72C646.85 447.22 647.9 444.95 649.86 444.95L660.95 444.95C662.72 444.95 664.4 445.73 665.53 447.09L679.18 463.38C680.43 464.87 679.37 467.14 677.42 467.14Z" />
	<path id="Layer" class="shp19" d="M709.5 467.14L698.4 467.14C696.63 467.14 694.96 466.37 693.82 465.01L680.18 448.72C678.93 447.22 679.99 444.95 681.94 444.95L693.04 444.95C694.81 444.95 696.48 445.73 697.61 447.09L711.26 463.38C712.51 464.87 711.45 467.14 709.5 467.14Z" />
	<path id="Layer" class="shp4" d="M769.13 405.05L684.11 405.05C682.35 405.05 680.67 404.27 679.54 402.93L666.82 387.76C665.56 386.26 666.62 383.98 668.57 383.98L753.6 383.98C755.35 383.98 757.03 384.76 758.16 386.11L770.89 401.27C772.14 402.77 771.08 405.05 769.13 405.05Z" />
	<path id="Layer" class="shp4" d="M795.15 436.07L710.13 436.07C708.38 436.07 706.7 435.29 705.57 433.94L692.84 418.77C691.59 417.29 692.65 415 694.6 415L779.62 415C781.38 415 783.05 415.77 784.19 417.12L796.91 432.29C798.17 433.79 797.1 436.07 795.15 436.07Z" />
	<path id="Layer" class="shp4" d="M821.24 467.15L736.22 467.15C734.46 467.15 732.78 466.37 731.65 465.02L718.92 449.85C717.67 448.36 718.73 446.07 720.68 446.07L805.7 446.07C807.46 446.07 809.13 446.85 810.27 448.2L823 463.37C824.25 464.87 823.19 467.15 821.24 467.15Z" />
	<path id="Layer" class="shp19" d="M858.7 466.39C858.05 466.39 857.43 466.1 857.01 465.6L791.96 388.32C790.74 386.88 791.76 384.67 793.65 384.67C794.31 384.67 794.93 384.96 795.35 385.46L860.4 462.74C861.62 464.18 860.59 466.39 858.7 466.39Z" />
	<path id="Layer" class="shp19" d="M810.63 401.33L801.37 401.33C800.03 401.33 798.05 400.25 796.92 398.91L793.56 394.91C792.43 393.57 792.61 392.49 793.95 392.49L803.21 392.49C804.55 392.49 806.53 393.57 807.65 394.91L811.02 398.91C812.15 400.25 811.97 401.33 810.63 401.33Z" />
	<path id="Layer" class="shp4" d="M811.27 399.18L802.01 399.18C800.67 399.18 798.68 398.1 797.56 396.76L794.19 392.76C793.07 391.42 793.24 390.34 794.58 390.34L803.84 390.34C805.18 390.34 807.17 391.42 808.29 392.76L811.66 396.76C812.78 398.1 812.6 399.18 811.27 399.18Z" />
	<path id="Layer" class="shp19" d="M904.81 421.4L895.55 421.4C894.21 421.4 892.22 420.32 891.1 418.98L887.73 414.98C886.61 413.64 886.78 412.56 888.12 412.56L897.38 412.56C898.72 412.56 900.71 413.64 901.83 414.98L905.2 418.98C906.31 420.32 906.14 421.4 904.81 421.4Z" />
	<path id="Layer" class="shp4" d="M905.44 419.26L896.17 419.26C894.84 419.26 892.85 418.18 891.73 416.84L888.36 412.84C887.24 411.5 887.41 410.42 888.75 410.42L898.01 410.42C899.35 410.42 901.34 411.5 902.46 412.84L905.83 416.84C906.95 418.17 906.78 419.26 905.44 419.26Z" />
	<path id="Layer" class="shp19" d="M897.84 466.39C897.18 466.39 896.56 466.1 896.14 465.6L831.09 388.32C829.87 386.88 830.9 384.67 832.79 384.67C833.45 384.67 834.06 384.96 834.48 385.46L899.53 462.74C900.75 464.18 899.73 466.39 897.84 466.39Z" />
	<path id="Layer" class="shp19" d="M888.57 447.59L879.31 447.59C877.97 447.59 875.99 446.51 874.86 445.17L871.5 441.17C870.37 439.83 870.55 438.75 871.88 438.75L881.15 438.75C882.49 438.75 884.47 439.83 885.59 441.17L888.96 445.17C890.09 446.5 889.91 447.59 888.57 447.59Z" />
	<path id="Layer" class="shp4" d="M889.21 445.44L879.95 445.44C878.61 445.44 876.62 444.36 875.5 443.02L872.13 439.02C871.01 437.68 871.18 436.6 872.52 436.6L881.78 436.6C883.12 436.6 885.11 437.68 886.23 439.02L889.6 443.02C890.72 444.36 890.55 445.44 889.21 445.44Z" />
	<path id="Layer" class="shp12" d="M998.67 564.45C998.67 564.45 993.31 581.08 974.18 595.67C964.93 602.74 952.46 609.34 935.81 613.35C884.77 625.69 843.91 621.23 840.95 621.72C838.31 622.15 863.77 662.38 878.09 686.53C879.87 689.53 881.48 692.27 882.84 694.67C883.01 694.96 883.17 695.25 883.33 695.53C895 716.51 888.76 721.77 888.76 721.77C876.93 723.25 860.66 736.56 860.66 736.56C836.01 742.98 821.23 704.52 807.42 688.26C793.61 671.99 758.12 623.68 773.9 597.56C789.67 571.43 929.93 537.91 929.93 537.91L943.91 543.3L970.28 553.48L998.67 564.45Z" />
	<path id="Layer" class="shp13" d="M882.85 694.69C883.03 694.99 883.18 695.28 883.34 695.56C883.14 695.32 882.98 695.03 882.85 694.69Z" />
	<path id="Layer" class="shp13" d="M983.88 582.16C983.81 582.34 980.11 587.57 974.18 595.68C964.93 602.75 952.46 609.35 935.81 613.37C884.77 625.71 843.9 621.25 840.95 621.73C838.31 622.16 863.77 662.4 878.09 686.54C869.5 676.2 855.92 674.84 845.76 654.16C833.43 629.06 804.35 655.11 799.04 634.4C793.73 613.7 814.22 615.18 844.28 601.87C874.36 588.56 879.28 593.98 906.55 588.55C933.83 583.12 929.54 549.67 929.54 549.67L943.9 543.33L963.88 540.75C963.88 540.75 966.72 546.38 970.27 553.51C976.23 565.45 984.14 581.53 983.88 582.16Z" />
	<path id="Layer" class="shp10" d="M895.83 731.83C895.83 731.83 910.02 743.68 910.35 752.68C910.67 761.69 880.47 792.19 880.47 792.19L842.16 792.19C842.16 792.19 838.05 785.91 848.65 781.4C859.25 776.9 860.31 776.63 864.3 772.38C868.27 768.14 871.72 756.74 878.08 744.81C884.44 732.89 895.83 731.83 895.83 731.83Z" />
	<path id="Layer" class="shp1" d="M909.88 267.35C909.88 267.35 900.91 261.83 897.92 255.62C894.93 249.41 887.34 235.84 886.89 232.63C886.44 229.41 892.87 232.85 896.55 239.3C896.55 239.3 894.03 232.4 889.43 223.43C884.83 214.46 877.47 208.94 879.31 204.57C881.15 200.2 894.49 216.76 896.1 219.52C897.71 222.29 900.92 219.3 905.07 221.36C909.2 223.43 909.2 221.13 913.35 223.66C917.48 226.18 921.04 231.32 925.36 253.94L909.88 267.35Z" />
	<path id="Layer" class="shp1" d="M804.18 439.56C804.18 439.56 799.32 437.88 791.11 429.98C782.9 422.08 778.03 419.2 775.3 417.98C772.57 416.76 768.16 415.4 763.6 415.7C759.05 416 756.61 413.88 757.67 412.35C758.74 410.83 763 409.77 763 409.77C763 409.77 754.64 410.53 756.77 406.73C758.89 402.93 770.9 404.45 770.9 404.45C770.9 404.45 773.18 401.57 776.37 401.57C779.57 401.57 779.25 398.99 785.64 399.75C792.02 400.5 795.37 404.3 802.05 405.82C808.74 407.35 814.26 421.25 814.26 421.25L804.18 439.56Z" />
	<path id="Layer" class="shp20" d="M814.23 419.7C814.23 419.7 803.49 429.19 800.21 439.22L799.05 442.18L805.29 450.89L819.76 423.29L814.23 419.7Z" />
	<path id="Layer" class="shp20" d="M908.74 275.93L903.57 267.8C903.57 267.8 913.67 255.97 926.74 252.51L929.95 258.18L908.74 275.93Z" />
	<path id="Layer" class="shp21" d="M1063.59 380.89L1024.29 401.74L1018.45 404.84C1018.45 404.84 1016.36 403.79 1012.95 402.01C1001.81 396.16 976.51 382.39 963.7 371.32C957.74 366.18 947.86 353.86 937.59 340.09C918.99 315.17 899.12 285.56 899.12 285.56C913.41 263.37 929.94 255.98 929.94 255.98C929.94 255.98 974.46 318.59 981.36 324.5C985.39 327.97 1012.81 346.66 1034.9 361.59C1050.59 372.19 1063.59 380.89 1063.59 380.89Z" />
	<path id="Layer" class="shp22" d="M1063.59 380.89L1024.29 401.74C1020.8 401.82 1016.95 401.91 1012.96 402.01C1001.82 396.16 976.52 382.39 963.71 371.32C957.75 366.18 947.87 353.86 937.61 340.09C945.77 344.35 953.82 348.08 958.5 352.12C968.69 360.94 965.74 350.14 1011.1 356.38C1020.06 357.61 1027.98 359.44 1034.92 361.56C1050.6 372.19 1063.59 380.89 1063.59 380.89Z" />
	<path id="Layer" class="shp1" d="M1032.22 374.6C1032.22 374.6 998.21 395.47 998.13 382.33C998.11 377.93 997.31 374.12 996.26 371.02C994.19 364.87 991.14 361.45 991.14 361.45C991.14 361.45 991.13 361.47 991.11 361.49C978.97 374.43 973.55 370.33 972.07 367.87C970.59 365.41 960.57 344.7 962.04 337.79C963.52 330.89 963.2 326.78 961.06 322.51C958.93 318.24 962.04 307.89 962.04 307.89L990.97 301.8C990.97 301.8 1017.76 329.08 1020.05 338.28C1022.36 347.49 1032.22 374.6 1032.22 374.6Z" />
	<path id="Layer" class="shp21" d="M1070.67 463.99C1061.8 490.62 1013.53 579.51 988.27 582.05C977.98 583.08 964.69 576.36 952.58 568.02C934.98 555.92 919.84 540.44 919.84 540.44C942.02 524.72 939.06 475.12 939.06 475.12C939.06 475.12 939.06 475.13 939.05 475.14C938.57 475.55 907.35 501.47 886.41 503.91C865.31 506.38 797.09 459.05 797.09 459.05C797.09 459.05 812.37 420.6 819.77 422.08C827.16 423.56 875.97 455.11 884.32 455.6C892.68 456.09 940.04 413.69 951.83 401.86C963.63 390.03 1010.04 371.79 1042.57 371.3C1042.57 371.3 1063.77 374.75 1071.17 390.52C1078.55 406.32 1079.55 437.37 1070.67 463.99Z" />
	<path id="Layer" class="shp10" d="M976.16 278.63C960.72 280.48 946.05 291.93 950.78 303.4C955.52 314.87 964.77 316.25 970.7 316.32C976.63 316.4 978.59 319.92 980.66 323.12C982.74 326.33 983.65 324.34 986.26 319.15C988.86 313.95 994.82 317.67 994.97 324.68C995.12 331.68 993.9 348.66 1006.43 348.97C1018.97 349.27 1021.41 344.08 1021.88 344.08C1022.34 344.08 1032.58 323.13 1031.82 304.78C1031.82 304.78 1044.82 298.06 1042.37 287.35C1039.92 276.65 1025.85 274.5 1017.44 283.14C1017.44 283.14 1010.4 283.52 1003.83 279.09C997.26 274.65 988.38 272.52 984.26 275.12C980.14 277.71 979.99 278.16 976.16 278.63Z" />
	<path id="Layer" class="shp23" d="M987.19 631.13L973.98 631.13L973.98 781.14L987.19 781.14L987.19 631.13Z" />
	<path id="Layer" class="shp24" d="M987.19 781.14L980.58 781.14L980.58 631.13L987.19 630.72L987.19 781.14Z" />
	<path id="Layer" class="shp24" d="M1032.84 792.24L928.32 792.24C928.32 789.17 929.56 786.41 931.57 784.4C933.58 782.39 936.35 781.15 939.42 781.15L1021.74 781.15C1027.87 781.14 1032.84 786.1 1032.84 792.24Z" />
	<path id="Layer" class="shp23" d="M999.49 792.24L928.33 792.24C928.33 789.17 929.57 786.41 931.58 784.4C933.59 782.39 936.36 781.15 939.43 781.15L980.59 781.15L999.49 792.24Z" />
	<path id="Layer" class="shp25" d="M1110.28 473.74C1109.34 474.17 1108.42 474.64 1107.53 475.13C1107.24 475.3 1106.94 475.46 1106.66 475.62C1106.37 475.78 1106.09 475.94 1105.81 476.12C1105.53 476.28 1105.25 476.45 1104.97 476.63C1104.71 476.8 1104.45 476.96 1104.2 477.12C1103.9 477.31 1103.61 477.51 1103.33 477.71C1103.06 477.9 1102.79 478.08 1102.52 478.28C1102.25 478.47 1101.98 478.66 1101.72 478.86C1100.83 479.52 1099.96 480.21 1099.11 480.92C1098.79 481.18 1098.49 481.44 1098.19 481.71C1097.11 482.66 1096.06 483.65 1095.06 484.69L1095.03 484.72C1094.62 485.14 1094.21 485.57 1093.8 486.02C1093.74 486.08 1093.68 486.16 1093.61 486.22C1093.21 486.65 1092.82 487.1 1092.44 487.55C1092 488.05 1091.59 488.54 1091.18 489.05C1091.16 489.08 1091.13 489.11 1091.11 489.15C1090.72 489.62 1090.34 490.11 1089.97 490.59C1089.58 491.1 1089.19 491.62 1088.81 492.15C1088.79 492.18 1088.77 492.2 1088.74 492.23C1088.37 492.75 1088 493.27 1087.64 493.8C1087.25 494.35 1086.89 494.9 1086.52 495.46C1086.52 495.46 1086.52 495.47 1086.51 495.47C1086.19 495.97 1085.87 496.46 1085.56 496.97C1085.47 497.11 1085.39 497.25 1085.3 497.39C1085.22 497.51 1085.14 497.64 1085.06 497.77C1084.48 498.72 1083.92 499.68 1083.37 500.66C1082.7 501.85 1082.04 503.07 1081.42 504.3C1081.1 504.92 1080.79 505.54 1080.49 506.17C1080.17 506.8 1079.87 507.42 1079.58 508.06C1078.99 509.33 1078.4 510.62 1077.84 511.92C1077.56 512.57 1077.28 513.23 1077.01 513.89C1076.73 514.55 1076.46 515.22 1076.2 515.87C1075.96 516.45 1075.75 517.02 1075.52 517.6C1075.23 518.37 1074.94 519.13 1074.65 519.91C1074.39 520.59 1074.15 521.26 1073.9 521.95C1073.87 522.03 1073.85 522.11 1073.81 522.19C1073.6 522.79 1073.38 523.4 1073.18 524C1072.69 525.41 1072.21 526.82 1071.74 528.25C1071.53 528.9 1071.31 529.57 1071.11 530.23C1070.89 530.93 1070.67 531.62 1070.45 532.33C1070.04 533.65 1069.64 534.97 1069.25 536.3C1069.23 536.37 1069.21 536.46 1069.18 536.54C1068.97 537.24 1068.77 537.95 1068.57 538.65C1068.56 538.66 1068.56 538.67 1068.56 538.68C1068.36 539.38 1068.16 540.08 1067.96 540.77C1067.7 541.66 1067.47 542.56 1067.22 543.46C1067.08 543.96 1066.94 544.48 1066.81 544.99C1066.73 545.27 1066.66 545.56 1066.57 545.84C1066.07 547.66 1065.6 549.49 1065.12 551.3C1064.66 553.07 1064.21 554.83 1063.75 556.57C1063.56 557.32 1063.37 558.05 1063.18 558.79C1062.59 561.12 1061.99 563.41 1061.41 565.67C1061.23 566.33 1061.07 567 1060.89 567.66C1060.58 568.86 1060.26 570.04 1059.94 571.21C1059.75 571.93 1059.55 572.67 1059.35 573.38C1058.64 575.96 1057.92 578.46 1057.18 580.89C1057.02 581.44 1056.85 581.99 1056.68 582.53C1056.56 582.92 1056.43 583.3 1056.32 583.69C1056.22 584.01 1056.11 584.35 1056 584.66C1055.66 585.72 1055.31 586.76 1054.95 587.78C1054.57 588.88 1054.18 589.95 1053.78 591C1053.76 591.05 1053.74 591.1 1053.72 591.16C1053.54 591.63 1053.36 592.09 1053.17 592.55C1053.01 592.95 1052.85 593.35 1052.69 593.74C1052.65 593.84 1052.6 593.95 1052.56 594.05C1052.38 594.5 1052.17 594.95 1051.98 595.4C1051.97 595.43 1051.94 595.48 1051.92 595.51C1051.71 595.98 1051.49 596.46 1051.28 596.92C1051.06 597.39 1050.84 597.84 1050.62 598.28C1050.45 598.62 1050.29 598.94 1050.12 599.26C1050.04 599.42 1049.97 599.57 1049.88 599.71C1049.67 600.1 1049.46 600.47 1049.24 600.85C1049.15 601.03 1049.04 601.21 1048.94 601.38C1048.81 601.61 1048.67 601.83 1048.53 602.06C1030 632.22 977.3 631.13 977.3 631.13L899.89 631.13C881.72 631.13 881.35 612.6 902.07 611.14C922.78 609.68 963.12 585.7 981.29 533.01C990.1 507.46 1000.36 492.25 1008.59 483.36C1015.59 475.79 1025.5 471.58 1035.8 471.58L1109.79 471.58C1111.02 471.58 1111.38 473.24 1110.28 473.74Z" />
	<path id="Layer" class="shp26" d="M1107.53 475.13C1107.24 475.3 1106.94 475.46 1106.66 475.62C1106.37 475.78 1106.09 475.94 1105.81 476.12C1105.53 476.28 1105.25 476.45 1104.97 476.63C1104.71 476.8 1104.46 476.96 1104.2 477.12C1103.9 477.31 1103.61 477.51 1103.33 477.71C1103.05 477.9 1102.78 478.08 1102.52 478.28C1102.25 478.47 1101.98 478.67 1101.72 478.86C1100.83 479.52 1099.96 480.21 1099.11 480.92C1098.79 481.18 1098.49 481.44 1098.19 481.71C1097.11 482.66 1096.06 483.65 1095.06 484.69L1095.03 484.72C1094.62 485.14 1094.21 485.57 1093.8 486.02C1093.74 486.08 1093.68 486.16 1093.61 486.22C1093.21 486.65 1092.82 487.1 1092.44 487.55C1092 488.05 1091.59 488.54 1091.18 489.05C1091.16 489.08 1091.13 489.11 1091.11 489.15C1090.73 489.62 1090.34 490.11 1089.97 490.59C1089.59 491.11 1089.19 491.63 1088.81 492.15C1088.79 492.18 1088.77 492.2 1088.74 492.23C1088.38 492.75 1088 493.27 1087.64 493.8C1087.26 494.35 1086.9 494.9 1086.52 495.46C1086.52 495.46 1086.52 495.47 1086.51 495.47C1086.2 495.97 1085.87 496.46 1085.56 496.97C1085.47 497.11 1085.39 497.25 1085.3 497.39C1085.22 497.51 1085.15 497.64 1085.07 497.77L1085.06 497.77C1084.48 498.72 1083.92 499.68 1083.37 500.67C1082.7 501.85 1082.04 503.07 1081.42 504.3C1081.1 504.92 1080.79 505.53 1080.49 506.17C1080.18 506.8 1079.87 507.42 1079.58 508.06C1078.99 509.33 1078.4 510.62 1077.84 511.92C1077.56 512.57 1077.28 513.23 1077.01 513.89C1076.73 514.55 1076.46 515.22 1076.2 515.88C1075.96 516.45 1075.75 517.02 1075.52 517.6C1075.23 518.37 1074.94 519.13 1074.65 519.91C1074.4 520.59 1074.15 521.26 1073.9 521.95C1073.87 522.03 1073.85 522.11 1073.81 522.19C1073.6 522.79 1073.38 523.4 1073.18 524C1072.69 525.41 1072.21 526.82 1071.74 528.25C1071.53 528.9 1071.32 529.57 1071.1 530.23C1070.89 530.93 1070.67 531.62 1070.45 532.33C1070.04 533.65 1069.64 534.98 1069.25 536.3C1069.23 536.37 1069.21 536.46 1069.18 536.54C1068.98 537.24 1068.77 537.95 1068.57 538.65C1068.56 538.66 1068.56 538.67 1068.56 538.68C1068.36 539.38 1068.17 540.07 1067.96 540.77C1067.7 541.66 1067.47 542.56 1067.22 543.46C1067.08 543.97 1066.94 544.48 1066.81 544.99C1066.73 545.27 1066.66 545.56 1066.57 545.84C1066.09 547.67 1065.6 549.49 1065.12 551.3C1064.66 553.07 1064.21 554.83 1063.75 556.57C1063.56 557.32 1063.38 558.06 1063.18 558.79C1062.59 561.12 1061.99 563.41 1061.41 565.67C1061.24 566.34 1061.07 567 1060.89 567.66C1060.58 568.86 1060.26 570.04 1059.94 571.21C1059.75 571.93 1059.55 572.67 1059.35 573.38C1058.64 575.96 1057.92 578.46 1057.18 580.89C1057.02 581.44 1056.85 581.99 1056.68 582.53C1056.56 582.92 1056.43 583.3 1056.32 583.69C1056.22 584.01 1056.11 584.35 1056 584.66C1055.66 585.72 1055.31 586.76 1054.95 587.78C1054.57 588.88 1054.18 589.95 1053.78 591C1053.76 591.05 1053.74 591.1 1053.72 591.16C1053.54 591.63 1053.36 592.09 1053.17 592.55C1053.01 592.95 1052.85 593.35 1052.69 593.74C1052.65 593.84 1052.6 593.95 1052.56 594.05C1052.38 594.5 1052.17 594.95 1051.98 595.4C1051.97 595.43 1051.94 595.48 1051.92 595.51C1051.71 595.98 1051.49 596.46 1051.28 596.92C1051.06 597.39 1050.84 597.84 1050.62 598.28C1050.45 598.62 1050.29 598.94 1050.12 599.26C1050.04 599.42 1049.97 599.57 1049.88 599.71C1049.67 600.1 1049.46 600.47 1049.24 600.85C1049.01 601.26 1048.77 601.66 1048.53 602.06C1030 632.22 977.3 631.13 977.3 631.13L904.79 631.13C899.62 627.09 902.13 620.93 915.88 619.96C936.6 618.5 981.36 589.26 999.53 536.56C1008.34 511.02 1018.6 495.81 1026.84 486.91C1033.83 479.35 1043.73 475.13 1054.04 475.13L1107.53 475.13L1107.53 475.13Z" />
	<path id="Layer" class="shp25" d="M1085.05 497.78C1084.47 498.73 1083.91 499.69 1083.36 500.68C1082.69 501.86 1082.03 503.08 1081.42 504.31C1081.09 504.93 1080.78 505.54 1080.48 506.18C1080.17 506.81 1079.86 507.43 1079.57 508.07C1078.98 509.34 1078.39 510.63 1077.83 511.93C1077.55 512.58 1077.27 513.24 1077 513.9C1076.72 514.56 1076.45 515.23 1076.19 515.88C1075.95 516.46 1075.74 517.03 1075.51 517.61C1075.22 518.38 1074.93 519.14 1074.64 519.92C1074.39 520.6 1074.14 521.27 1073.89 521.96C1073.86 522.04 1073.84 522.13 1073.8 522.2C1073.59 522.8 1073.37 523.41 1073.17 524.01C1072.68 525.42 1072.2 526.83 1071.73 528.26C1071.52 528.91 1071.31 529.58 1071.1 530.24C1070.88 530.94 1070.66 531.63 1070.44 532.34C1070.03 533.66 1069.63 534.99 1069.24 536.31C1069.22 536.38 1069.2 536.47 1069.17 536.55C1068.97 537.25 1068.76 537.96 1068.56 538.66C1068.55 538.67 1068.55 538.68 1068.55 538.7C1068.35 539.39 1068.16 540.08 1067.95 540.78C1067.69 541.67 1067.46 542.57 1067.21 543.47C1067.07 543.98 1066.93 544.49 1066.8 545C1066.72 545.28 1066.65 545.57 1066.56 545.85C1066.08 547.68 1065.59 549.5 1065.11 551.31C1064.65 553.08 1064.2 554.84 1063.74 556.58C1063.55 557.33 1063.37 558.07 1063.17 558.81C1062.58 561.13 1061.99 563.43 1061.4 565.68C1061.23 566.35 1061.06 567.01 1060.88 567.67C1060.57 568.87 1060.25 570.05 1059.93 571.22C1059.74 571.94 1059.55 572.68 1059.34 573.39C1058.63 575.97 1057.91 578.47 1057.17 580.9C1057.01 581.45 1056.84 582 1056.67 582.54C1056.55 582.93 1056.42 583.31 1056.31 583.7C1056.21 584.02 1056.1 584.36 1055.99 584.67C1055.65 585.73 1055.3 586.77 1054.93 587.79C1054.56 588.89 1054.17 589.96 1053.77 591.01C1053.75 591.06 1053.73 591.12 1053.72 591.17C1053.53 591.64 1053.35 592.1 1053.16 592.56C1053 592.96 1052.84 593.36 1052.68 593.75C1052.64 593.85 1052.59 593.97 1052.55 594.06C1052.37 594.51 1052.16 594.96 1051.97 595.41C1051.96 595.44 1051.93 595.49 1051.91 595.52C1051.7 595.99 1051.48 596.47 1051.26 596.93C1051.05 597.4 1050.83 597.85 1050.61 598.29C1050.45 598.63 1050.28 598.95 1050.11 599.28C1050.03 599.43 1049.96 599.58 1049.87 599.72C1049.66 600.11 1049.45 600.49 1049.24 600.86C1049.14 601.05 1049.03 601.22 1048.93 601.39C1048.8 601.62 1048.66 601.85 1048.52 602.07C1029.99 632.23 977.29 631.14 977.29 631.14L951.81 631.14C954.49 630.98 1003.98 628.61 1021.63 554.62C1033.57 504.65 1065.96 501.68 1085.05 497.78Z" />
	<path id="Layer" class="shp4" d="M551.59 630.41L551.59 579.75C551.59 563.96 538.79 551.15 523 551.15L486.84 551.15L486.84 792.09L533.19 792.09L551.59 792.09L608.77 792.09L608.77 687.59C608.77 671.8 595.97 658.99 580.18 658.99C564.39 659 551.59 646.2 551.59 630.41Z" />
	<path id="Layer" class="shp27" d="M543.88 730.91C532.85 709.86 519.55 694.85 497.92 677.86C476.3 660.86 447.96 660.79 436.4 655.32C424.83 649.83 424.54 665.01 428.13 679.26C431.72 693.51 420.81 759.12 486.53 779.97C552.24 800.84 552.03 746.45 543.88 730.91Z" />
	<path id="Layer" class="shp28" d="M502.38 745.07C501.89 745.07 501.47 744.71 501.4 744.21C498.25 720.98 509.77 698.03 509.89 697.81C510.14 697.32 510.73 697.13 511.22 697.37C511.7 697.62 511.9 698.22 511.65 698.7C511.53 698.93 500.3 721.35 503.36 743.94C503.43 744.48 503.06 744.98 502.52 745.05C502.46 745.07 502.42 745.07 502.38 745.07Z" />
	<path id="Layer" class="shp28" d="M502.55 747.66C502.4 747.66 502.24 747.63 502.1 747.56C482.51 737.27 448.48 740.95 448.13 740.99C447.59 741.05 447.11 740.67 447.04 740.12C446.98 739.58 447.37 739.09 447.92 739.03C449.34 738.87 482.9 735.24 503.01 745.81C503.5 746.06 503.68 746.66 503.42 747.14C503.24 747.47 502.9 747.66 502.55 747.66Z" />
	<path id="Layer" class="shp28" d="M508.69 766.56C508.25 766.56 507.84 766.25 507.73 765.8C493.62 707.52 437.69 666.34 437.13 665.93C436.69 665.6 436.59 664.99 436.92 664.54C437.24 664.1 437.86 664 438.3 664.33C438.87 664.74 495.37 706.35 509.65 765.34C509.78 765.87 509.46 766.39 508.93 766.52C508.85 766.54 508.77 766.56 508.69 766.56Z" />
	<path id="Layer" class="shp28" d="M482.28 711.89C482.06 711.89 481.85 711.82 481.66 711.68C468.89 701.45 438.03 704.12 437.73 704.15C437.18 704.22 436.7 703.8 436.66 703.26C436.6 702.72 437 702.23 437.55 702.19C438.85 702.07 469.51 699.42 482.9 710.13C483.32 710.48 483.4 711.09 483.05 711.51C482.86 711.76 482.57 711.89 482.28 711.89Z" />
	<path id="Layer" class="shp28" d="M472.03 698.9C471.64 698.9 471.29 698.68 471.13 698.3C467.12 688.78 469.24 672.68 469.32 672C469.4 671.46 469.87 671.09 470.43 671.16C470.97 671.24 471.35 671.73 471.28 672.27C471.25 672.44 469.15 688.52 472.94 697.53C473.15 698.03 472.92 698.61 472.41 698.83C472.29 698.87 472.16 698.9 472.03 698.9Z" />
	<path id="Layer" class="shp10" d="M1484.16 376.52C1483.16 377.83 1481.99 378.81 1480.71 379.51C1470.05 385.37 1450.91 372.61 1442.17 373.02C1432.37 373.5 1427.7 386.32 1404.6 377.22C1381.51 368.12 1386.88 332.21 1388.28 318.67C1389.68 305.15 1381.28 298.38 1366.82 298.84C1352.36 299.32 1337.1 291.38 1343.68 268.52C1350.26 245.67 1331.72 233.67 1320.64 237.73C1309.55 241.79 1315.5 222.34 1315.5 222.34C1315.5 222.34 1324.97 208.86 1343.68 210.81C1349.54 211.43 1353.77 213.36 1357 216.03C1357 216.03 1357.01 216.03 1357.02 216.06C1357.76 216.68 1358.46 217.35 1359.11 218.04C1359.12 218.06 1359.14 218.07 1359.15 218.1C1364.56 223.96 1366.68 232.15 1370.1 238.42C1375.7 248.69 1385.03 247.99 1399.5 243.56C1413.96 239.13 1443.11 241.18 1449.41 265.35C1455.71 289.51 1438.92 317.74 1469.01 324.75C1499.09 331.72 1493.49 364.39 1484.16 376.52Z" />
	<path id="Layer" class="shp29" d="M1316.63 220.41C1316.63 220.41 1325.36 226.16 1324.36 237.83C1324.36 237.83 1324.37 241.2 1320.54 239.47C1316.7 237.75 1313.59 225.1 1313.92 222.38C1314.26 219.65 1315.67 220.09 1316.63 220.41Z" />
	<path id="Layer" class="shp10" d="M1312.95 272.48C1299.58 284.14 1293.01 283.33 1289.12 277.61C1287.66 275.48 1283.62 270.2 1279.12 264.43C1271.56 254.7 1262.72 243.56 1262.72 243.56C1262.72 243.56 1248.72 242.68 1248.42 231.85C1248.37 229.78 1248.76 227.7 1249.59 225.7C1253.04 217.19 1263.99 209.83 1279.22 208.57C1298.04 207.02 1315.14 216.36 1320.12 229.42C1325.07 242.47 1326.33 260.82 1312.95 272.48Z" />
	<g id="Layer" style="opacity: 0.522">
		<path id="Layer" class="shp30" d="M1279.12 264.43C1271.56 254.7 1262.72 243.56 1262.72 243.56C1262.72 243.56 1248.72 242.68 1248.42 231.85C1248.37 229.78 1248.76 227.7 1249.59 225.69C1252.37 221.34 1257.6 217.6 1267.39 218.83C1288.38 221.47 1278.64 256.55 1283.82 260.24C1285.72 261.6 1283.15 263.09 1279.12 264.43Z" />
	</g>
	<path id="Layer" class="shp31" d="M1204.73 480.32C1204.73 480.32 1197.31 482.51 1193.66 485.26C1190.01 488.01 1181.14 492.29 1180.96 493.72C1180.79 495.16 1188.41 492.92 1191.41 491.76C1194.41 490.59 1193.94 493.46 1190.2 497C1186.47 500.54 1184.95 502.1 1180.65 505.37C1176.34 508.65 1175.84 510.12 1177.5 510.71C1179.15 511.31 1180.68 510.23 1180.68 510.23C1180.68 510.23 1176.82 513.16 1178.35 514.8C1179.88 516.45 1184.61 512.96 1184.61 512.96C1184.61 512.96 1183.27 515.32 1186.53 515.25C1189.79 515.17 1190.91 513.7 1194.76 512.57C1198.61 511.44 1210.23 499.18 1212.93 494.92C1215.63 490.66 1216.99 486.96 1216.99 486.96L1204.73 480.32Z" />
	<path id="Layer" class="shp32" d="M1284.76 379.51C1284.76 379.51 1291.87 415.05 1274.49 434.94C1257.11 454.84 1217.47 491.23 1217.47 491.23L1202.89 479.8C1202.89 479.8 1238.59 432.56 1243.49 414.42C1244.54 410.56 1245.51 403.13 1245.51 403.13L1284.76 379.51Z" />
	<path id="Layer" class="shp31" d="M1234.4 475.13C1234.4 475.13 1233.3 471.03 1234.94 467.44C1236.58 463.84 1244.38 474.6 1244.38 474.6L1246.43 483.56L1234.4 475.13Z" />
	<path id="Layer" class="shp13" d="M1426.98 719.08C1433.64 726.25 1447.78 753.24 1447.78 753.24L1437.31 760.85C1437.31 760.85 1425.32 742.83 1422.83 743.91C1420.34 744.99 1422.79 771.4 1419.46 773.81C1416.12 776.23 1393.98 792.32 1393.98 792.32C1393.98 792.32 1393.04 783.01 1397.35 774.42C1401.17 766.82 1405.1 751.14 1395.11 727.51C1393.82 724.45 1392.3 721.25 1390.5 717.93L1413.5 696.5C1413.5 696.5 1416.34 702.89 1420.12 709.35C1422.21 712.93 1424.59 716.54 1426.98 719.08Z" />
	<path id="Layer" class="shp1" d="M1390.5 717.94L1413.5 696.51C1413.5 696.51 1416.34 702.9 1420.12 709.36L1395.11 727.52C1393.82 724.46 1392.28 721.26 1390.5 717.94Z" />
	<path id="Layer" class="shp33" d="M1432.12 691.35L1381.11 726.2C1381.11 726.2 1354.43 693.39 1330.76 663.24C1314.98 643.11 1300.54 624.18 1296.31 616.94C1287.77 602.37 1275.57 544.77 1271.2 523.17C1270.16 518.03 1269.56 514.92 1269.56 514.92L1275.81 497.38L1287.94 463.32L1288.84 460.8C1288.84 460.8 1297.59 456.28 1307.34 453.87C1309.93 453.22 1312.61 452.72 1315.19 452.5C1323.14 451.81 1330.39 453.7 1332.65 461.79C1332.78 462.26 1332.9 462.76 1333 463.28C1333.45 465.7 1333.95 468.8 1334.47 472.39C1338.86 503 1345.05 570.54 1346.99 578.13C1349.18 586.61 1432.12 691.35 1432.12 691.35Z" />
	<path id="Layer" class="shp34" d="M1330.76 663.25C1314.98 643.11 1300.54 624.18 1296.31 616.95C1287.77 602.37 1275.57 544.77 1271.2 523.17C1272.41 518.34 1273.34 515.14 1273.8 514.45C1276.42 510.51 1334.48 472.41 1334.48 472.41C1334.48 472.41 1336.9 506.47 1325.39 528.2C1313.88 549.94 1304.03 565.88 1313.23 589.29C1322.43 612.71 1302.72 626.2 1318.49 639.33C1327.61 646.93 1330.2 656.52 1330.76 663.25Z" />
	<path id="Layer" class="shp13" d="M1232.05 752.47C1233.22 762.18 1228.81 792.33 1228.81 792.33L1215.86 792.33C1215.86 792.33 1216.75 770.71 1214.09 770.11C1211.45 769.52 1197.91 792.33 1193.79 792.33C1189.66 792.33 1162.3 792.33 1162.3 792.33C1162.3 792.33 1167.01 784.25 1175.55 779.83C1183.1 775.92 1195.49 765.55 1201.3 740.57C1202.06 737.33 1202.71 733.84 1203.21 730.11L1234.4 726.29C1234.4 726.29 1232.94 733.12 1232.21 740.58C1231.81 744.68 1231.62 749 1232.05 752.47Z" />
	<path id="Layer" class="shp1" d="M1203.21 730.1L1234.4 726.28C1234.4 726.28 1232.94 733.11 1232.21 740.57L1201.3 740.57C1202.06 737.32 1202.7 733.84 1203.21 730.1Z" />
	<path id="Layer" class="shp33" d="M1261.48 446.51C1261.48 446.51 1216.7 551.64 1203.63 595.17C1190.57 638.72 1170.67 732.65 1170.67 732.65L1239.1 732.65C1239.1 732.65 1265.84 605.13 1277.67 584.6C1289.49 564.06 1333.65 489.42 1326.8 462.67C1319.95 435.93 1261.48 446.51 1261.48 446.51Z" />
	<path id="Layer" class="shp34" d="M1334.49 472.41L1313.73 526.29L1246.45 483.56L1287.95 463.34L1307.35 453.89L1312.78 451.23L1315.2 452.52L1332.66 461.81C1332.79 462.29 1332.91 462.78 1333.01 463.3C1333.47 465.71 1333.96 468.81 1334.49 472.41Z" />
	<path id="Layer" class="shp9" d="M1299.43 304.72C1299.43 304.72 1283.26 311.52 1269.57 330.18C1255.88 348.85 1239.71 383.54 1238.47 390.14C1237.23 396.73 1249.13 449.15 1249.09 462.68C1249.05 476.2 1312.74 471.2 1330.78 462.49C1330.78 462.49 1323.69 412.91 1323.69 406.07C1323.69 399.23 1324.32 353.2 1320.58 332.05C1316.84 310.9 1299.43 304.72 1299.43 304.72Z" />
	<path id="Layer" class="shp32" d="M1295.56 353.49C1295.56 353.49 1293 370.51 1295.56 383.32C1298.12 396.14 1278.13 388.34 1271.2 414.42C1264.27 440.5 1323.6 427.85 1323.6 427.85C1323.6 427.85 1339.95 402.71 1340.07 398.44C1340.19 394.17 1295.56 353.49 1295.56 353.49Z" />
	<path id="Layer" class="shp31" d="M1299.43 304.72C1299.43 304.72 1268.17 336.86 1270.92 328.4C1272.43 323.74 1269.8 312.59 1267.12 303.51C1264.93 296.09 1262.72 290.06 1262.72 290.06C1262.72 290.06 1268.73 283.95 1275.02 278.73C1281.68 273.21 1288.66 268.69 1289.12 273.57C1290 283.06 1299.43 304.72 1299.43 304.72Z" />
	<path id="Layer" class="shp35" d="M1218.51 369.41L1183.29 445.26L1314.18 506.02L1349.39 430.17L1218.51 369.41Z" />
	<path id="Layer" class="shp8" d="M1222.74 380.98L1194.86 441.02L1309.94 494.45L1337.82 434.41L1222.74 380.98Z" />
	<path id="Layer" class="shp35" d="M1206.66 447.6L1253.86 414.42L1258.98 471.88L1206.66 447.6Z" />
	<path id="Layer" class="shp35" d="M1256.55 470.87L1293.06 445.21L1297.02 489.67L1256.55 470.87Z" />
	<path id="Layer" class="shp35" d="M1284.95 428.24C1287.09 424.01 1285.41 418.85 1281.18 416.7C1276.95 414.56 1271.79 416.25 1269.64 420.47C1267.5 424.7 1269.19 429.86 1273.41 432.01C1277.64 434.15 1282.81 432.46 1284.95 428.24Z" />
	<path id="Layer" class="shp31" d="M1258.74 458.56C1258.74 458.56 1252.65 459.43 1248.36 460.53C1244.05 461.63 1235.58 461.02 1234.59 462.99C1233.61 464.95 1244.11 466.68 1246.67 466.92C1249.23 467.15 1242.71 470.76 1239.02 471.79C1235.33 472.81 1232.38 474.29 1236.19 477.73C1240 481.18 1245.91 486.34 1248.36 486.7C1250.82 487.07 1262.86 477.97 1269.5 471.21C1276.14 464.46 1258.74 458.56 1258.74 458.56Z" />
	<path id="Layer" class="shp9" d="M1300.04 316.18C1288.31 325.16 1292.88 348.22 1298.8 363.15C1304.71 378.08 1321.5 405.45 1320.26 407.94C1319.02 410.43 1256.77 457.66 1256.77 457.66L1269.56 473.72C1269.56 473.72 1328.65 444.01 1343.28 433.44C1357.89 422.86 1359.13 411.36 1354.78 396.43C1350.43 381.5 1325.24 296.9 1300.04 316.18Z" />
	<path id="Layer" class="shp34" d="M1214.78 732.9L1211.87 732.4C1212.81 727.02 1234.94 600.72 1238.82 588.84C1242.7 577.01 1273.14 500.11 1274.43 496.85L1277.18 497.94C1276.87 498.74 1245.47 578.02 1241.63 589.76C1237.82 601.43 1215.02 731.59 1214.78 732.9Z" />
	<path id="Layer" class="shp34" d="M1409.64 706.85C1409.18 706.26 1363.07 648.46 1338.91 618.57C1314.54 588.4 1305.52 546.06 1305.43 545.63L1308.32 545.03C1308.41 545.45 1317.29 587.11 1341.21 616.7C1365.37 646.59 1411.49 704.41 1411.95 704.99L1409.64 706.85Z" />
	<g id="Layer" style="opacity: 0.522">
		<path id="Layer" class="shp30" d="M1484.16 376.52C1483.16 377.83 1481.99 378.81 1480.71 379.51C1491.08 367.16 1483.47 350.8 1456.85 351.13C1430.23 351.46 1423.01 328.45 1438.78 290.33C1454.55 252.22 1414.79 249.25 1398.03 257.8C1381.26 266.35 1364.17 258.46 1364.83 239.97C1365.28 227.59 1361.62 221.07 1359.14 218.11C1364.55 223.97 1366.67 232.16 1370.09 238.43C1375.69 248.7 1385.02 248 1399.48 243.57C1413.95 239.13 1443.1 241.19 1449.4 265.36C1455.7 289.52 1438.91 317.75 1469 324.76C1499.09 331.72 1493.49 364.39 1484.16 376.52Z" />
	</g>
	<path id="Layer" class="shp1" d="M1283.87 277.31C1283.87 277.31 1279.19 294.47 1267.12 303.51C1264.93 296.09 1262.72 290.06 1262.72 290.06C1262.72 290.06 1268.73 283.95 1275.02 278.73L1283.87 277.31Z" />
	<path id="Layer" class="shp31" d="M1263.65 232.83C1263.65 232.83 1255.25 253.67 1247.32 257.72C1239.39 261.76 1244.68 262.69 1247.32 267.2C1249.97 271.72 1239.85 285.71 1248.56 292.09C1257.27 298.47 1277.49 288.04 1283.86 277.31C1283.86 277.31 1294.9 277.77 1297.55 269.37C1300.19 260.98 1291.64 255.69 1286.67 259.42C1281.69 263.16 1281.07 255.37 1278.9 243.72C1276.71 232.06 1264.72 230.35 1263.65 232.83Z" />
	<path id="Layer" class="shp14" d="M372.04 791.8C370.16 772.12 388 742.47 445.24 761.75C445.24 761.75 459.7 716.56 499.47 718.07C539.24 719.58 551.89 756.76 551.89 756.76C551.89 756.76 605.32 750.31 612.95 795.5C612.95 795.5 374.75 820.25 372.04 791.8Z" />
	<path id="Layer" class="shp15" d="M490.77 795.2L488.83 794.88C493.99 762.88 474.15 739.9 473.94 739.68L475.42 738.37C475.63 738.62 496.07 762.28 490.77 795.2Z" />
	<path id="Layer" class="shp15" d="M491.43 775.59L489.92 774.32C490.1 774.1 508.24 752.41 511.33 738.8L513.25 739.24C510.05 753.32 492.19 774.7 491.43 775.59Z" />
	<path id="Layer" class="shp15" d="M490.59 786.98C476.43 786.21 463.87 771.61 463.35 770.98L464.85 769.71C464.97 769.86 477.39 784.29 490.7 785.02L490.59 786.98Z" />
	<path id="Layer" class="shp15" d="M535.28 796.24L534 794.75C535.02 793.87 559.22 773.08 571.81 772.72L571.86 774.7C559.97 775.02 535.52 796.03 535.28 796.24Z" />
	<path id="Layer" class="shp15" d="M582.62 792.17C582.42 792.16 563.13 790.99 547.52 786.96L548.02 785.05C563.44 789.03 582.55 790.19 582.74 790.21L582.62 792.17Z" />
	<path id="Layer" class="shp15" d="M438.85 795.06C426.1 784.46 399.22 775.99 398.95 775.91L399.54 774.03C400.66 774.37 427.06 782.7 440.11 793.54L438.85 795.06Z" />
	<path id="Layer" class="shp15" d="M428.93 786.86L426.95 786.81C427.27 776.06 422.58 767.61 422.54 767.52L424.25 766.55C424.47 766.91 429.26 775.54 428.93 786.86Z" />
	<path id="Layer" class="shp0" d="M1005.07 150.26L658.03 156.18L651.13 150.26L651.13 36.23L1005.07 36.23L1011.97 42.14L1005.07 150.26Z" />
	<path id="Layer" class="shp0" d="M1005.07 25.63L658.03 31.54L651.13 25.63L651.13 0L1005.07 0L1011.97 5.92L1005.07 25.63Z" />
	<path id="Layer" class="shp4" d="M1011.97 42.14L658.03 42.14L658.03 156.18L1011.97 156.18L1011.97 42.14Z" />
	<path id="Layer" class="shp3" d="M1011.97 5.92L658.03 5.92L658.03 31.55L1011.97 31.55L1011.97 5.92Z" />
	<path id="Layer" class="shp21" d="M725.78 23.52C728.42 23.52 730.57 21.38 730.57 18.73C730.57 16.08 728.42 13.94 725.78 13.94C723.13 13.94 720.98 16.08 720.98 18.73C720.98 21.38 723.13 23.52 725.78 23.52Z" />
	<path id="Layer" class="shp36" d="M708.01 18.73C708.01 21.37 705.86 23.52 703.22 23.52C700.57 23.52 698.42 21.37 698.42 18.73C698.42 16.08 700.57 13.94 703.22 13.94C705.87 13.94 708.01 16.08 708.01 18.73Z" />
	<path id="Layer" class="shp37" d="M680.65 23.52C683.3 23.52 685.45 21.38 685.45 18.73C685.45 16.08 683.3 13.94 680.65 13.94C678.01 13.94 675.86 16.08 675.86 18.73C675.86 21.38 678.01 23.52 680.65 23.52Z" />
	<path id="Layer" fill-rule="evenodd" class="shp19" d="M986.38 93.27C986.38 118.43 965.99 138.83 940.82 138.83C915.65 138.83 895.25 118.43 895.25 93.27C895.25 68.1 915.64 47.7 940.82 47.7C965.99 47.7 986.38 68.1 986.38 93.27ZM970.15 93.27C970.15 77.07 957.01 63.94 940.82 63.94C924.63 63.94 911.49 77.06 911.49 93.27C911.49 109.46 924.61 122.6 940.82 122.6C957.02 122.6 970.15 109.46 970.15 93.27Z" />
	<path id="Layer" fill-rule="evenodd" class="shp38" d="M997.22 97.21C997.22 114.06 988.09 128.76 974.5 136.65C967.78 140.55 959.99 142.77 951.66 142.77C929.4 142.77 910.87 126.82 906.89 105.72C906.37 102.96 906.09 100.11 906.09 97.21C906.09 72.04 926.48 51.64 951.66 51.64C964.23 51.64 975.61 56.73 983.86 64.97C992.13 73.21 997.23 84.61 997.22 97.21ZM980.99 97.21C980.99 89.11 977.69 81.76 972.38 76.45C967.07 71.15 959.74 67.88 951.66 67.88C935.46 67.88 922.33 81 922.33 97.21C922.33 99.07 922.5 100.91 922.83 102.67C925.39 116.26 937.33 126.53 951.66 126.53C957.01 126.53 962.03 125.1 966.36 122.58C975.1 117.52 981 108.06 980.99 97.21Z" />
	<path id="Layer" class="shp8" d="M997.23 97.21C997.23 114.06 988.09 128.77 974.51 136.65L966.37 122.58C975.11 117.52 981 108.05 981 97.21C981 89.1 977.71 81.76 972.39 76.45L983.87 64.97C992.13 73.21 997.23 84.61 997.23 97.21Z" />
	<path id="Layer" class="shp39" d="M974.51 136.65C967.79 140.55 960 142.77 951.67 142.77C929.41 142.77 910.88 126.81 906.9 105.72L922.86 102.67C925.41 116.26 937.35 126.53 951.68 126.53C957.03 126.53 962.05 125.1 966.38 122.58L974.51 136.65Z" />
	<path id="Layer" class="shp8" d="M835.5 64.48L676.84 64.48L676.84 71.88L835.5 71.88L835.5 64.48Z" />
	<path id="Layer" class="shp8" d="M835.5 95.04L676.84 95.04L676.84 102.44L835.5 102.44L835.5 95.04Z" />
	<path id="Layer" class="shp8" d="M835.5 125.61L676.84 125.61L676.84 133.01L835.5 133.01L835.5 125.61Z" />
	<path id="Layer" class="shp32" d="M1298.06 300.66C1298.06 300.66 1287.34 312.76 1270.64 319.41L1268.41 331.79C1268.41 331.79 1284.03 327.01 1299.43 304.73L1298.06 300.66Z" />
	<path id="Layer" class="shp11" d="M889.21 792.19L870.48 792.19C870.48 792.19 885.58 784.62 890.53 769.11C894.09 757.93 899.92 747.2 907.16 749.85C914.41 752.51 908.44 764.83 904.59 771.77C899.1 781.67 889.21 792.19 889.21 792.19Z" />
	<path id="Layer" class="shp29" d="M525.52 551.15L522.56 551.15L522.56 431.41C522.56 421.23 530.84 412.95 541.02 412.95L553.23 412.95L553.23 415.9L541.02 415.9C532.47 415.9 525.52 422.86 525.52 431.41L525.52 551.15Z" />
	<path id="Layer" class="shp29" d="M537.46 552.4L534.5 552.4L534.5 432.65C534.5 427.9 538.37 424.05 543.11 424.05L564.58 424.05L564.58 427L543.11 427C539.99 427 537.46 429.54 537.46 432.65L537.46 552.4Z" />
	<path id="Layer" class="shp22" d="M951.83 564.45C952.27 565.65 952.51 566.85 952.58 568.03C934.98 555.93 919.84 540.45 919.84 540.45C942.02 524.72 939.06 475.13 939.06 475.13C939.06 475.13 964.1 453.27 967.55 458.56C971 463.85 958.68 494.16 967.55 506.6C976.41 519.05 944.51 544.3 951.83 564.45Z" />
	<path id="Layer" class="shp2" d="M996.26 371.02C994.19 364.87 991.14 361.45 991.14 361.45C991.14 361.45 995.63 355.89 996.27 348.98C996.27 348.98 1002.25 362.78 996.26 371.02Z" />
	<path id="Layer" class="shp8" d="M747.64 215.26C758.06 206.22 759.19 190.45 750.15 180.02C741.12 169.59 725.34 168.47 714.92 177.5C704.49 186.54 703.37 202.31 712.4 212.74C721.43 223.16 737.21 224.29 747.64 215.26Z" />
	<path id="Layer" class="shp8" d="M891.79 172.02L780.85 172.02L780.85 179.18L891.79 179.18L891.79 172.02Z" />
	<path id="Layer" class="shp8" d="M891.79 193.19L780.85 193.19L780.85 200.36L891.79 200.36L891.79 193.19Z" />
	<path id="Layer" class="shp8" d="M842.24 214.18L780.85 214.18L780.85 221.35L842.24 221.35L842.24 214.18Z" />
	<path id="Layer" class="shp36" d="M477.53 480.7L416.54 480.7L416.54 522.14L477.53 522.14L477.53 480.7Z" />
	<path id="Layer" class="shp8" d="M441.24 510.24L441.24 506.16C441.97 506.78 442.78 507.24 443.64 507.55C444.51 507.87 445.38 508.02 446.27 508.02C446.78 508.02 447.24 507.98 447.63 507.88C448.01 507.78 448.34 507.65 448.6 507.49C448.86 507.33 449.05 507.13 449.18 506.91C449.31 506.68 449.38 506.44 449.38 506.17C449.38 505.82 449.28 505.49 449.07 505.21C448.87 504.93 448.59 504.67 448.24 504.43C447.88 504.2 447.48 503.97 446.99 503.74C446.5 503.53 445.99 503.3 445.42 503.06C444 502.47 442.93 501.75 442.23 500.88C441.53 500.03 441.18 498.99 441.18 497.77C441.18 496.82 441.38 496 441.75 495.32C442.13 494.64 442.66 494.08 443.32 493.64C443.98 493.2 444.74 492.87 445.61 492.67C446.47 492.46 447.39 492.35 448.36 492.35C449.31 492.35 450.15 492.41 450.89 492.53C451.62 492.65 452.3 492.82 452.92 493.06L452.92 496.87C452.61 496.65 452.28 496.47 451.91 496.31C451.56 496.14 451.18 496.01 450.8 495.91C450.42 495.8 450.03 495.72 449.66 495.67C449.28 495.61 448.92 495.59 448.58 495.59C448.11 495.59 447.68 495.64 447.3 495.72C446.92 495.81 446.6 495.94 446.33 496.1C446.07 496.26 445.87 496.46 445.72 496.68C445.57 496.91 445.5 497.16 445.5 497.44C445.5 497.74 445.57 498.02 445.74 498.26C445.9 498.5 446.13 498.73 446.43 498.95C446.73 499.17 447.09 499.38 447.51 499.59C447.93 499.79 448.41 500.01 448.94 500.24C449.68 500.54 450.32 500.86 450.91 501.21C451.49 501.55 451.99 501.94 452.41 502.37C452.83 502.8 453.14 503.3 453.37 503.86C453.58 504.42 453.7 505.06 453.7 505.81C453.7 506.82 453.51 507.68 453.12 508.37C452.73 509.06 452.21 509.63 451.55 510.06C450.89 510.49 450.11 510.79 449.24 510.99C448.36 511.17 447.43 511.27 446.45 511.27C445.45 511.27 444.5 511.18 443.59 511.01C442.68 510.83 441.9 510.58 441.24 510.24Z" />
	<path id="Layer" class="shp40" d="M383.15 566.78L285.19 566.78L285.19 611.81L383.15 611.81L383.15 566.78Z" />
	<path id="Layer" class="shp8" d="M311.71 598.79L307.23 598.79L307.23 590.71L299 590.71L299 598.79L294.53 598.79L294.53 578.95L299 578.95L299 586.86L307.23 586.86L307.23 578.95L311.71 578.95L311.71 598.79Z" />
	<path id="Layer" class="shp8" d="M373.93 598.79L362.11 598.79L362.11 578.95L366.58 578.95L366.58 595.17L373.93 595.17L373.93 598.79L373.93 598.79Z" />
	<path id="Layer" class="shp0" d="M537.06 619.75C537.06 622.34 534.96 624.45 532.37 624.45C529.77 624.45 527.67 622.34 527.67 619.75C527.67 617.16 529.77 615.06 532.37 615.06C534.97 615.06 537.06 617.16 537.06 619.75Z" />
	<path id="Layer" class="shp0" d="M532.38 602.37C534.97 602.37 537.07 600.26 537.07 597.67C537.07 595.08 534.97 592.97 532.38 592.97C529.78 592.97 527.68 595.08 527.68 597.67C527.68 600.26 529.78 602.37 532.38 602.37Z" />
	<path id="Layer" class="shp0" d="M532.38 580.28C534.97 580.28 537.07 578.18 537.07 575.58C537.07 572.99 534.97 570.89 532.38 570.89C529.78 570.89 527.68 572.99 527.68 575.58C527.68 578.18 529.78 580.28 532.38 580.28Z" />
	<path id="Layer" class="shp3" d="M265.99 689.49L64.95 689.49C64.95 689.49 78.78 658.64 110.68 671.41C110.68 671.41 122.39 639.5 150.04 643.22C177.7 646.95 183.02 666.21 183.02 666.21C183.02 666.21 212.8 654.38 241.53 678.33C241.53 678.33 264.93 675.66 265.99 689.49Z" />
	<path id="Layer" class="shp20" d="M996.27 380.03C996.27 380.03 996.95 375.95 1000.59 373.44C1004.23 370.92 1027.56 360.68 1033.88 371.83L996.27 380.03Z" />
	<g id="Folder 1">
		<path id="Layer" class="shp41" d="M196.59 473.02C196.59 473.02 193.26 461.9 193.26 458.33C193.26 454.77 196.52 444.76 198.34 444.54C200.16 444.32 203.71 463.89 205.27 466.56C206.83 469.23 203.94 473.02 203.94 473.02L196.59 473.02Z" />
		<path id="Layer" class="shp41" d="M30.47 719.58L18.64 706.55L23.18 701.89L32.36 692.48L43.69 704.96L34.85 714.74L30.47 719.58Z" />
		<path id="Layer" class="shp42" d="M34.85 714.74L23.18 701.89L32.36 692.48L43.69 704.96L34.85 714.74Z" />
		<path id="Layer" class="shp43" d="M18.64 706.55L30.47 719.57C30.47 719.57 29.82 730.83 34.87 737.73C39.92 744.62 41.27 749.44 38.96 754.55L3.79 715.8L18.64 706.55Z" />
		<path id="Layer" class="shp8" d="M30.35 724.24C27.62 722.26 21.19 720.47 21.12 720.46L21.31 719.77C21.58 719.84 27.93 721.6 30.77 723.66L30.35 724.24Z" />
		<path id="Layer" class="shp8" d="M30.88 728.01C27.63 726.64 22.56 727.19 22.51 727.2L22.43 726.48C22.64 726.46 27.74 725.91 31.16 727.35L30.88 728.01Z" />
		<path id="Layer" class="shp8" d="M25.44 733.19L25.18 732.53C25.32 732.47 28.64 731.19 31.84 730.98L31.88 731.69C28.81 731.89 25.47 733.18 25.44 733.19Z" />
		<path id="Layer" class="shp4" d="M3.81 715.78L1 718.33L36.18 757.09L39 754.53L3.81 715.78Z" />
		<path id="Layer" class="shp44" d="M120.28 603.62C120.28 603.62 120.06 604.84 119.65 606.93C118.79 611.37 117.08 619.75 114.9 628.72C112.07 640.26 108.43 652.8 104.7 659.24C100.37 666.7 82.58 682.42 67.13 695.31C53.99 706.26 42.56 715.15 42.56 715.15L18.64 690.61C18.64 690.61 68.13 646.01 69.46 644.23C70.8 642.44 76.67 616.53 78.9 596.06C79.87 587.2 82.58 577.75 85.34 569.89C88.97 559.59 92.68 552.01 92.68 552.01L115.82 560.46L116.05 562.63L118.3 584.39L120.28 603.62Z" />
		<path id="Layer" class="shp11" d="M119.65 606.93C118.79 611.37 117.09 619.75 114.9 628.72C112.08 640.26 108.44 652.8 104.7 659.24C100.38 666.7 82.58 682.42 67.13 695.3C70.84 675.16 94.66 676.97 91.13 662.25C87.46 646.9 102.81 640.89 96.69 620.87C90.57 600.84 100.48 587.5 100.48 587.5C100.48 587.5 109.45 596.46 119.65 606.93Z" />
		<path id="Layer" class="shp41" d="M168.36 446.99C168.36 446.99 164.31 450.1 161.42 456.56C160.29 459.09 159.34 462.12 158.88 465.67C157.21 478.35 135.18 464.67 135.18 464.67L145.86 442.31L154.61 437.64L161.42 442.28L168.36 446.99Z" />
		<path id="Layer" class="shp32" d="M135.19 461.5C135.19 461.5 136.93 456.06 139.4 455.86C141.86 455.66 159.88 458.29 160.72 462.48C161.55 466.67 160.72 469.34 160.72 469.34L135.19 461.5Z" />
		<path id="Layer" class="shp32" d="M203.49 480.81L205.27 472.57C205.27 472.57 197.04 470.44 193.92 470.84C190.81 471.24 187.92 480.81 187.92 480.81L203.49 480.81Z" />
		<path id="Layer" class="shp32" d="M157.22 523.74C157.22 523.74 168.75 526.84 193.12 504.94C217.5 483.05 172.9 491.7 172.9 491.7L157.22 523.74Z" />
		<path id="Layer" class="shp45" d="M199.27 725.64L124.98 725.64L124.98 727.79L199.27 727.79L199.27 725.64Z" />
		<path id="Layer" class="shp45" d="M153.85 807L131.23 703.02L108.62 807L106.52 806.54L130.18 697.75C130.29 697.25 130.72 696.9 131.23 696.9C131.74 696.9 132.17 697.25 132.28 697.75L155.94 806.54L153.85 807Z" />
		<path id="Layer" class="shp41" d="M154.41 745.47L136.82 745.47L136.43 738.99L135.63 725.87L152.47 725.87L153.77 738.99L154.41 745.47Z" />
		<path id="Layer" class="shp42" d="M153.77 738.99L136.43 738.99L135.63 725.87L152.47 725.87L153.77 738.99Z" />
		<path id="Layer" class="shp43" d="M136.82 745.47L154.41 745.47C154.41 745.47 162.32 753.53 170.82 754.42C179.32 755.31 183.79 757.55 186.03 762.69L133.69 762.69L136.82 745.47Z" />
		<path id="Layer" class="shp8" d="M148.79 752.98L148.4 752.38C148.64 752.23 154.21 748.71 157.64 748L157.79 748.69C154.5 749.39 148.84 752.95 148.79 752.98Z" />
		<path id="Layer" class="shp8" d="M154.71 756.49L154.13 756.07C154.25 755.9 157.27 751.76 160.64 750.19L160.94 750.84C157.74 752.32 154.73 756.45 154.71 756.49Z" />
		<path id="Layer" class="shp8" d="M161.12 758.35L160.45 758.1C160.51 757.96 161.78 754.62 163.77 752.13L164.33 752.58C162.41 754.98 161.13 758.32 161.12 758.35Z" />
		<path id="Layer" class="shp4" d="M186.03 762.7L133.69 762.7L133.69 766.5L186.03 766.5L186.03 762.7Z" />
		<path id="Layer" class="shp45" d="M228.35 807L205.73 703.02L183.11 807L181.01 806.54L204.67 697.75C204.78 697.25 205.21 696.9 205.72 696.9C206.23 696.9 206.66 697.25 206.77 697.75L230.43 806.54L228.35 807Z" />
		<path id="Layer" class="shp45" d="M190.82 765.42L116.33 765.42L116.33 767.57L190.82 767.57L190.82 765.42Z" />
		<path id="Layer" class="shp44" d="M164.97 736.19L128.93 736.19C128.93 736.19 129.64 676.14 129.64 665.46C129.64 657.87 122.44 645.33 114.91 628.72C111.85 621.97 108.75 614.55 106.05 606.5C102.28 595.27 100.03 585.61 98.68 578.07C96.7 566.93 96.7 560.45 96.7 560.45L116.06 562.62L144.31 565.79C144.31 565.79 147.41 576.73 151.25 590.86C157.38 613.42 165.4 644.11 165.67 651.22C166.11 662.8 164.97 736.19 164.97 736.19Z" />
		<path id="Layer" class="shp11" d="M151.25 590.87C143.43 587.57 135.39 584.42 127.4 584.82C124.3 584.98 121.24 584.81 118.29 584.38C111.01 583.36 104.28 580.85 98.66 578.07C92.78 575.17 88.12 571.97 85.34 569.88C88.96 559.59 92.68 552 92.68 552L115.81 560.45L116.04 562.62L144.29 565.8C144.31 565.8 147.41 576.74 151.25 590.87Z" />
		<path id="Layer" class="shp9" d="M263.34 478.69C263.34 478.69 233.31 508.07 224.63 510.06C215.96 512.06 183.92 501.72 178.58 502.05C176.16 502.21 171.07 519.18 166.23 537.72C160.38 560.14 154.88 584.82 154.88 584.82C154.88 584.82 139.87 578.82 115.5 577.15C111.91 576.9 108.67 576.37 105.74 575.63C88.77 571.38 82.47 560.46 82.47 560.46C106.5 526.09 106.83 496.05 111.84 477.37C116.84 458.68 136.87 457.34 151.88 462.02C158.53 464.09 172.91 466.69 179.58 469.03C186.26 471.36 220.64 484.71 222.97 484.71C225.3 484.71 253.67 468.69 253.67 468.69C262.67 468.68 263.34 478.69 263.34 478.69Z" />
		<path id="Layer copy" class="shp9" d="M263.34 478.69C263.34 478.69 233.31 508.07 224.63 510.06C215.96 512.06 183.92 501.72 178.58 502.05C176.16 502.21 171.07 519.18 166.23 537.72C160.38 560.14 154.88 584.82 154.88 584.82C154.88 584.82 139.87 578.82 115.5 577.15C111.91 576.9 108.67 576.37 105.74 575.63C88.77 571.38 82.47 560.46 82.47 560.46C106.5 526.09 106.83 496.05 111.84 477.37C116.84 458.68 136.87 457.34 151.88 462.02C158.53 464.09 172.91 466.69 179.58 469.03C186.26 471.36 220.64 484.71 222.97 484.71C225.3 484.71 253.67 468.69 253.67 468.69C262.67 468.68 263.34 478.69 263.34 478.69Z" />
		<path id="Layer" class="shp41" d="M254.22 470.78C254.22 470.78 260 465.67 264.9 463.67C269.8 461.67 276.46 457.56 276.46 459.72C276.46 461.89 270.46 464.95 270.46 464.95L288.76 463.29C288.76 463.29 280.69 471.46 274.24 473.02C267.79 474.57 259.56 477.46 259.56 477.46L254.22 470.78Z" />
		<path id="Layer" class="shp46" d="M307.17 397.44L196.99 406.62L202.31 470.48L312.5 461.29L307.17 397.44Z" />
		<path id="Layer" class="shp8" d="M301.08 404.64L204.2 412.72L208.42 463.27L305.29 455.19L301.08 404.64Z" />
		<path id="Layer" class="shp46" d="M218.72 463.15L237.56 423.17L262.77 459.48L218.72 463.15Z" />
		<path id="Layer" class="shp46" d="M260.77 459.73L275.34 428.8L294.83 456.88L260.77 459.73Z" />
		<path id="Layer" class="shp46" d="M257.24 427.42C260.86 427.24 263.66 424.16 263.48 420.53C263.3 416.9 260.22 414.1 256.59 414.28C252.96 414.46 250.16 417.55 250.34 421.18C250.52 424.8 253.61 427.6 257.24 427.42Z" />
		<path id="Layer" class="shp11" d="M155.97 736.46L153.82 736.46C153.82 735.81 153.9 671.98 153.54 656.6C153.17 641.41 126.68 579.8 126.42 579.18L128.38 578.33C129.48 580.87 155.31 640.94 155.68 656.54C156.06 671.95 155.97 735.81 155.97 736.46Z" />
		<path id="Layer" class="shp32" d="M166.23 537.71C160.38 560.12 154.88 584.81 154.88 584.81C154.88 584.81 139.87 578.81 115.5 577.14C111.91 576.89 108.67 576.36 105.74 575.62C106.3 575 106.91 574.39 107.57 573.8C127.67 555.78 135.19 567.8 145.03 554.79C152.37 545.05 159.51 544.51 166.23 537.71Z" />
		<path id="Layer" class="shp10" d="M177.23 416.28L180.9 412.44C180.9 412.44 181.24 405.6 174.34 396.7C167.44 387.79 163.44 391.13 166.55 396.7C169.66 402.26 160.32 399.37 151.98 398.25C143.64 397.14 136.74 398.32 140.86 403.74C144.98 409.15 141.41 409.38 131.17 413.61C120.94 417.84 122.5 424.07 131.17 424.73C139.85 425.4 134.07 430.52 127.4 437.63C120.72 444.75 125.83 448.76 133.18 444.75C140.52 440.75 142.08 445.19 139.64 451.43C137.19 457.66 145.87 452.32 149.87 447.86C153.87 443.42 152.76 451.2 158.88 441.41C165 431.64 177.23 416.28 177.23 416.28Z" />
		<path id="Layer" class="shp42" d="M168.36 446.99C168.36 446.99 164.32 450.1 161.42 456.56C156.55 451.39 159.35 442.49 159.35 442.49L161.42 442.27L168.36 446.99Z" />
		<path id="Layer" class="shp41" d="M180.91 412.45C180.91 412.45 179.8 423.74 181.91 429.52C184.02 435.31 186.14 435.53 183.58 437.76C181.02 439.98 179.35 439.53 178.8 442.1C178.24 444.65 179.35 453.44 172.9 453.22C166.44 453 159.55 443.77 158.88 441.43C158.88 441.43 152.1 439.2 151.99 433.53C151.87 427.85 157.44 425.96 159.66 428.63C161.89 431.3 164.33 427.85 164.45 423.63C164.56 419.4 167.23 413.4 171.78 413.72C176.35 414.06 178.46 409.5 180.91 412.45Z" />
	</g>
</svg>