<?xml version="1.0" encoding="utf-8"?><svg version="1.1" id="Layer_1" xmlns="http://www.w3.org/2000/svg" xmlns:xlink="http://www.w3.org/1999/xlink" x="0px" y="0px" viewBox="0 0 122.88 88.99" style="enable-background:new 0 0 122.88 88.99" xml:space="preserve"><g><path fill="#0aa8a7" class="st0" d="M85.33,16.83c12.99-9.83,31.92,1.63,31.92,13.63c0,7.75-2.97,10.79-7.57,14.03 c23.2,12.41,12.7,39.86-7.54,44.49H31.45c-33.2,0-45.48-44.99-10.13-55.89C14.69,6.66,66.5-17.2,85.33,16.83L85.33,16.83 L85.33,16.83z M59.48,72.42l4.1-20.86l4.16,6.28c8.96-3.6,14-9.54,14.74-18.66c7.36,12.87,2.9,24.42-6.44,31.17l4.25,6.39 L59.48,72.42L59.48,72.42L59.48,72.42L59.48,72.42L59.48,72.42L59.48,72.42L59.48,72.42z M65.81,26.96l-4.1,20.86l-4.16-6.28 c-8.96,3.6-14,9.54-14.74,18.66c-7.36-12.87-2.9-24.42,6.44-31.17l-4.25-6.39L65.81,26.96L65.81,26.96L65.81,26.96L65.81,26.96 L65.81,26.96L65.81,26.96L65.81,26.96z"/></g></svg>