<svg id="Layer_1" data-name="Layer 1" xmlns="http://www.w3.org/2000/svg" viewBox="0 0 250 190.11"><title>user-clock</title><path fill="#0aa8a7" d="M213.91,80.82A50.28,50.28,0,1,0,250,129,49.84,49.84,0,0,0,213.91,80.82Zm6.77,64.83h0a6.06,6.06,0,0,1-8.52,1L193.64,132V104a6.06,6.06,0,0,1,6.06-6.07h0a6.07,6.07,0,0,1,6.07,6.07v22.15l13.92,11A6.07,6.07,0,0,1,220.68,145.65Z" transform="translate(0 -29.94)"/><circle fill="#0aa8a7" cx="86.92" cy="85.57" r="55.62" transform="matrix(0.96, -0.26, 0.26, 0.96, -19.43, -4.1)"/><path fill="#0aa8a7" d="M156.66,176.57a68.1,68.1,0,0,0-43.92-20.15,289.92,289.92,0,0,0-52.31.07,68.19,68.19,0,0,0-43.25,20.08,91.64,91.64,0,0,0-15.26,20.6c-5.7,10.27,2,22.89,13.73,22.89H158.19c11.75,0,19.42-12.62,13.72-22.89A91.3,91.3,0,0,0,156.66,176.57Z" transform="translate(0 -29.94)"/></svg>